<svg width="848" height="193" viewBox="0 0 848 193" fill="none" xmlns="http://www.w3.org/2000/svg"><g clip-path="url(#a)"><path d="M141.4 91.8a9.83 9.83 0 0 0-5.72-9.92L103.3 67.25a28.55 28.55 0 0 0-24.63-.9l-.06.03-34.3 15.5a9.83 9.83 0 0 0-5.72 9.88c-22.77 3.5-34.31 8.87-34.31 15.96v52.6c0 5.84 8.72 10.67 25.91 14.36C46.2 178.1 67.43 180 90 180s43.8-1.89 59.8-5.32c17.2-3.7 25.91-8.52 25.91-14.36v-52.6c0-7.1-11.54-12.46-34.3-15.93Zm31.05 15.92c0 2.03-2.86 4.77-10.14 7.48-3.37-8.6-29.54-12.27-41.23-13.48h-.11l-1.67-5.7 8.3 3.75a9.8 9.8 0 0 0 12.94-4.8c10.37 1.55 18.43 3.52 23.96 5.84 5.2 2.17 7.95 4.57 7.95 6.91ZM127 122.3l-5.05-17.2c22.93 2.51 35.66 7.32 37.27 11.16-2.83.9-6.18 1.8-10.12 2.64a214.22 214.22 0 0 1-22.1 3.4Zm10.82-29.45a7.32 7.32 0 0 1-3.88 4.12 6.5 6.5 0 0 1-5.01-.16l-10.85-4.9-3.29-11.21a19.9 19.9 0 0 0-2.86-5.95l22.4 10.12c2.84 1.28 4.41 5.13 3.49 7.98Zm-58.28-23.3a27.88 27.88 0 0 1 10.53-2.29c3.4 0 7.53.89 10.7 2.45 4.16 2.28 8.73 6.27 10.36 10.35H78.6a1.63 1.63 0 1 0 0 3.26h33.56l11.53 39.32a362.2 362.2 0 0 1-33.7 1.5c-11.8 0-23.22-.51-33.7-1.5l2.4-8.09h46.27a1.63 1.63 0 1 0 0-3.26h-45.3l8.83-29.7c1.43-5.09 5.86-9.53 11.05-12.04ZM53 122.29c-8.09-.85-15.55-2-22.11-3.4-3.94-.85-7.29-1.73-10.12-2.64 1.61-3.85 14.37-8.66 37.34-11.16l-5.1 17.2Zm-7.33-37.43 22.6-10.22a19.76 19.76 0 0 0-2.9 6.03l-3.32 11.16-10.99 4.97a6.5 6.5 0 0 1-5 .16 6.56 6.56 0 0 1-.39-12.1Zm-6.22 10.07a9.75 9.75 0 0 0 8.92 5.72 9.8 9.8 0 0 0 4.04-.88l8.4-3.8-1.7 5.73c-11.75 1.21-38.05 4.87-41.42 13.5-7.28-2.7-10.14-5.45-10.14-7.48 0-1.88 2.33-8.3 31.9-12.8Zm109.66 76.56c-15.77 3.38-36.76 5.25-59.11 5.25s-43.34-1.87-59.11-5.25c-17.2-3.7-23.34-8.2-23.34-11.17v-27.2c3.97 3.3 11.54 6.16 22.65 8.55 16 3.43 37.23 5.32 59.8 5.32a1.63 1.63 0 1 0 0-3.27c-22.35 0-43.34-1.86-59.11-5.25-17.2-3.69-23.34-8.18-23.34-11.16v-13.78c3.97 3.3 11.54 6.16 22.65 8.55 16 3.43 37.23 5.32 59.8 5.32s43.8-1.9 59.8-5.32c11.11-2.39 18.68-5.25 22.65-8.55v33.73c0 2.98-6.13 7.48-23.34 11.17-15.77 3.38-36.76 5.25-59.11 5.25a1.63 1.63 0 1 0 0 3.26c22.57 0 43.8-1.89 59.8-5.32 11.11-2.39 18.68-5.25 22.65-8.55v7.25c0 2.98-6.13 7.47-23.34 11.17ZM29.44 54.87a1.63 1.63 0 1 0 3.26 0c0-2.5.63-3.68 1.35-5.04.8-1.53 1.72-3.26 1.72-6.57 0-3.3-.91-5.03-1.72-6.56-.72-1.37-1.35-2.54-1.35-5.04s.63-3.67 1.35-5.04c.8-1.52 1.72-3.26 1.72-6.56a1.63 1.63 0 1 0-3.26 0c0 2.5-.62 3.67-1.34 5.04-.81 1.52-1.73 3.25-1.73 6.56 0 3.3.92 5.04 1.73 6.57.72 1.36 1.34 2.54 1.34 5.03 0 2.5-.62 3.68-1.34 5.04a12.34 12.34 0 0 0-1.73 6.57ZM8.7 81.49a1.63 1.63 0 1 0 3.27 0c0-2.5.62-3.68 1.35-5.04.8-1.53 1.72-3.26 1.72-6.57 0-3.3-.91-5.03-1.72-6.56-.73-1.37-1.35-2.54-1.35-5.04s.62-3.67 1.35-5.04c.8-1.53 1.72-3.26 1.72-6.56a1.63 1.63 0 1 0-3.26 0c0 2.5-.62 3.67-1.35 5.03-.8 1.53-1.72 3.26-1.72 6.57 0 3.3.91 5.04 1.72 6.56.73 1.37 1.35 2.55 1.35 5.04 0 2.5-.62 3.68-1.35 5.04a12.34 12.34 0 0 0-1.72 6.57ZM153.32 42.75c0 3.3.92 5.04 1.73 6.57a9.19 9.19 0 0 1 1.34 5.04 1.63 1.63 0 1 0 3.27 0c0-3.31-.92-5.04-1.73-6.57a9.19 9.19 0 0 1-1.34-5.04c0-2.5.62-3.67 1.34-5.04.8-1.52 1.73-3.26 1.73-6.56s-.92-5.04-1.73-6.57a9.19 9.19 0 0 1-1.34-5.03 1.63 1.63 0 0 0-3.27 0c0 3.3.92 5.03 1.73 6.56a9.19 9.19 0 0 1 1.34 5.04c0 2.5-.62 3.67-1.34 5.04-.81 1.52-1.73 3.26-1.73 6.56Z" fill="#4F7B4B" stroke="#4F7B4B"/><path d="M83.8 1.06C69.26 5.7 60.3 18.03 60.3 31.58c0 11.53 7.02 22 19.27 28.7l.1.04a21.91 21.91 0 0 0 10.29 2.58h.07l1.2.03c8.2 0 16.31-3.32 22.45-9.2 6.3-6.05 9.77-13.91 9.77-22.15A31.61 31.61 0 0 0 83.8 1.06c.01 0 0 0 0 0ZM72.6 45.03c0-6.17 3.34-10.92 8.58-12.89 1.87 3.16 8.65 11.88 27.17 13.33a18.57 18.57 0 0 1-18.33 14.17 18.7 18.7 0 0 1-8.84-2.2l-.05-.03-.1-.05c-5.28-2.92-8.43-7.52-8.43-12.33Zm27.9-21.17a19.88 19.88 0 0 1 8.41 18.38c-15.86-1.16-22.25-7.83-24.4-10.93a17.7 17.7 0 0 1 3.29-.14c4 0 7.75-1.62 10.57-4.55a15.5 15.5 0 0 0 2.13-2.76Zm19.68 7.72c0 7.34-3.11 14.37-8.76 19.79a30.41 30.41 0 0 1-4.04 3.24 23.25 23.25 0 0 0 4.9-14.49c0-7.74-3.96-15.01-10.4-19.25a15.26 15.26 0 0 0-5.3-17.2 28.36 28.36 0 0 1 23.6 27.9ZM83.62 4.49a12.03 12.03 0 0 1 15.84 11.4c0 3.17-1.22 6.18-3.42 8.47a11.36 11.36 0 0 1-8.23 3.54h-.95c-10.15 0-17.51 7.2-17.51 17.13 0 1.03.11 2.05.33 3.05-3.42-4.17-6.12-9.64-6.12-16.5 0-12.1 8.29-23.23 20.06-27.09Z" fill="#4F7B4B"/><path d="M83.8 1.06C69.26 5.7 60.3 18.03 60.3 31.58c0 11.53 7.02 22 19.27 28.7l.1.04a21.91 21.91 0 0 0 10.29 2.58h.07l1.2.03c8.2 0 16.31-3.32 22.45-9.2 6.3-6.05 9.77-13.91 9.77-22.15A31.61 31.61 0 0 0 83.8 1.06Zm0 0c-.02 0 0 0 0 0ZM72.6 45.03c0-6.17 3.34-10.92 8.58-12.89 1.87 3.16 8.65 11.88 27.17 13.33a18.57 18.57 0 0 1-18.33 14.17 18.7 18.7 0 0 1-8.84-2.2l-.05-.03-.1-.05c-5.28-2.92-8.43-7.52-8.43-12.33Zm27.9-21.17a19.88 19.88 0 0 1 8.41 18.38c-15.86-1.16-22.25-7.83-24.4-10.93a17.7 17.7 0 0 1 3.29-.14c4 0 7.75-1.62 10.57-4.55a15.5 15.5 0 0 0 2.13-2.76Zm19.68 7.72c0 7.34-3.11 14.37-8.76 19.79a30.41 30.41 0 0 1-4.04 3.24 23.25 23.25 0 0 0 4.9-14.49c0-7.74-3.96-15.01-10.4-19.25a15.26 15.26 0 0 0-5.3-17.2 28.36 28.36 0 0 1 23.6 27.9ZM83.62 4.49a12.03 12.03 0 0 1 15.84 11.4c0 3.17-1.22 6.18-3.42 8.47a11.36 11.36 0 0 1-8.23 3.54h-.95c-10.15 0-17.51 7.2-17.51 17.13 0 1.03.11 2.05.33 3.05-3.42-4.17-6.12-9.64-6.12-16.5 0-12.1 8.29-23.23 20.06-27.09Z" stroke="#4F7B4B"/></g><path d="m252.64 78.92-21.96 38.64L254.44 161h-6.24l-22.32-40.8h-12V161h-5.64V78.92h5.64v36.48H226l20.88-36.48h5.76Zm36.95 59.16c-2.24 5.92-4.2 10.36-5.88 13.32a20.24 20.24 0 0 1-6 6.84c-2.32 1.6-5.52 2.96-9.6 4.08l-1.08-4.32c3.28-1.04 5.8-2.16 7.56-3.36a15.98 15.98 0 0 0 4.92-5.52c1.44-2.56 3.04-6.32 4.8-11.28h-1.68l-24.96-58.92h5.88l22.56 54.96 19.68-54.96h5.64l-21.84 59.16Zm81.47-59.16V161h-5.52V83.96h-35.88V161h-5.64V78.92h47.04Zm61.4 0-.71 4.92h-30.6v31.92h26.52v4.8h-26.52v35.64h31.92v4.8H395.5V78.92h36.96Zm62.54 0V161h-5.64V83.96h-27.6l-4.8 42c-1.04 9.76-2.04 16.84-3 21.24-.96 4.4-2.24 7.64-3.84 9.72-1.52 2-3.96 3.68-7.32 5.04l-1.56-4.56a11.36 11.36 0 0 0 4.92-3.96c1.12-1.68 2.04-4.44 2.76-8.28.72-3.92 1.6-10.4 2.64-19.44l5.16-46.8H495Zm41.53 31.92c8.64 0 15.28 2.04 19.92 6.12 4.64 4 6.96 10.08 6.96 18.24 0 8.8-2.4 15.32-7.2 19.56-4.72 4.16-11.32 6.24-19.8 6.24h-16.92V78.92h5.64v31.92h11.4Zm.72 45.36c6.56 0 11.56-1.68 15-5.04 3.52-3.36 5.28-8.72 5.28-16.08 0-6.72-1.76-11.64-5.28-14.76-3.52-3.12-8.68-4.68-15.48-4.68h-11.64v40.56h12.12Zm87-77.28-21.97 38.64L626.04 161h-6.24l-22.32-40.8h-12V161h-5.64V78.92h5.64v36.48h12.12l20.88-36.48h5.76ZM688.3 161h-5.64v-45c0-12.56.24-22.8.72-30.72l-36 75.72h-6.96V78.92h5.52v45.24c0 10.8-.24 21-.72 30.6l36.12-75.84h6.96V161Zm66.42 0v-40.8h-36.36V161h-5.64V78.92h5.64v36.48h36.36V78.92h5.64V161h-5.64Zm55.15-83.28c9.2 0 16.48 3.6 21.84 10.8 5.36 7.12 8.04 17.64 8.04 31.56 0 13.6-2.68 24.04-8.04 31.32-5.28 7.28-12.56 10.92-21.84 10.92-5.92 0-11.16-1.6-15.72-4.8-4.48-3.2-7.96-7.96-10.44-14.28-2.48-6.32-3.72-14-3.72-23.04 0-9.12 1.24-16.84 3.72-23.16 2.48-6.4 5.96-11.2 10.44-14.4a26.23 26.23 0 0 1 15.72-4.92Zm0 4.92c-7.44 0-13.32 3.12-17.64 9.36-4.24 6.24-6.36 15.64-6.36 28.2 0 12.32 2.16 21.6 6.48 27.84 4.32 6.24 10.16 9.36 17.52 9.36 7.68 0 13.6-3.08 17.76-9.24 4.24-6.16 6.36-15.52 6.36-28.08 0-12.64-2.12-22.04-6.36-28.2s-10.16-9.24-17.76-9.24Z" fill="#4F7B4B"/><defs><clipPath id="a"><path fill="#fff" d="M0 0h180v180H0z"/></clipPath></defs></svg>