<svg fill="#4f7b4b" height="800" width="800" xmlns="http://www.w3.org/2000/svg" viewBox="0 0 468.84 468.84" xml:space="preserve"><g stroke="#4f7b4b" stroke-width="1.3"><path d="M368.3 239.08a25.61 25.61 0 0 0-14.9-25.8l-84.31-38.11a74.37 74.37 0 0 0-64.15-2.33l-.15.05-89.35 40.4A25.6 25.6 0 0 0 100.53 239c-59.3 9.12-89.36 23.1-89.36 41.58v137c0 15.2 22.71 27.78 67.5 37.4 41.65 8.93 96.96 13.86 155.75 13.86s114.1-4.93 155.75-13.86c44.79-9.62 67.5-22.2 67.5-37.4v-137c0-18.5-30.07-32.46-89.37-41.5zm80.87 41.5c0 5.29-7.45 12.42-26.4 19.47-8.77-22.41-76.95-31.95-107.4-35.1-.1-.02-.19 0-.28-.01l-4.36-14.83 21.6 9.77a25.51 25.51 0 0 0 33.71-12.54c27.01 4.07 48.01 9.19 62.43 15.23 13.54 5.67 20.7 11.9 20.7 18zM330.8 318.53l-13.14-44.79c59.71 6.52 92.87 19.05 97.07 29.06a285.05 285.05 0 0 1-26.36 6.86c-17.08 3.66-36.51 6.64-57.57 8.87zm28.18-76.72c-1.4 4.33-5.84 9.12-10.1 10.73a16.95 16.95 0 0 1-13.06-.41l-28.25-12.78-8.57-29.19a51.8 51.8 0 0 0-7.44-15.5l58.32 26.37c7.4 3.34 11.5 13.36 9.1 20.78zM207.2 181.1c7.96-3.44 18.13-5.94 27.43-5.94 8.85 0 19.6 2.31 27.85 6.37 10.86 5.93 22.77 16.34 27 26.96h-84.73a4.25 4.25 0 1 0 0 8.5h87.41l30.04 102.4a943.02 943.02 0 0 1-87.78 3.93c-30.73 0-60.48-1.35-87.76-3.93l6.26-21.06h120.5a4.25 4.25 0 1 0 0-8.5H155.44l22.97-77.36c3.73-13.24 15.28-24.81 28.8-31.36zm-69.15 137.43c-21.07-2.24-40.51-5.22-57.6-8.88a285.63 285.63 0 0 1-26.36-6.86c4.2-10.03 37.43-22.57 97.27-29.08l-13.31 44.81zm-19.1-97.51 58.86-26.62a51.47 51.47 0 0 0-7.57 15.7l-8.63 29.08-28.6 12.94a16.95 16.95 0 0 1-13.06.41 17.09 17.09 0 0 1-1-31.52zm-16.2 26.22a25.4 25.4 0 0 0 14.2 13.25 25.51 25.51 0 0 0 19.56-.62l21.9-9.9-4.43 14.91h-.04c-30.59 3.16-99.08 12.68-107.87 35.16-18.96-7.05-26.4-14.18-26.4-19.47 0-4.9 6.06-21.6 83.08-33.32zm285.63 199.41c-41.08 8.82-95.76 13.68-153.96 13.68s-112.89-4.86-153.97-13.68c-44.81-9.61-60.78-21.32-60.78-29.07v-70.87c10.33 8.6 30.04 16.05 59 22.27 41.65 8.94 96.96 13.86 155.75 13.86a4.25 4.25 0 1 0 0-8.5c-58.2 0-112.89-4.86-153.97-13.67-44.81-9.62-60.78-21.33-60.78-29.08v-35.9c10.33 8.6 30.04 16.05 59 22.27 41.65 8.94 96.96 13.86 155.75 13.86s114.1-4.92 155.75-13.86c28.95-6.22 48.67-13.67 59-22.27v87.87c0 7.75-15.97 19.46-60.79 29.08-41.08 8.82-95.76 13.67-153.96 13.67a4.25 4.25 0 1 0 0 8.5c58.78 0 114.1-4.92 155.75-13.86 28.95-6.21 48.67-13.67 59-22.27v18.9c0 7.75-15.97 19.46-60.79 29.07zM76.68 142.91a4.25 4.25 0 1 0 8.5 0c0-6.5 1.63-9.57 3.5-13.12 2.11-3.98 4.5-8.49 4.5-17.1 0-8.61-2.39-13.12-4.5-17.1-1.87-3.56-3.5-6.62-3.5-13.13 0-6.5 1.63-9.56 3.5-13.12 2.11-3.97 4.5-8.48 4.5-17.1a4.25 4.25 0 1 0-8.5 0c0 6.5-1.63 9.57-3.5 13.13-2.11 3.97-4.5 8.48-4.5 17.1 0 8.6 2.39 13.12 4.5 17.1 1.87 3.55 3.5 6.62 3.5 13.12 0 6.5-1.63 9.57-3.5 13.12-2.11 3.98-4.5 8.5-4.5 17.1zM22.68 212.25a4.25 4.25 0 1 0 8.5 0c0-6.5 1.63-9.57 3.5-13.13 2.11-3.98 4.5-8.49 4.5-17.1 0-8.61-2.39-13.12-4.5-17.1-1.87-3.55-3.5-6.62-3.5-13.12s1.63-9.57 3.5-13.12c2.11-3.98 4.5-8.5 4.5-17.1a4.25 4.25 0 1 0-8.5 0c0 6.5-1.63 9.57-3.5 13.12-2.11 3.98-4.5 8.49-4.5 17.1 0 8.6 2.39 13.12 4.5 17.1 1.87 3.55 3.5 6.62 3.5 13.12 0 6.5-1.63 9.57-3.5 13.13-2.11 3.97-4.5 8.48-4.5 17.1zM399.35 111.36c0 8.6 2.38 13.12 4.5 17.1 1.87 3.55 3.5 6.62 3.5 13.12a4.25 4.25 0 1 0 8.5 0c0-8.61-2.4-13.12-4.5-17.1-1.88-3.55-3.5-6.62-3.5-13.12s1.62-9.57 3.5-13.13c2.1-3.98 4.5-8.49 4.5-17.1 0-8.6-2.4-13.12-4.5-17.1-1.88-3.55-3.5-6.62-3.5-13.12a4.25 4.25 0 1 0-8.5 0c0 8.61 2.38 13.12 4.5 17.1 1.87 3.55 3.5 6.62 3.5 13.12 0 6.5-1.63 9.57-3.5 13.12-2.12 3.98-4.5 8.5-4.5 17.1zM218.25 2.77c-37.83 12.09-61.2 44.19-61.2 79.48 0 30.04 18.3 57.28 50.2 74.74.08.05.17.08.26.12a57.08 57.08 0 0 0 26.8 6.72H234.51c1.05.04 2.09.07 3.14.07 21.32 0 42.46-8.63 58.46-23.97 16.4-15.73 25.44-36.21 25.44-57.68C321.55 36.9 284.65 0 239.3 0c-6.67 0-14.5.85-21.05 2.77.03.01-.03-.01 0 0zM189.13 117.3c0-16.06 8.7-28.45 22.35-33.57 4.86 8.22 22.51 30.93 70.75 34.72-5.62 21.76-24.27 36.9-47.72 36.9a48.7 48.7 0 0 1-23.04-5.75l-.13-.05-.25-.14c-13.76-7.61-21.96-19.6-21.96-32.1zm72.65-55.14a51.78 51.78 0 0 1 21.93 47.88c-41.31-3.03-57.98-20.41-63.55-28.47a46.1 46.1 0 0 1 7.48-.4 38.02 38.02 0 0 0 28.62-11.82 40.4 40.4 0 0 0 5.52-7.19zm51.27 20.1c0 19.13-8.1 37.43-22.83 51.54a79.03 79.03 0 0 1-10.5 8.45c8.26-10.47 12.75-23.66 12.75-37.74a60.3 60.3 0 0 0-27.06-50.15c1.4-4.13 2.14-8.5 2.14-12.98 0-13-6.27-24.56-15.94-31.82 34.82 5.88 61.44 36.23 61.44 72.7zM217.8 11.69a31.33 31.33 0 0 1 41.25 29.68c0 8.28-3.16 16.12-8.9 22.07a29.6 29.6 0 0 1-21.43 9.24l-.84-.01-1.65-.03c-26.42 0-45.6 18.78-45.6 44.65 0 2.68.29 5.34.85 7.95-8.9-10.87-15.93-25.12-15.93-43 0-31.5 21.6-60.48 52.25-70.55z"/></g></svg>