<svg width="48" height="48" viewBox="0 0 48 48" fill="none" xmlns="http://www.w3.org/2000/svg"><g clip-path="url(#clip0_1745_1094)"><g clip-path="url(#clip1_1745_1094)"><path d="M21.3934 12.8626C20.8673 11.8941 20.8914 10.7311 21.4599 9.6722C21.6364 9.34382 21.8458 9.02034 22.0483 8.70752C22.5844 7.88017 23.1387 7.02446 23.2101 5.92118C23.2112 5.90689 23.2114 5.89197 23.2112 5.87725C23.3177 4.30827 22.7225 2.89729 21.5739 2L20.8823 2.93333C21.7263 3.59287 22.159 4.64838 22.0693 5.8297C22.0679 5.84637 22.0675 5.8631 22.0678 5.87981C22.0059 6.65535 21.5841 7.30636 21.097 8.05822C20.8816 8.39087 20.6588 8.73482 20.4594 9.10606C19.7079 10.5062 19.6841 12.1242 20.3958 13.4339L21.3934 12.8626ZM27.5365 11.8014C27.3195 11.0139 27.7162 10.4409 28.3812 9.57155C28.7156 9.13442 29.0614 8.68236 29.3142 8.14736C30.1064 6.47047 29.5348 4.62855 28.6167 3.54702L27.7554 4.31765C28.4265 5.10812 28.8508 6.44062 28.2863 7.63559C28.0871 8.05716 27.7936 8.44098 27.4829 8.84719C26.8116 9.72466 26.051 10.719 26.4372 12.1206L27.5365 11.8014ZM14.6123 11.8014C14.3952 11.0139 14.7919 10.4409 15.457 9.57155C15.7914 9.13442 16.1372 8.68236 16.39 8.14736C17.1821 6.47026 16.6105 4.62834 15.6925 3.54702L14.8312 4.31765C15.5023 5.1079 15.9268 6.44062 15.3621 7.63559C15.1629 8.05716 14.8694 8.44098 14.5585 8.84719C13.8876 9.72466 13.1268 10.719 13.5129 12.1206L14.6123 11.8014ZM35.9335 42.9968C36.7519 42.9968 37.485 42.5906 37.9441 41.9564C38.0521 41.9927 38.1607 42.0296 38.2706 42.0669C39.6316 42.5281 41.0238 43 42.3797 43C43.0131 43 43.6387 42.8968 44.2494 42.6418C45.692 42.0383 48.3184 40.4002 47.9682 38.5078C47.7279 36.7648 46.3342 36.0012 44.7422 35.6604C44.844 35.4713 44.9219 35.2692 44.9682 35.0523C45.0556 34.644 45.0309 34.2177 44.8968 33.778C45.6625 33.5349 46.1585 33.1784 46.4088 32.696C46.7064 32.1216 46.6287 31.451 46.1774 30.7027L46.1679 30.6874C45.9955 30.3957 45.7496 30.0782 45.4166 29.7178C43.9798 28.1622 41.6754 28.0546 39.7992 28.5079L40.0167 26.579H40.5266C40.6781 26.579 40.8233 26.5172 40.9305 26.4072C41.0376 26.2973 41.0977 26.1481 41.0977 25.9926V22.5171C41.0976 22.3642 41.0393 22.2174 40.9351 22.1081C40.831 21.9988 40.6894 21.9357 40.5405 21.9322L40.8763 18.9533C40.9168 18.5929 40.8827 18.2278 40.7762 17.882C40.6696 17.5361 40.4931 17.2172 40.2582 16.9463C40.0231 16.6755 39.7348 16.4588 39.4124 16.3103C39.09 16.1618 38.7406 16.085 38.3873 16.0848H35.1266C34.3519 16.0848 33.6528 16.4552 33.1905 17.0339C33.1559 16.9899 33.1198 16.9471 33.0825 16.9056C32.8477 16.647 32.5637 16.4408 32.2481 16.2996C31.9324 16.1584 31.5919 16.0853 31.2477 16.0848H27.3753C26.5902 16.0848 25.8949 16.448 25.4367 17.0216C25.3931 16.9665 25.3474 16.9133 25.2996 16.8621C25.0668 16.6152 24.7879 16.4191 24.4796 16.2855C24.1712 16.152 23.8398 16.0837 23.5051 16.0848H19.5929C19.2582 16.0837 18.9268 16.152 18.6184 16.2855C18.31 16.4191 18.0311 16.6152 17.7984 16.8621C17.7498 16.9132 17.7049 16.9672 17.6613 17.0216C17.4263 16.7273 17.1303 16.4905 16.795 16.3285C16.4596 16.1665 16.0933 16.0832 15.7226 16.0848H11.8503C11.506 16.0853 11.1655 16.1584 10.8499 16.2996C10.5343 16.4408 10.2503 16.647 10.0155 16.9056C9.97812 16.9471 9.9421 16.9899 9.90749 17.0339C9.44515 16.4552 8.74583 16.085 7.97112 16.085H4.71067C3.9966 16.085 3.31473 16.3989 2.83972 16.9461C2.6048 17.217 2.42829 17.5359 2.32177 17.8817C2.21524 18.2276 2.18111 18.5927 2.22161 18.953L2.55746 21.9319C2.40851 21.9354 2.26679 21.9985 2.16262 22.1079C2.05844 22.2172 2.00007 22.3641 2 22.5171V25.9928C2 26.1483 2.06018 26.2975 2.16729 26.4074C2.27441 26.5174 2.41969 26.5792 2.57117 26.5792H3.08128L3.92931 34.1011C3.84539 34.1529 3.77593 34.2261 3.72765 34.3136C3.67937 34.4011 3.65389 34.4999 3.65369 34.6005V38.0762C3.65369 38.2317 3.71387 38.3809 3.82099 38.4908C3.9281 38.6008 4.07338 38.6626 4.22486 38.6626H4.44336L4.67536 40.7203C4.74599 41.3472 5.03862 41.9255 5.49757 42.3452C5.95652 42.765 6.54976 42.9969 7.16442 42.9968H35.9335ZM44.5879 30.5247C44.8671 30.827 45.0733 31.0919 45.2004 31.3115C45.206 31.3211 45.212 31.3307 45.2181 31.3401C45.3668 31.5913 45.513 31.9273 45.4002 32.145C45.3111 32.3169 44.8164 32.8858 42.1902 32.9895C40.6369 33.0504 38.9003 33.0172 37.7953 32.3065C37.5908 32.1747 37.3438 31.9691 37.3293 31.7378C37.312 31.4614 37.5827 31.0597 38.0477 30.6673L38.0483 30.6667C38.1684 30.5746 38.4961 30.3281 38.6272 30.2456C38.9468 30.0445 39.2877 29.8762 39.539 29.7956C41.1711 29.2728 43.3544 29.1896 44.5879 30.5249V30.5247ZM27.6401 36.6093H27.637C26.9547 36.6085 26.1941 36.2451 25.9054 35.782C25.7378 35.5133 25.7295 35.2325 25.8791 34.8981C25.9823 34.6676 26.1624 34.5141 26.4295 34.429C26.584 34.3795 26.7535 34.3578 26.9269 34.3578C27.3755 34.3578 27.8491 34.5028 28.1534 34.6889C28.6736 35.0073 29.3447 35.6596 29.7749 36.1816C29.1455 36.4029 28.2458 36.6093 27.6401 36.6093ZM30.0791 37.384C29.9512 38.0551 29.6745 38.9605 29.3711 39.4987C29.0294 40.1047 28.3424 40.5994 27.8075 40.6246C27.4945 40.6386 27.2559 40.5062 27.0486 40.2062C26.9057 39.9991 26.8663 39.7622 26.9282 39.482C27.0559 38.9006 27.5805 38.3252 28.0092 38.0794C28.538 37.7759 29.4236 37.5054 30.0791 37.384ZM28.0246 31.1305C27.6865 31.8011 27.6925 32.6137 27.8688 33.3138C27.3122 33.1611 26.6725 33.1229 26.0905 33.3089C25.9266 33.3611 25.7761 33.4306 25.6369 33.5136L25.8118 26.5792H32.0537L31.7233 31.249C31.585 31.0102 31.418 30.7872 31.2177 30.5974C30.7733 30.1758 30.2364 29.9811 29.6654 30.0366C28.9275 30.1069 28.3444 30.4957 28.0246 31.1305ZM32.5113 33.5255C32.8532 32.9195 33.54 32.4248 34.075 32.3997C34.0902 32.399 34.1054 32.3986 34.1205 32.3986C34.4092 32.3986 34.6367 32.5329 34.8338 32.818C34.9767 33.0249 35.0161 33.262 34.9544 33.5422C34.8265 34.1237 34.3019 34.699 33.8732 34.9448C33.3444 35.2483 32.4587 35.5189 31.8032 35.6402C31.9312 34.9691 32.2083 34.0635 32.5115 33.5255H32.5113ZM34.0225 31.2281C33.605 31.2478 33.2042 31.39 32.8436 31.6013L33.1992 26.579H38.8666L38.6022 28.9246C38.4137 29.0182 38.219 29.1267 38.0298 29.2459C37.8068 29.3862 37.3438 29.7434 37.3403 29.7462C37.3344 29.751 37.3286 29.756 37.3228 29.7611C36.6194 30.356 36.2326 30.9882 36.1911 31.6026C35.9329 31.6482 35.6785 31.6968 35.4305 31.7501C35.04 31.3864 34.5544 31.203 34.0225 31.2281ZM36.0687 33.8006C36.1439 33.4588 36.1408 33.1281 36.0667 32.8176C36.2332 32.7854 36.3948 32.7562 36.5485 32.73C36.6974 32.9223 36.9037 33.1168 37.1889 33.3004C38.3032 34.0168 39.8034 34.1825 41.255 34.1825C41.5856 34.1825 41.9138 34.174 42.2341 34.1612C42.8075 34.1386 43.3187 34.0938 43.7727 34.0269C43.8747 34.3094 43.9021 34.5685 43.8524 34.8007C43.6011 35.976 41.4022 36.6622 39.9116 36.7061C38.8536 36.7364 37.7962 36.6242 36.7666 36.3724C36.3599 35.8733 35.7647 35.5472 35.1752 35.3796C35.5823 34.961 35.9344 34.4113 36.0687 33.8006ZM33.767 18.556C33.8185 17.828 34.4157 17.2578 35.1266 17.2578H38.3875C38.7815 17.2578 39.1429 17.4241 39.4052 17.7263C39.534 17.873 39.6307 18.0464 39.6887 18.2347C39.7468 18.4231 39.7648 18.622 39.7417 18.8181L39.3907 21.9307H33.5284L33.767 18.556ZM26.0124 18.621C26.0198 18.2556 26.1668 17.9078 26.4218 17.6528C26.6768 17.3977 27.0193 17.2558 27.3753 17.2578H31.2477C31.6306 17.2578 31.985 17.4163 32.2461 17.7041C32.5071 17.992 32.6351 18.3666 32.6075 18.7588L32.3827 21.9307H25.9289L26.0124 18.621ZM18.6163 17.6807C18.7429 17.5463 18.8947 17.4396 19.0625 17.3669C19.2304 17.2943 19.4107 17.2572 19.5929 17.2578H23.5051C23.8758 17.2578 24.2227 17.4079 24.4813 17.6805C24.6088 17.8139 24.7089 17.9724 24.7753 18.1465C24.8418 18.3206 24.8733 18.5066 24.868 18.6935L24.7864 21.9307H18.3116L18.23 18.6938C18.2246 18.5068 18.256 18.3208 18.3224 18.1466C18.3888 17.9725 18.4887 17.8142 18.6163 17.6807ZM10.8519 17.7041C10.979 17.5626 11.1334 17.4498 11.3053 17.3729C11.4772 17.296 11.6628 17.2567 11.8503 17.2576H15.7224C16.0785 17.2556 16.421 17.3975 16.6761 17.6527C16.9311 17.9078 17.0781 18.2557 17.0853 18.6213L17.1686 21.9307H10.715L10.4907 18.7588C10.4763 18.5669 10.5009 18.374 10.5631 18.1924C10.6253 18.0108 10.7236 17.8445 10.8519 17.7041ZM3.69253 17.7263C3.81975 17.5781 3.97643 17.4596 4.15202 17.3788C4.32761 17.2979 4.51804 17.2567 4.71046 17.2578H7.97132C8.68207 17.2578 9.2792 17.828 9.33071 18.556L9.56956 21.9307H3.70707L3.35627 18.8183C3.33311 18.6222 3.35116 18.4233 3.4092 18.2349C3.46724 18.0466 3.56393 17.8732 3.69274 17.7265L3.69253 17.7263ZM3.14234 25.4062V23.1035H39.9554V25.4064L3.14234 25.4062ZM24.669 26.579L24.4815 34.0141H18.6163L18.4287 26.579H24.669ZM17.4737 34.0141H11.5703L11.044 26.579H17.2864L17.4737 34.0141ZM4.23109 26.579H9.89856L10.4249 34.0141H5.06957L4.23109 26.579ZM7.16442 41.824C6.82996 41.824 6.50718 41.6978 6.25748 41.4694C6.00778 41.2409 5.8486 40.9262 5.81022 40.5851L5.59339 38.6624H10.7543L10.978 41.824H7.16442ZM12.1232 41.824L11.8993 38.6624H17.5909L17.6706 41.824H12.1232ZM24.2846 41.824H18.8134L18.7336 38.6624H24.3643L24.2846 41.824ZM4.79603 37.4896V35.1868H24.6385C24.6063 35.6178 24.7085 36.0377 24.9434 36.4147C25.2545 36.9134 25.7457 37.2667 26.2704 37.4896H4.79603ZM25.4271 41.824L25.5069 38.6624H26.0033C25.9208 38.842 25.8573 39.0301 25.8138 39.2236C25.6803 39.8296 25.7852 40.4039 26.1167 40.8843C26.5256 41.4764 27.1076 41.7984 27.7641 41.7984C27.7957 41.7984 27.8279 41.7976 27.8599 41.7963C28.5945 41.7615 29.2772 41.3498 29.7794 40.8429C29.8688 41.1883 30.0062 41.5187 30.1876 41.8238L25.4271 41.824ZM29.2072 33.6228C28.8666 33.0159 28.7929 32.1578 29.039 31.6695C29.1819 31.3861 29.4147 31.2384 29.7713 31.2043C29.7983 31.2015 29.8253 31.2004 29.8517 31.2004C30.0656 31.2004 30.2596 31.2855 30.4426 31.4589C30.869 31.8634 31.0919 32.6176 31.0852 33.1217C31.0769 33.7432 30.8622 34.6661 30.6368 35.3095C30.1346 34.8604 29.5094 34.1616 29.207 33.6228H29.2072ZM32.8434 41.3547C32.7005 41.6379 32.4679 41.7858 32.1111 41.82C31.8647 41.8441 31.6454 41.7602 31.44 41.5654C31.0134 41.1606 30.7905 40.4066 30.7974 39.9025C30.8057 39.281 31.0202 38.3581 31.2456 37.7145C31.7478 38.1638 32.373 38.8626 32.6754 39.4012C33.016 40.0083 33.0897 40.8662 32.8436 41.3545L32.8434 41.3547ZM32.1077 36.8426C32.7366 36.6213 33.6368 36.4149 34.2425 36.4149H34.2456C34.9277 36.4157 35.6882 36.7791 35.9772 37.2422C36.1446 37.5109 36.1531 37.7917 36.0035 38.1261C35.9005 38.3564 35.7202 38.5101 35.4531 38.5952C34.8986 38.7724 34.1509 38.5935 33.7292 38.3351C33.2092 38.0169 32.5379 37.365 32.1077 36.8426ZM35.9335 41.8238H33.8894C33.9243 41.7485 33.955 41.6715 33.9818 41.5931C34.4238 41.6523 34.8267 41.57 35.1769 41.498C35.5424 41.4227 35.8581 41.3577 36.1884 41.4334C36.3618 41.4732 36.5377 41.5191 36.7159 41.5692C36.4869 41.735 36.2136 41.824 35.9333 41.824L35.9335 41.8238ZM43.8184 41.5553C42.2908 42.194 40.4292 41.5632 38.6286 40.9532C37.9027 40.7071 37.1519 40.4527 36.437 40.2887C36.2538 40.247 36.0667 40.2263 35.8791 40.2269C35.5416 40.2269 35.2344 40.29 34.9522 40.3482C34.6163 40.4175 34.3633 40.4634 34.1255 40.4301C34.1106 40.1867 34.073 39.9454 34.0134 39.7094C34.3091 39.7904 34.6277 39.8405 34.9497 39.8405C35.2334 39.8405 35.5192 39.8025 35.7921 39.7153C36.3701 39.5309 36.8023 39.1507 37.0418 38.6155C37.1822 38.3014 37.2505 37.983 37.2491 37.6727C38.1383 37.8355 39.0413 37.9043 39.9442 37.8783C41.0699 37.8455 42.6949 37.4859 43.8009 36.6906C45.4199 36.8983 46.669 37.4071 46.8387 38.6835C46.8402 38.6956 46.8423 38.7078 46.8445 38.7197C47.0115 39.575 45.3838 40.9007 43.8184 41.5553Z" fill="#2C713C"/></g></g><defs><clipPath id="clip0_1745_1094"><rect width="48" height="48" fill="white"/></clipPath><clipPath id="clip1_1745_1094"><rect width="46" height="41" fill="white" transform="translate(2 2)"/></clipPath></defs></svg>