<svg width="134" height="167" viewBox="0 0 134 167" fill="none" xmlns="http://www.w3.org/2000/svg"><path fill-rule="evenodd" clip-rule="evenodd" d="M63.9998 118.039C90.6936 118.039 112.333 96.3992 112.333 69.7054C112.333 43.0116 90.6936 21.3721 63.9998 21.3721C37.3061 21.3721 15.6665 43.0116 15.6665 69.7054C15.6665 96.3992 37.3061 118.039 63.9998 118.039Z" fill="#EDE8E2" stroke="#8B9D83" stroke-width="4.83333"/><path fill-rule="evenodd" clip-rule="evenodd" d="M63.9998 113.206C63.9998 113.206 83.3332 97.3879 83.3332 69.7061C83.3332 42.0242 63.9998 26.2061 63.9998 26.2061C63.9998 26.2061 44.6665 42.0242 44.6665 69.7061C44.6665 97.3879 63.9998 113.206 63.9998 113.206Z" stroke="#8B9D83" stroke-width="4.83333"/><path d="M18.0832 55.2054H109.916" stroke="#8B9D83" stroke-width="4.83333" stroke-linecap="round"/><path d="M18.0832 84.2054H109.916" stroke="#8B9D83" stroke-width="4.83333" stroke-linecap="round"/><path d="M7.13721 92.1375C7.13721 90.0234 8.85105 88.3096 10.9652 88.3096H57.8578C59.9719 88.3096 61.6857 90.0234 61.6857 92.1375V123.878C61.6857 125.992 59.9719 127.706 57.8578 127.706H10.9652C8.85104 127.706 7.13721 125.992 7.13721 123.878V92.1375Z" fill="#306838"/><path fill-rule="evenodd" clip-rule="evenodd" d="M53.0313 93.8844C54.1366 93.2893 55.515 93.7028 56.1101 94.808C56.7052 95.9133 56.2917 97.2917 55.1865 97.8868L35.4884 108.493C34.8157 108.856 34.006 108.856 33.3333 108.493L13.6352 97.8868C12.53 97.2917 12.1164 95.9133 12.7116 94.808C13.3067 93.7028 14.6851 93.2893 15.7903 93.8844L34.4108 103.911L53.0313 93.8844Z" fill="white"/></svg>