<svg xmlns="http://www.w3.org/2000/svg" xmlns:xlink="http://www.w3.org/1999/xlink"><symbol id="burger-menu" viewBox="0 0 49 34"><g fill="none">
<path d="M0 2H49" stroke="#424242" stroke-width="3"/>
<path d="M0 17H49" stroke="#424242" stroke-width="3"/>
<path d="M0 32H24" stroke="#424242" stroke-width="3"/>
</g></symbol><symbol id="close-menu" viewBox="0 0 39 38"><g fill="none">
<path d="M2 36.5244L36.5245 1.99993" stroke="#424242" stroke-width="3"/>
<path d="M37 36.5244L2.47551 1.99992" stroke="#424242" stroke-width="3"/>
</g></symbol><symbol id="logo" viewBox="0 0 328 118"><g fill="none"><path d="M55 30.01c-1.48-2.67-1.42-5.89.2-8.81.5-.91 1.1-1.8 1.67-2.67 1.52-2.28 3.09-4.65 3.3-7.7v-.12c.3-4.33-1.4-8.23-4.65-10.71l-1.96 2.58c2.4 1.82 3.62 4.74 3.36 8v.14c-.17 2.14-1.37 3.94-2.75 6.02-.61.92-1.25 1.87-1.81 2.9a12.27 12.27 0 0 0-.18 11.95L55 30Zm17.43-2.93c-.61-2.18.51-3.76 2.4-6.16.95-1.2 1.93-2.46 2.64-3.94 2.25-4.63.63-9.72-1.97-12.7L73.05 6.4c1.9 2.19 3.11 5.87 1.5 9.17a19.19 19.19 0 0 1-2.27 3.35c-1.9 2.42-4.06 5.17-2.97 9.04l3.12-.88Zm-36.66 0c-.61-2.18.51-3.76 2.4-6.16.95-1.2 1.93-2.46 2.65-3.94 2.24-4.63.62-9.72-1.98-12.7L36.39 6.4c1.9 2.19 3.11 5.87 1.51 9.17a19.17 19.17 0 0 1-2.28 3.35c-1.9 2.42-4.06 5.17-2.96 9.04l3.11-.88Zm60.48 86.19a7.1 7.1 0 0 0 5.7-2.88l.93.3c3.86 1.28 7.8 2.58 11.65 2.58 1.8 0 3.58-.28 5.3-.99 4.1-1.66 11.55-6.19 10.55-11.42-.68-4.81-4.63-6.92-9.14-7.86.28-.53.5-1.09.64-1.68.24-1.13.17-2.31-.2-3.52 2.16-.68 3.57-1.66 4.28-3 .85-1.58.63-3.43-.65-5.5l-.03-.04a16.3 16.3 0 0 0-2.13-2.68c-4.08-4.3-10.61-4.6-15.94-3.34l.62-5.33h1.45a1.62 1.62 0 0 0 1.62-1.62v-9.6a1.61 1.61 0 0 0-1.58-1.62l.95-8.23a7.11 7.11 0 0 0-7.06-7.93h-9.25a7.1 7.1 0 0 0-5.5 2.63 7.02 7.02 0 0 0-5.5-2.63H71.98c-2.23 0-4.2 1-5.5 2.6l-.4-.45A7.05 7.05 0 0 0 61 38.91H49.9a7.05 7.05 0 0 0-5.48 2.6 7.07 7.07 0 0 0-5.5-2.6H27.94a7.13 7.13 0 0 0-5.51 2.63 7.1 7.1 0 0 0-5.5-2.63H7.7a7.12 7.12 0 0 0-7.06 7.93l.95 8.23A1.62 1.62 0 0 0 0 56.68v9.6a1.62 1.62 0 0 0 1.62 1.63h1.45l2.4 20.78a1.61 1.61 0 0 0-.78 1.38v9.6a1.62 1.62 0 0 0 1.62 1.62h.62l.66 5.68a7.1 7.1 0 0 0 7.06 6.3h81.6ZM120.8 78.8a13.1 13.1 0 0 1 1.78 2.25c.43.7.84 1.62.52 2.22-.25.48-1.66 2.05-9.1 2.34-4.41.17-9.33.07-12.47-1.89-.58-.36-1.28-.93-1.32-1.57-.05-.77.72-1.87 2.04-2.96.34-.26 1.27-.94 1.64-1.16.9-.56 1.87-1.02 2.59-1.25 4.63-1.44 10.82-1.67 14.32 2.02ZM72.73 95.6h-.01c-1.94 0-4.1-1-4.91-2.28-.48-.74-.5-1.52-.08-2.44.3-.64.8-1.06 1.56-1.3.44-.13.92-.2 1.41-.2 1.28 0 2.62.4 3.48.92 1.48.88 3.38 2.68 4.6 4.13a21.7 21.7 0 0 1-6.05 1.18Zm6.91 2.15a21.66 21.66 0 0 1-2 5.84c-.97 1.67-2.92 3.04-4.44 3.11-.89.04-1.56-.33-2.15-1.15a2.38 2.38 0 0 1-.34-2 6.77 6.77 0 0 1 3.06-3.88c1.5-.84 4.01-1.59 5.87-1.92Zm-5.82-17.28c-.96 1.85-.95 4.1-.45 6.03a9.24 9.24 0 0 0-5.04-.01c-.46.14-.9.34-1.29.56l.5-19.15h17.7l-.93 12.9a8 8 0 0 0-1.44-1.8 5.59 5.59 0 0 0-4.4-1.55 5.62 5.62 0 0 0-4.65 3.02Zm12.72 6.62c.97-1.68 2.92-3.04 4.44-3.11h.13c.82 0 1.46.37 2.02 1.15.4.57.52 1.23.34 2a6.77 6.77 0 0 1-3.06 3.88c-1.5.84-4.02 1.58-5.88 1.92a21.68 21.68 0 0 1 2.01-5.84Zm4.29-6.35a7.48 7.48 0 0 0-3.34 1.03l1-13.87h16.08l-.75 6.48a18.57 18.57 0 0 0-3.58 2.27l-.05.04c-2 1.64-3.1 3.39-3.21 5.08l-2.16.41a5.45 5.45 0 0 0-4-1.44Zm5.8 7.1c.22-.94.2-1.85 0-2.7.47-.1.93-.18 1.36-.25.43.53 1.01 1.07 1.82 1.58 3.16 1.97 7.42 2.43 11.53 2.43.94 0 1.87-.02 2.78-.06a42.3 42.3 0 0 0 4.36-.37c.3.78.37 1.5.23 2.14-.71 3.25-6.95 5.14-11.18 5.26-3 .09-6-.22-8.92-.92a9.04 9.04 0 0 0-4.51-2.74 9.24 9.24 0 0 0 2.53-4.36ZM90.1 45.75a3.88 3.88 0 0 1 3.86-3.59h9.25a3.82 3.82 0 0 1 3.7 2.7c.16.52.2 1.07.14 1.61l-1 8.6H89.44l.67-9.32Zm-22 .18a3.85 3.85 0 0 1 3.88-3.77h10.98c1.08 0 2.09.44 2.83 1.24.74.8 1.1 1.83 1.03 2.91l-.64 8.76h-18.3l.23-9.14Zm-20.97-2.6a3.83 3.83 0 0 1 2.77-1.17H61a3.84 3.84 0 0 1 3.86 3.97l-.23 8.94H46.27l-.24-8.94a3.84 3.84 0 0 1 1.1-2.8Zm-22.02.07a3.83 3.83 0 0 1 2.83-1.24h10.98a3.85 3.85 0 0 1 3.87 3.77l.23 9.14h-18.3l-.64-8.76a3.83 3.83 0 0 1 1.03-2.91Zm-20.3.06a3.82 3.82 0 0 1 2.88-1.3h9.25a3.88 3.88 0 0 1 3.85 3.59l.68 9.32H4.84l-1-8.6a3.82 3.82 0 0 1 .96-3.01ZM3.23 64.67V58.3h104.42v6.37H3.24ZM64.3 67.9l-.53 20.54H47.13L46.6 67.9h17.7ZM43.89 88.45H27.15l-1.5-20.54h17.7l.54 20.54ZM6.33 67.9H22.4l1.5 20.54H8.7L6.34 67.9Zm8.32 42.11a3.87 3.87 0 0 1-3.84-3.42l-.62-5.31h14.64l.64 8.73H14.65Zm14.06 0-.63-8.73h16.14l.23 8.73H28.7Zm34.5 0H47.69l-.23-8.73h15.97l-.22 8.73ZM7.93 98.05v-6.36h56.28c-.09 1.19.2 2.35.87 3.39a8.05 8.05 0 0 0 3.76 2.97H7.94Zm58.52 11.97.23-8.73h1.4a7.7 7.7 0 0 0-.53 1.55 5.6 5.6 0 0 0 .85 4.59 5.63 5.63 0 0 0 4.95 2.52c2.08-.1 4.02-1.24 5.44-2.64.26.96.65 1.87 1.16 2.71h-13.5Zm10.72-22.65c-.97-1.68-1.17-4.05-.48-5.4.4-.78 1.07-1.2 2.08-1.29a2.31 2.31 0 0 1 1.9.7 6.78 6.78 0 0 1 1.83 4.6 21.65 21.65 0 0 1-1.27 6.05 21.65 21.65 0 0 1-4.06-4.66Zm10.31 21.36c-.4.78-1.06 1.19-2.07 1.28-.7.07-1.32-.16-1.9-.7a6.77 6.77 0 0 1-1.83-4.6c.02-1.71.63-4.26 1.27-6.04a21.68 21.68 0 0 1 4.06 4.66c.96 1.68 1.17 4.05.48 5.4ZM85.4 96.26a21.7 21.7 0 0 1 6.05-1.18h.01c1.94 0 4.1 1 4.91 2.29.48.74.5 1.51.08 2.44-.3.63-.8 1.06-1.56 1.3-1.58.48-3.7-.01-4.9-.72a21.63 21.63 0 0 1-4.6-4.13Zm10.85 13.76h-5.8c.1-.2.19-.42.26-.63 1.26.16 2.4-.07 3.4-.27 1.03-.2 1.93-.38 2.86-.18.5.12 1 .24 1.5.38-.65.46-1.43.7-2.22.7Zm22.36-.74c-4.33 1.77-9.6.02-14.72-1.66-2.06-.68-4.18-1.38-6.21-1.84a7.2 7.2 0 0 0-1.58-.17c-.96 0-1.83.18-2.63.34a7.2 7.2 0 0 1-2.35.22c-.04-.67-.15-1.34-.32-1.99.84.23 1.75.36 2.66.36.8 0 1.61-.1 2.39-.34a5.6 5.6 0 0 0 3.54-3.04c.4-.87.6-1.75.6-2.6 2.51.44 5.08.64 7.64.56 3.19-.09 7.8-1.08 10.94-3.28 4.59.58 8.13 1.98 8.61 5.5l.02.1c.47 2.37-4.14 6.03-8.59 7.84ZM169.31 68.14l.12 1.48c-1.38.42-2.7.63-3.95.63-1.2 0-2.22-.33-3.08-.98a6.13 6.13 0 0 1-1.92-2.38c-.41-.96-.84-2-1.28-3.12-.42-1.12-.82-2.17-1.22-3.13a5.75 5.75 0 0 0-1.64-2.38 3.8 3.8 0 0 0-2.61-.98l.39 11.49c-.24.8-.7 1.2-1.37 1.2-.47 0-.92-.19-1.37-.58-.41-.39-.67-.86-.78-1.4.03-.55.12-4.95.28-13.2.15-8.29.27-13.08.35-14.38l1.75.39c.03.99.1 2.85.24 5.58.13 2.71.2 4.55.23 5.51a3.96 3.96 0 0 0 2.86-1.25 9.69 9.69 0 0 0 1.95-3l1.56-3.48a9.38 9.38 0 0 1 2.03-2.97 4.23 4.23 0 0 1 3.05-1.25c.88 0 2.38.2 4.5.58l-.4 1.57c-1.62-.26-2.54-.4-2.77-.4-.91 0-1.68.38-2.3 1.14a9.56 9.56 0 0 0-1.57 2.85c-.42 1.12-.87 2.28-1.37 3.48a10.5 10.5 0 0 1-2.19 3.24 7.2 7.2 0 0 1-3.55 2c1.25.28 2.33.84 3.24 1.67a8.07 8.07 0 0 1 2.03 2.81c.45 1.04.88 2.15 1.3 3.32l1.09 3.13c.3.94.74 1.72 1.28 2.34.58.63 1.27.94 2.08.94.78 0 1.8-.16 3.04-.47Zm.12-25.78 2.03-1.91a86.45 86.45 0 0 1 4.45 8.9c1.8 4.01 3.03 6.66 3.68 7.93 2.6-6.7 4.57-12.03 5.9-16.01.33-.63.76-.94 1.28-.94.47 0 .89.23 1.25.7.37.44.58.96.63 1.56-.89 1.9-2.3 5-4.22 9.3-1.9 4.27-3.53 7.77-4.88 10.5-1.33 2.72-2.75 5.33-4.26 7.86l-2.54-.5 5.04-9.9c-.94-2.57-3.72-8.4-8.36-17.5Zm21.37-1.91h13.7c.48 3.67.76 8.77.87 15.3.13 6.52.26 10.83.39 12.94-.24.8-.7 1.2-1.37 1.2-.47 0-.92-.19-1.37-.58-.41-.39-.67-.86-.78-1.4 0-2.11-.06-6.4-.2-12.86-.12-6.48-.19-10.42-.19-11.83-.57 0-1.5.04-2.81.12a52.79 52.79 0 0 1-5.98.03l.28 11.45c.2 7.55.33 12.17.39 13.87-.24.8-.7 1.2-1.37 1.2-.47 0-.93-.19-1.37-.58-.41-.39-.68-.86-.78-1.4.08-2.24.14-6.6.2-13.05.07-6.46.2-11.26.39-14.41Zm33.04 26.8.4 1.75c-1.02 0-2.87.04-5.55.12-2.66.1-4.59.15-5.78.15-1.93 0-3.25-.09-3.95-.27.26-2.86.42-7.66.47-14.38.05-6.71.22-11.4.5-14.06.9.08 3.24.15 7.04.2 3.83.05 6.33.17 7.5.35l.43 1.76c-1.17.2-3.52.45-7.03.74-3.52.29-5.37.44-5.55.47l.16 3.67c.1 1.85.17 3.37.2 4.57a203.48 203.48 0 0 0 9.29.82l.39 1.8c-5.5.5-8.71.75-9.65.78a506.76 506.76 0 0 0-.12 10.35c5.97.55 9.72.94 11.25 1.17Zm-1.05 5.42-1.13-2.03a16.69 16.69 0 0 0 3.67-3.32 18.53 18.53 0 0 0 2.38-3.79 21.16 21.16 0 0 0 1.37-4.33c.34-1.62.54-3.1.62-4.46.1-1.38.16-2.97.16-4.76 0-.94.02-2.39.08-4.34.08-1.98.12-3.49.12-4.53.75-.13 1.9-.2 3.47-.2a167.28 167.28 0 0 0 5.98.12c1.25 0 2.4-.05 3.44-.16.3 1.75.46 4.48.46 8.2 0 1 0 2.56-.03 4.7-.03 2.1-.04 3.7-.04 4.8 0 4.27.18 7.79.54 10.55-.23.8-.67 1.2-1.32 1.2-.47 0-.93-.19-1.37-.58a2.28 2.28 0 0 1-.82-1.36c.05-2.04.07-3.59.07-4.65 0-1.51-.03-3.88-.11-7.11-.05-3.23-.08-5.73-.08-7.5 0-2.4.03-4.18.08-5.35-.63-.06-1.7-.1-3.24-.12-1.54-.03-2.71-.1-3.52-.2a56 56 0 0 0-.59 5.32 4533 4533 0 0 1-.35 5.78 39.46 39.46 0 0 1-.7 5.54c-.37 2-.87 3.75-1.52 5.24a13.58 13.58 0 0 1-2.9 4.22 12.72 12.72 0 0 1-4.72 3.12Zm24.88-32.3 1.76.39c.26 4.3.56 11.44.9 21.44 5.08-9.03 8.57-16.3 10.47-21.8.39-.3.76-.46 1.13-.46.57 0 1.04.34 1.4 1.01.4.68.6 1.45.63 2.3.08 2.43.14 6.52.2 12.27.07 5.76.18 10.06.3 12.9-.23.78-.67 1.17-1.32 1.17-.47 0-.92-.2-1.37-.59a2.28 2.28 0 0 1-.82-1.37c.08-2.26.12-5.74.12-10.43.03-4.68.05-7.85.08-9.49-.57.99-1.58 2.87-3 5.63a110.33 110.33 0 0 1-4 7.1 36.6 36.6 0 0 1-3.7 5.16l.15 3.17c-.23.8-.69 1.2-1.37 1.2-.46 0-.92-.19-1.36-.58-.42-.39-.68-.86-.78-1.4.07-2.22.15-6.56.23-13.01.08-6.46.2-11.33.35-14.61Zm31.21 15.54v-1.99l.04-2.1c.05-.95.1-1.69.16-2.23l.31-2.11c.13-.89.3-1.6.5-2.11l.71-1.84a5.1 5.1 0 0 1 1.06-1.64c.41-.42.87-.8 1.36-1.17.5-.4 1.08-.68 1.76-.86a8.55 8.55 0 0 1 2.23-.27 8.7 8.7 0 0 1 4.22.97 7.72 7.72 0 0 1 2.8 2.39 11.5 11.5 0 0 1 1.61 3.55c.42 1.4.68 2.75.78 4.02a45.56 45.56 0 0 1-.12 9.88 15.56 15.56 0 0 1-1.4 5.24 6.13 6.13 0 0 1-3.4 3.32c-.8.34-1.7.5-2.7.5-1.61 0-3-.19-4.18-.58a7.83 7.83 0 0 1-2.85-1.64 7.57 7.57 0 0 1-1.75-2.77c-.42-1.15-.72-2.4-.9-3.75a42.67 42.67 0 0 1-.24-4.8Zm14.93.32c0-1.28-.1-2.6-.32-3.99a29.5 29.5 0 0 0-.97-4.45 8.61 8.61 0 0 0-2.15-3.87 4.79 4.79 0 0 0-3.56-1.52c-1.04 0-1.96.7-2.77 2.1a15.42 15.42 0 0 0-1.68 4.7c-.34 1.71-.5 3.34-.5 4.88v2.46c.02.55.07 1.34.15 2.38.08 1.02.18 1.82.31 2.42.16.6.4 1.3.7 2.07.32.79.68 1.4 1.1 1.84.44.42 1 .8 1.68 1.13.7.32 1.48.48 2.34.51 1.9-.1 3.32-1.17 4.26-3.2.94-2.03 1.4-4.52 1.4-7.46Zm2.65-13.44-.39-1.76 14.92-.86c.65.03 1.2.26 1.64.7.45.45.67.93.67 1.45 0 .34-.13.64-.4.9-.25.26-.64.42-1.17.47l-6.56-.35c.65 9.19 1.13 17.55 1.45 25.07-.24.79-.68 1.18-1.33 1.18-.47 0-.93-.2-1.37-.59a2.28 2.28 0 0 1-.82-1.37c.05-1.4.08-3.54.08-6.4 0-1.07-.01-2.67-.04-4.8v-4.81c0-3.1.05-5.9.16-8.4-2.95-.21-5.22-.35-6.84-.43Zm-145.86 69.2.2-27.5c.28-.97 1.4-1.45 3.36-1.45 1.8 0 3.45.25 4.96.74a8.2 8.2 0 0 1 3.79 2.42 5.75 5.75 0 0 1 1.56 4.07c0 1.25-.31 2.46-.94 3.63-.6 1.17-1.34 1.93-2.22 2.26 1.66.24 3 1.24 4.02 3.01a12.43 12.43 0 0 1 1.52 6.3c0 1.63-.65 3.06-1.95 4.29a11.92 11.92 0 0 1-4.57 2.61c-1.72.53-3.47.79-5.24.79-2.16 0-3.66-.4-4.49-1.18Zm3.2-13.68c0 1.8-.02 5.4-.07 10.82a3.83 3.83 0 0 0 3 1.33c1.62 0 3.18-.66 4.7-2 1.5-1.34 2.26-2.8 2.26-4.33 0-1.9-.64-3.38-1.92-4.45a7.4 7.4 0 0 0-4.92-1.6c-1.33 0-2.34.08-3.04.23Zm-.07-2.89 2.42-.04c1.66 0 2.94-.48 3.83-1.44a5.02 5.02 0 0 0 1.36-3.52c0-1.38-.45-2.56-1.36-3.55a4.83 4.83 0 0 0-3.8-1.53c-.72 0-1.58.16-2.57.47a1341.92 1341.92 0 0 1 .12 9.6Zm23.79-10.74 2.96.2c.73 3.22 2.23 7.8 4.5 13.7 2.26 5.9 3.76 10.3 4.49 13.2a2.9 2.9 0 0 1-.4 1.69c-.25.39-.58.59-.97.59-.34 0-.66-.15-.97-.44a2.05 2.05 0 0 1-.6-1.13 59.92 59.92 0 0 0-2.26-6.87c-5.36-.68-8.73-1.1-10.11-1.25-.34.94-.76 2.46-1.25 4.57a47.9 47.9 0 0 1-1.18 4.37c-.39.47-.83.7-1.32.7-.55 0-1.02-.24-1.41-.74a2.65 2.65 0 0 1-.59-1.75c.84-3.05 2.35-7.53 4.53-13.44a200.74 200.74 0 0 0 4.58-13.4Zm1.36 3.94c-.52 3.16-1.96 7.78-4.33 13.87h4.37a52 52 0 0 1 4.96.2c-2.68-5.76-4.35-10.45-5-14.06Zm8.48 28.05-1.13-2.03a16.7 16.7 0 0 0 3.67-3.32 18.53 18.53 0 0 0 2.38-3.79 21.16 21.16 0 0 0 1.37-4.34c.34-1.6.54-3.1.62-4.45.1-1.38.16-2.97.16-4.76 0-.94.03-2.39.08-4.34.08-1.98.12-3.49.12-4.53.75-.13 1.9-.2 3.47-.2a167.28 167.28 0 0 0 5.98.12c1.25 0 2.4-.05 3.44-.16.3 1.75.46 4.48.46 8.2 0 1 0 2.56-.03 4.7-.03 2.1-.04 3.7-.04 4.8 0 4.27.18 7.79.54 10.55-.23.8-.67 1.2-1.32 1.2-.47 0-.93-.19-1.37-.58a2.27 2.27 0 0 1-.82-1.36c.05-2.04.08-3.59.08-4.65 0-1.51-.04-3.88-.12-7.11-.05-3.23-.08-5.73-.08-7.5 0-2.4.03-4.18.08-5.35-.63-.06-1.7-.1-3.24-.12-1.54-.03-2.71-.1-3.52-.2a55.34 55.34 0 0 0-.58 5.32l-.36 5.78a39.32 39.32 0 0 1-.7 5.54c-.37 2-.87 3.75-1.52 5.24a13.59 13.59 0 0 1-2.9 4.22 12.72 12.72 0 0 1-4.72 3.12Zm39.18-5.43.39 1.76c-1.02 0-2.87.04-5.55.12-2.65.1-4.58.15-5.78.15-1.93 0-3.24-.09-3.94-.27.26-2.86.41-7.66.47-14.38.05-6.71.22-11.4.5-14.06.89.08 3.23.15 7.03.2 3.83.05 6.33.17 7.5.35l.43 1.76c-1.17.2-3.51.45-7.03.74-3.51.29-5.36.44-5.54.47a3808.9 3808.9 0 0 1 .35 8.24 204.03 204.03 0 0 0 9.3.82l.39 1.8c-5.5.5-8.72.75-9.65.78a506.93 506.93 0 0 0-.12 10.35c5.96.55 9.71.94 11.25 1.17Zm3.24-26.29 1.76-.47c0 .84.01 1.3.04 1.41 1.48-.99 3.57-1.48 6.25-1.48 2.89 0 5.05.9 6.48 2.73 1.44 1.8 2.15 4.32 2.15 7.58 0 2.89-.7 5.28-2.1 7.19-1.42 1.9-3.54 2.85-6.38 2.85-.46 0-2.34-.16-5.62-.47.05 1.9.16 4.86.31 8.87-.23.8-.69 1.2-1.36 1.2-.47 0-.93-.19-1.37-.58a2.35 2.35 0 0 1-.78-1.37c.07-2.18.15-6.44.23-12.77.1-6.33.24-11.22.4-14.69Zm2.15 3.56.31 12.18c1.43.79 3.09 1.18 4.96 1.18 1.8 0 3.32-.68 4.57-2.03a7.05 7.05 0 0 0 1.88-4.97c0-2.1-.65-4-1.96-5.7a5.94 5.94 0 0 0-4.88-2.54c-1.59 0-3.21.63-4.88 1.88Zm18.28-4.22 1.76.39c.03.5.2 4.39.5 11.68.71-.1 1.5-.16 2.35-.16 3.44 0 6.25.98 8.44 2.93 2.19 1.93 3.28 4.2 3.28 6.8 0 5.29-3.27 7.93-9.8 7.93-1.7 0-3.25-.13-4.65-.4-1.41-.25-2.22-.58-2.43-.97.08-2.18.15-6.61.2-13.28.05-6.7.17-11.67.35-14.92Zm2.46 15c.18 5.55.31 9.24.4 11.1 1.79.23 3.37.34 4.72.34 3.64 0 5.47-1.73 5.47-5.2 0-1.79-.78-3.3-2.35-4.52-1.53-1.25-3.56-1.88-6.09-1.88-.78 0-1.5.05-2.15.16Zm18.4-14.73 1.76.4c.08 1.22.4 10.44.98 27.65-.24.78-.68 1.17-1.33 1.17-.47 0-.93-.2-1.37-.59a2.28 2.28 0 0 1-.82-1.36l.27-12.42c.16-6.41.33-11.36.51-14.85Z" fill="#8B9D83"/></g></symbol></svg>