<svg width="142" height="14" viewBox="0 0 142 14" fill="none" xmlns="http://www.w3.org/2000/svg">
<path d="M5.40527 6.85645H3.88477V5.77539H5.34375C5.98828 5.77539 6.50977 5.68457 6.9082 5.50293C7.30664 5.32129 7.59668 5.06934 7.77832 4.74707C7.95996 4.4248 8.05078 4.05273 8.05078 3.63086C8.05078 3.22656 7.95117 2.85742 7.75195 2.52344C7.55273 2.18359 7.24512 1.91406 6.8291 1.71484C6.41309 1.50977 5.87695 1.40723 5.2207 1.40723C4.72852 1.40723 4.2832 1.50098 3.88477 1.68848C3.48633 1.87012 3.16992 2.125 2.93555 2.45312C2.70117 2.77539 2.58398 3.14746 2.58398 3.56934H0.887695C0.887695 3.02441 1.00195 2.53516 1.23047 2.10156C1.45898 1.66211 1.77246 1.29004 2.1709 0.985352C2.56934 0.674805 3.0293 0.4375 3.55078 0.273438C4.07812 0.109375 4.63477 0.0273438 5.2207 0.0273438C5.90625 0.0273438 6.52734 0.106445 7.08398 0.264648C7.64062 0.416992 8.11816 0.645508 8.5166 0.950195C8.91504 1.25488 9.21973 1.63281 9.43066 2.08398C9.6416 2.53516 9.74707 3.05957 9.74707 3.65723C9.74707 4.09668 9.64453 4.50977 9.43945 4.89648C9.23438 5.2832 8.94141 5.62305 8.56055 5.91602C8.17969 6.20898 7.72266 6.44043 7.18945 6.61035C6.65625 6.77441 6.06152 6.85645 5.40527 6.85645ZM3.88477 6.10938H5.40527C6.12598 6.10938 6.76758 6.18262 7.33008 6.3291C7.89258 6.47559 8.36719 6.68945 8.75391 6.9707C9.14062 7.25195 9.43359 7.60059 9.63281 8.0166C9.83789 8.42676 9.94043 8.89844 9.94043 9.43164C9.94043 10.0293 9.82324 10.5596 9.58887 11.0225C9.36035 11.4854 9.03516 11.8779 8.61328 12.2002C8.19141 12.5225 7.69043 12.7656 7.11035 12.9297C6.53613 13.0938 5.90625 13.1758 5.2207 13.1758C4.66992 13.1758 4.125 13.1055 3.58594 12.9648C3.05273 12.8184 2.56934 12.5957 2.13574 12.2969C1.70215 11.9922 1.35352 11.6055 1.08984 11.1367C0.832031 10.668 0.703125 10.1055 0.703125 9.44922H2.39941C2.39941 9.87695 2.5166 10.2695 2.75098 10.627C2.99121 10.9844 3.32227 11.2715 3.74414 11.4883C4.16602 11.6992 4.6582 11.8047 5.2207 11.8047C5.86523 11.8047 6.41016 11.7051 6.85547 11.5059C7.30664 11.3008 7.64941 11.0225 7.88379 10.6709C8.12402 10.3135 8.24414 9.91211 8.24414 9.4668C8.24414 9.07422 8.17969 8.73438 8.05078 8.44727C7.92773 8.1543 7.74316 7.91406 7.49707 7.72656C7.25684 7.53906 6.95508 7.40137 6.5918 7.31348C6.23438 7.21973 5.81836 7.17285 5.34375 7.17285H3.88477V6.10938ZM17.5342 11.374V6.47852C17.5342 6.10352 17.458 5.77832 17.3057 5.50293C17.1592 5.22168 16.9365 5.00488 16.6377 4.85254C16.3389 4.7002 15.9697 4.62402 15.5303 4.62402C15.1201 4.62402 14.7598 4.69434 14.4492 4.83496C14.1445 4.97559 13.9043 5.16016 13.7285 5.38867C13.5586 5.61719 13.4736 5.86328 13.4736 6.12695H11.8477C11.8477 5.78711 11.9355 5.4502 12.1113 5.11621C12.2871 4.78223 12.5391 4.48047 12.8672 4.21094C13.2012 3.93555 13.5996 3.71875 14.0625 3.56055C14.5312 3.39648 15.0527 3.31445 15.627 3.31445C16.3184 3.31445 16.9277 3.43164 17.4551 3.66602C17.9883 3.90039 18.4043 4.25488 18.7031 4.72949C19.0078 5.19824 19.1602 5.78711 19.1602 6.49609V10.9258C19.1602 11.2422 19.1865 11.5791 19.2393 11.9365C19.2979 12.2939 19.3828 12.6016 19.4941 12.8594V13H17.7979C17.7158 12.8125 17.6514 12.5635 17.6045 12.2529C17.5576 11.9365 17.5342 11.6436 17.5342 11.374ZM17.8154 7.23438L17.833 8.37695H16.1895C15.7266 8.37695 15.3135 8.41504 14.9502 8.49121C14.5869 8.56152 14.2822 8.66992 14.0361 8.81641C13.79 8.96289 13.6025 9.14746 13.4736 9.37012C13.3447 9.58691 13.2803 9.8418 13.2803 10.1348C13.2803 10.4336 13.3477 10.7061 13.4824 10.9521C13.6172 11.1982 13.8193 11.3945 14.0889 11.541C14.3643 11.6816 14.7012 11.752 15.0996 11.752C15.5977 11.752 16.0371 11.6465 16.418 11.4355C16.7988 11.2246 17.1006 10.9668 17.3232 10.6621C17.5518 10.3574 17.6748 10.0615 17.6924 9.77441L18.3867 10.5566C18.3457 10.8027 18.2344 11.0752 18.0527 11.374C17.8711 11.6729 17.6279 11.96 17.3232 12.2354C17.0244 12.5049 16.667 12.7305 16.251 12.9121C15.8408 13.0879 15.3779 13.1758 14.8623 13.1758C14.2178 13.1758 13.6523 13.0498 13.166 12.7979C12.6855 12.5459 12.3105 12.209 12.041 11.7871C11.7773 11.3594 11.6455 10.8818 11.6455 10.3545C11.6455 9.84473 11.7451 9.39648 11.9443 9.00977C12.1436 8.61719 12.4307 8.29199 12.8057 8.03418C13.1807 7.77051 13.6318 7.57129 14.1592 7.43652C14.6865 7.30176 15.2754 7.23438 15.9258 7.23438H17.8154ZM23.4844 3.49023V13H21.8584V3.49023H23.4844ZM29.7246 3.49023L25.2158 8.93945H22.9395L22.6934 7.51562H24.5566L27.7471 3.49023H29.7246ZM27.9756 13L24.4775 8.69336L25.5234 7.51562L30.041 13H27.9756ZM37.0635 11.374V6.47852C37.0635 6.10352 36.9873 5.77832 36.835 5.50293C36.6885 5.22168 36.4658 5.00488 36.167 4.85254C35.8682 4.7002 35.499 4.62402 35.0596 4.62402C34.6494 4.62402 34.2891 4.69434 33.9785 4.83496C33.6738 4.97559 33.4336 5.16016 33.2578 5.38867C33.0879 5.61719 33.0029 5.86328 33.0029 6.12695H31.377C31.377 5.78711 31.4648 5.4502 31.6406 5.11621C31.8164 4.78223 32.0684 4.48047 32.3965 4.21094C32.7305 3.93555 33.1289 3.71875 33.5918 3.56055C34.0605 3.39648 34.582 3.31445 35.1562 3.31445C35.8477 3.31445 36.457 3.43164 36.9844 3.66602C37.5176 3.90039 37.9336 4.25488 38.2324 4.72949C38.5371 5.19824 38.6895 5.78711 38.6895 6.49609V10.9258C38.6895 11.2422 38.7158 11.5791 38.7686 11.9365C38.8271 12.2939 38.9121 12.6016 39.0234 12.8594V13H37.3271C37.2451 12.8125 37.1807 12.5635 37.1338 12.2529C37.0869 11.9365 37.0635 11.6436 37.0635 11.374ZM37.3447 7.23438L37.3623 8.37695H35.7188C35.2559 8.37695 34.8428 8.41504 34.4795 8.49121C34.1162 8.56152 33.8115 8.66992 33.5654 8.81641C33.3193 8.96289 33.1318 9.14746 33.0029 9.37012C32.874 9.58691 32.8096 9.8418 32.8096 10.1348C32.8096 10.4336 32.877 10.7061 33.0117 10.9521C33.1465 11.1982 33.3486 11.3945 33.6182 11.541C33.8936 11.6816 34.2305 11.752 34.6289 11.752C35.127 11.752 35.5664 11.6465 35.9473 11.4355C36.3281 11.2246 36.6299 10.9668 36.8525 10.6621C37.0811 10.3574 37.2041 10.0615 37.2217 9.77441L37.916 10.5566C37.875 10.8027 37.7637 11.0752 37.582 11.374C37.4004 11.6729 37.1572 11.96 36.8525 12.2354C36.5537 12.5049 36.1963 12.7305 35.7803 12.9121C35.3701 13.0879 34.9072 13.1758 34.3916 13.1758C33.7471 13.1758 33.1816 13.0498 32.6953 12.7979C32.2148 12.5459 31.8398 12.209 31.5703 11.7871C31.3066 11.3594 31.1748 10.8818 31.1748 10.3545C31.1748 9.84473 31.2744 9.39648 31.4736 9.00977C31.6729 8.61719 31.96 8.29199 32.335 8.03418C32.71 7.77051 33.1611 7.57129 33.6885 7.43652C34.2158 7.30176 34.8047 7.23438 35.4551 7.23438H37.3447ZM44.7979 8.45605H43.0488V7.4541H44.666C45.1172 7.4541 45.4746 7.39844 45.7383 7.28711C46.002 7.16992 46.1895 7.00879 46.3008 6.80371C46.4121 6.59863 46.4678 6.3584 46.4678 6.08301C46.4678 5.83691 46.4033 5.60547 46.2744 5.38867C46.1514 5.16602 45.9521 4.9873 45.6768 4.85254C45.4014 4.71191 45.0322 4.6416 44.5693 4.6416C44.1943 4.6416 43.8545 4.70898 43.5498 4.84375C43.2451 4.97266 43.002 5.15137 42.8203 5.37988C42.6445 5.60254 42.5566 5.85449 42.5566 6.13574H40.9307C40.9307 5.55566 41.0947 5.05762 41.4229 4.6416C41.7568 4.21973 42.1992 3.89453 42.75 3.66602C43.3066 3.4375 43.9131 3.32324 44.5693 3.32324C45.1201 3.32324 45.6123 3.38477 46.0459 3.50781C46.4854 3.625 46.8574 3.80078 47.1621 4.03516C47.4668 4.26367 47.6982 4.55078 47.8564 4.89648C48.0205 5.23633 48.1025 5.63184 48.1025 6.08301C48.1025 6.40527 48.0264 6.70996 47.874 6.99707C47.7217 7.28418 47.502 7.53906 47.2148 7.76172C46.9277 7.97852 46.5791 8.14844 46.1689 8.27148C45.7646 8.39453 45.3076 8.45605 44.7979 8.45605ZM43.0488 7.84082H44.7979C45.3662 7.84082 45.8672 7.89648 46.3008 8.00781C46.7344 8.11328 47.0977 8.27148 47.3906 8.48242C47.6836 8.69336 47.9033 8.9541 48.0498 9.26465C48.2021 9.56934 48.2783 9.9209 48.2783 10.3193C48.2783 10.7646 48.1875 11.166 48.0059 11.5234C47.8301 11.875 47.5781 12.1738 47.25 12.4199C46.9219 12.666 46.5293 12.8535 46.0723 12.9824C45.6211 13.1113 45.1201 13.1758 44.5693 13.1758C43.9541 13.1758 43.3564 13.0703 42.7764 12.8594C42.1963 12.6484 41.7188 12.3232 41.3438 11.8838C40.9688 11.4385 40.7812 10.873 40.7812 10.1875H42.4072C42.4072 10.4746 42.498 10.7471 42.6797 11.0049C42.8613 11.2627 43.1133 11.4707 43.4355 11.6289C43.7637 11.7871 44.1416 11.8662 44.5693 11.8662C45.0264 11.8662 45.4072 11.7959 45.7119 11.6553C46.0166 11.5146 46.2451 11.3271 46.3975 11.0928C46.5557 10.8584 46.6348 10.6035 46.6348 10.3281C46.6348 9.9707 46.5645 9.68359 46.4238 9.4668C46.2832 9.25 46.0664 9.0918 45.7734 8.99219C45.4863 8.88672 45.1172 8.83398 44.666 8.83398H43.0488V7.84082ZM55.9951 11.374V6.47852C55.9951 6.10352 55.9189 5.77832 55.7666 5.50293C55.6201 5.22168 55.3975 5.00488 55.0986 4.85254C54.7998 4.7002 54.4307 4.62402 53.9912 4.62402C53.5811 4.62402 53.2207 4.69434 52.9102 4.83496C52.6055 4.97559 52.3652 5.16016 52.1895 5.38867C52.0195 5.61719 51.9346 5.86328 51.9346 6.12695H50.3086C50.3086 5.78711 50.3965 5.4502 50.5723 5.11621C50.748 4.78223 51 4.48047 51.3281 4.21094C51.6621 3.93555 52.0605 3.71875 52.5234 3.56055C52.9922 3.39648 53.5137 3.31445 54.0879 3.31445C54.7793 3.31445 55.3887 3.43164 55.916 3.66602C56.4492 3.90039 56.8652 4.25488 57.1641 4.72949C57.4688 5.19824 57.6211 5.78711 57.6211 6.49609V10.9258C57.6211 11.2422 57.6475 11.5791 57.7002 11.9365C57.7588 12.2939 57.8438 12.6016 57.9551 12.8594V13H56.2588C56.1768 12.8125 56.1123 12.5635 56.0654 12.2529C56.0186 11.9365 55.9951 11.6436 55.9951 11.374ZM56.2764 7.23438L56.2939 8.37695H54.6504C54.1875 8.37695 53.7744 8.41504 53.4111 8.49121C53.0479 8.56152 52.7432 8.66992 52.4971 8.81641C52.251 8.96289 52.0635 9.14746 51.9346 9.37012C51.8057 9.58691 51.7412 9.8418 51.7412 10.1348C51.7412 10.4336 51.8086 10.7061 51.9434 10.9521C52.0781 11.1982 52.2803 11.3945 52.5498 11.541C52.8252 11.6816 53.1621 11.752 53.5605 11.752C54.0586 11.752 54.498 11.6465 54.8789 11.4355C55.2598 11.2246 55.5615 10.9668 55.7842 10.6621C56.0127 10.3574 56.1357 10.0615 56.1533 9.77441L56.8477 10.5566C56.8066 10.8027 56.6953 11.0752 56.5137 11.374C56.332 11.6729 56.0889 11.96 55.7842 12.2354C55.4854 12.5049 55.1279 12.7305 54.7119 12.9121C54.3018 13.0879 53.8389 13.1758 53.3232 13.1758C52.6787 13.1758 52.1133 13.0498 51.627 12.7979C51.1465 12.5459 50.7715 12.209 50.502 11.7871C50.2383 11.3594 50.1064 10.8818 50.1064 10.3545C50.1064 9.84473 50.2061 9.39648 50.4053 9.00977C50.6045 8.61719 50.8916 8.29199 51.2666 8.03418C51.6416 7.77051 52.0928 7.57129 52.6201 7.43652C53.1475 7.30176 53.7363 7.23438 54.3867 7.23438H56.2764ZM63.9141 3.49023V13H62.2793V3.49023H63.9141ZM67.1045 3.49023V4.80859H59.1504V3.49023H67.1045ZM70.04 6.75977H72.8965C73.6641 6.75977 74.3115 6.89453 74.8389 7.16406C75.3662 7.42773 75.7646 7.79395 76.0342 8.2627C76.3096 8.72559 76.4473 9.25293 76.4473 9.84473C76.4473 10.2842 76.3711 10.6973 76.2188 11.084C76.0664 11.4648 75.8379 11.7988 75.5332 12.0859C75.2344 12.373 74.8623 12.5986 74.417 12.7627C73.9775 12.9209 73.4707 13 72.8965 13H68.8535V3.49023H70.4795V11.6641H72.8965C73.3652 11.6641 73.7402 11.5791 74.0215 11.4092C74.3027 11.2393 74.5049 11.0195 74.6279 10.75C74.751 10.4805 74.8125 10.1992 74.8125 9.90625C74.8125 9.61914 74.751 9.33789 74.6279 9.0625C74.5049 8.78711 74.3027 8.55859 74.0215 8.37695C73.7402 8.18945 73.3652 8.0957 72.8965 8.0957H70.04V6.75977ZM86.4932 8.45605H84.7441V7.4541H86.3613C86.8125 7.4541 87.1699 7.39844 87.4336 7.28711C87.6973 7.16992 87.8848 7.00879 87.9961 6.80371C88.1074 6.59863 88.1631 6.3584 88.1631 6.08301C88.1631 5.83691 88.0986 5.60547 87.9697 5.38867C87.8467 5.16602 87.6475 4.9873 87.3721 4.85254C87.0967 4.71191 86.7275 4.6416 86.2646 4.6416C85.8896 4.6416 85.5498 4.70898 85.2451 4.84375C84.9404 4.97266 84.6973 5.15137 84.5156 5.37988C84.3398 5.60254 84.252 5.85449 84.252 6.13574H82.626C82.626 5.55566 82.79 5.05762 83.1182 4.6416C83.4521 4.21973 83.8945 3.89453 84.4453 3.66602C85.002 3.4375 85.6084 3.32324 86.2646 3.32324C86.8154 3.32324 87.3076 3.38477 87.7412 3.50781C88.1807 3.625 88.5527 3.80078 88.8574 4.03516C89.1621 4.26367 89.3936 4.55078 89.5518 4.89648C89.7158 5.23633 89.7979 5.63184 89.7979 6.08301C89.7979 6.40527 89.7217 6.70996 89.5693 6.99707C89.417 7.28418 89.1973 7.53906 88.9102 7.76172C88.623 7.97852 88.2744 8.14844 87.8643 8.27148C87.46 8.39453 87.0029 8.45605 86.4932 8.45605ZM84.7441 7.84082H86.4932C87.0615 7.84082 87.5625 7.89648 87.9961 8.00781C88.4297 8.11328 88.793 8.27148 89.0859 8.48242C89.3789 8.69336 89.5986 8.9541 89.7451 9.26465C89.8975 9.56934 89.9736 9.9209 89.9736 10.3193C89.9736 10.7646 89.8828 11.166 89.7012 11.5234C89.5254 11.875 89.2734 12.1738 88.9453 12.4199C88.6172 12.666 88.2246 12.8535 87.7676 12.9824C87.3164 13.1113 86.8154 13.1758 86.2646 13.1758C85.6494 13.1758 85.0518 13.0703 84.4717 12.8594C83.8916 12.6484 83.4141 12.3232 83.0391 11.8838C82.6641 11.4385 82.4766 10.873 82.4766 10.1875H84.1025C84.1025 10.4746 84.1934 10.7471 84.375 11.0049C84.5566 11.2627 84.8086 11.4707 85.1309 11.6289C85.459 11.7871 85.8369 11.8662 86.2646 11.8662C86.7217 11.8662 87.1025 11.7959 87.4072 11.6553C87.7119 11.5146 87.9404 11.3271 88.0928 11.0928C88.251 10.8584 88.3301 10.6035 88.3301 10.3281C88.3301 9.9707 88.2598 9.68359 88.1191 9.4668C87.9785 9.25 87.7617 9.0918 87.4688 8.99219C87.1816 8.88672 86.8125 8.83398 86.3613 8.83398H84.7441V7.84082ZM96.5479 8.81641H93.4277L93.4102 7.51562H95.959C96.4629 7.51562 96.8818 7.46582 97.2158 7.36621C97.5557 7.2666 97.8105 7.11719 97.9805 6.91797C98.1504 6.71875 98.2354 6.47266 98.2354 6.17969C98.2354 5.95117 98.1855 5.75195 98.0859 5.58203C97.9922 5.40625 97.8486 5.2627 97.6553 5.15137C97.4619 5.03418 97.2217 4.94922 96.9346 4.89648C96.6533 4.83789 96.3223 4.80859 95.9414 4.80859H93.8584V13H92.2324V3.49023H95.9414C96.5449 3.49023 97.0869 3.54297 97.5674 3.64844C98.0537 3.75391 98.4668 3.91504 98.8066 4.13184C99.1523 4.34277 99.416 4.6123 99.5977 4.94043C99.7793 5.26855 99.8701 5.65527 99.8701 6.10059C99.8701 6.3877 99.8115 6.66016 99.6943 6.91797C99.5771 7.17578 99.4043 7.4043 99.1758 7.60352C98.9473 7.80273 98.666 7.9668 98.332 8.0957C97.998 8.21875 97.6143 8.29785 97.1807 8.33301L96.5479 8.81641ZM96.5479 13H92.8389L93.6475 11.6816H96.5479C96.999 11.6816 97.374 11.626 97.6729 11.5146C97.9717 11.3975 98.1943 11.2334 98.3408 11.0225C98.4932 10.8057 98.5693 10.5479 98.5693 10.249C98.5693 9.9502 98.4932 9.69531 98.3408 9.48438C98.1943 9.26758 97.9717 9.10352 97.6729 8.99219C97.374 8.875 96.999 8.81641 96.5479 8.81641H94.0781L94.0957 7.51562H97.1807L97.7695 8.00781C98.291 8.04883 98.7334 8.17773 99.0967 8.39453C99.46 8.61133 99.7354 8.88672 99.9229 9.2207C100.11 9.54883 100.204 9.90625 100.204 10.293C100.204 10.7383 100.119 11.1309 99.9492 11.4707C99.7852 11.8105 99.5449 12.0947 99.2285 12.3232C98.9121 12.5459 98.5283 12.7158 98.0771 12.833C97.626 12.9443 97.1162 13 96.5479 13ZM101.953 8.35059V8.14844C101.953 7.46289 102.053 6.82715 102.252 6.24121C102.451 5.64941 102.738 5.13672 103.113 4.70312C103.488 4.26367 103.942 3.92383 104.476 3.68359C105.009 3.4375 105.606 3.31445 106.269 3.31445C106.937 3.31445 107.537 3.4375 108.07 3.68359C108.609 3.92383 109.066 4.26367 109.441 4.70312C109.822 5.13672 110.112 5.64941 110.312 6.24121C110.511 6.82715 110.61 7.46289 110.61 8.14844V8.35059C110.61 9.03613 110.511 9.67188 110.312 10.2578C110.112 10.8438 109.822 11.3564 109.441 11.7959C109.066 12.2295 108.612 12.5693 108.079 12.8154C107.552 13.0557 106.954 13.1758 106.286 13.1758C105.618 13.1758 105.018 13.0557 104.484 12.8154C103.951 12.5693 103.494 12.2295 103.113 11.7959C102.738 11.3564 102.451 10.8438 102.252 10.2578C102.053 9.67188 101.953 9.03613 101.953 8.35059ZM103.579 8.14844V8.35059C103.579 8.8252 103.635 9.27344 103.746 9.69531C103.857 10.1113 104.024 10.4805 104.247 10.8027C104.476 11.125 104.76 11.3799 105.1 11.5674C105.439 11.749 105.835 11.8398 106.286 11.8398C106.731 11.8398 107.121 11.749 107.455 11.5674C107.795 11.3799 108.076 11.125 108.299 10.8027C108.521 10.4805 108.688 10.1113 108.8 9.69531C108.917 9.27344 108.976 8.8252 108.976 8.35059V8.14844C108.976 7.67969 108.917 7.2373 108.8 6.82129C108.688 6.39941 108.519 6.02734 108.29 5.70508C108.067 5.37695 107.786 5.11914 107.446 4.93164C107.112 4.74414 106.72 4.65039 106.269 4.65039C105.823 4.65039 105.431 4.74414 105.091 4.93164C104.757 5.11914 104.476 5.37695 104.247 5.70508C104.024 6.02734 103.857 6.39941 103.746 6.82129C103.635 7.2373 103.579 7.67969 103.579 8.14844ZM119.101 7.6123V8.93066H114.073V7.6123H119.101ZM114.416 3.49023V13H112.79V3.49023H114.416ZM120.419 3.49023V13H118.784V3.49023H120.419ZM122.607 8.35059V8.14844C122.607 7.46289 122.707 6.82715 122.906 6.24121C123.105 5.64941 123.393 5.13672 123.768 4.70312C124.143 4.26367 124.597 3.92383 125.13 3.68359C125.663 3.4375 126.261 3.31445 126.923 3.31445C127.591 3.31445 128.191 3.4375 128.725 3.68359C129.264 3.92383 129.721 4.26367 130.096 4.70312C130.477 5.13672 130.767 5.64941 130.966 6.24121C131.165 6.82715 131.265 7.46289 131.265 8.14844V8.35059C131.265 9.03613 131.165 9.67188 130.966 10.2578C130.767 10.8438 130.477 11.3564 130.096 11.7959C129.721 12.2295 129.267 12.5693 128.733 12.8154C128.206 13.0557 127.608 13.1758 126.94 13.1758C126.272 13.1758 125.672 13.0557 125.139 12.8154C124.605 12.5693 124.148 12.2295 123.768 11.7959C123.393 11.3564 123.105 10.8438 122.906 10.2578C122.707 9.67188 122.607 9.03613 122.607 8.35059ZM124.233 8.14844V8.35059C124.233 8.8252 124.289 9.27344 124.4 9.69531C124.512 10.1113 124.679 10.4805 124.901 10.8027C125.13 11.125 125.414 11.3799 125.754 11.5674C126.094 11.749 126.489 11.8398 126.94 11.8398C127.386 11.8398 127.775 11.749 128.109 11.5674C128.449 11.3799 128.73 11.125 128.953 10.8027C129.176 10.4805 129.343 10.1113 129.454 9.69531C129.571 9.27344 129.63 8.8252 129.63 8.35059V8.14844C129.63 7.67969 129.571 7.2373 129.454 6.82129C129.343 6.39941 129.173 6.02734 128.944 5.70508C128.722 5.37695 128.44 5.11914 128.101 4.93164C127.767 4.74414 127.374 4.65039 126.923 4.65039C126.478 4.65039 126.085 4.74414 125.745 4.93164C125.411 5.11914 125.13 5.37695 124.901 5.70508C124.679 6.02734 124.512 6.39941 124.4 6.82129C124.289 7.2373 124.233 7.67969 124.233 8.14844ZM135.07 3.49023V13H133.444V3.49023H135.07ZM141.311 3.49023L136.802 8.93945H134.525L134.279 7.51562H136.143L139.333 3.49023H141.311ZM139.562 13L136.063 8.69336L137.109 7.51562L141.627 13H139.562Z" fill="#686656"/>
</svg>
