<svg width="1952" height="530" viewBox="0 0 1952 530" fill="none" xmlns="http://www.w3.org/2000/svg"><path fill="#fff" d="M0 0h1952v530H0z"/><g style="mix-blend-mode:hard-light" opacity=".15"><path fill-rule="evenodd" clip-rule="evenodd" d="m1753.36 331-.66-.67c0-5.32-3.33-7.98-8.98-7.98h-1.34c-2.66 0-5.32.34-7.98.67-2.33.33-4.99.33-7.32.33h-1.33c-1.33 0-2 0-2-.33-.33-.33-.66-1-.33-3.66.67-10.64.33-21.62-.33-31.93l-.33-6.98c0-2-1.67-3.33-3.33-4.66l-1-1c-1-1-1.99-1.66-2.99-2.66l-3.33-2.66-5.32 5.99c-4 4.66-7.99 9.31-12.31 13.97-.33.33-.67.33-1 .66v-1a257.2 257.2 0 0 1 8.65-11.3l3.33-4.33c.66-.66 1.66-2 .99-4.65l-.99-3.66-2.33 3c-.67.66-1 1.32-1.67 1.99-1.33 1.66-2.32 3-3.66 4.32-.33.34-.99.67-1.33 1a6.93 6.93 0 0 1-.66-2c1.33-2 2.99-3.65 4.99-5.65l1.33-1.33.67.33.99-2 24.29-30.26-4.33-3.32-1.33 1.33c-1.66 1.66-3.32 3.66-4.99 5.32-3.99 4.32-8.31 8.98-12.31 13.97-1.99 2.33-2.99 5.32-3.99 7.98 0 .33-.33 1-.33 1.33-1-.67-1.66-1.33-1.66-2.33-.34-1.33.66-3 1.66-4.32l4.32-5.32a875.08 875.08 0 0 0 16.64-20.29c1.66-2 2.99-4.32 3.99-6.32.67-1 1-2 1.66-3l.67-.99 4.32 5.65c1 1.33 2 3 3.33 4.33 2.33 3.32 4.99 6.98 7.99 9.97 3.32 3 6.65 6 10.31 8.65 2.33 1.66 4.66 3.66 6.99 5.66.33.33.66 1 .99 1.66h-1.33c-5.65-3.66-10.98-7.98-16.3-11.97l-5.32-4-2.66 3c.99 1 1.99 2.33 2.99 3.66 2.33 2.99 4.66 6.31 7.65 8.98a37.8 37.8 0 0 0 7.65 4.98c2 1.33 4 2.33 5.66 3.66.67.33 1 1.67 1.33 3-.66.33-1.33.33-1.66.33-2.66-1.33-5.33-2.66-7.99-4.32l-2.99-2-1.66-1-2 2.66-1.33 1.66 23.62 17.63h-1.33c-12.98-5.32-22.62-12.64-29.61-22.28l-1.33-1.66-4.99 3.32 1 1.66a25.75 25.75 0 0 1 2.33 4c1.99 3.32 3.65 6.65 6.65 8.98 5.65 4.65 11.98 8.64 17.96 12.96l9.98 6.99c.34.33.67.67.67 1h-.67c-5.65-2.66-11.31-5.32-16.96-8.32l-7.65-3.66-3.33 5 6.32 3.98c4.66 3 9.65 5.99 14.31 9.32l.66.66h-.33c-6.32-3-11.98-5.99-17.3-9.64-3.33-2-6.32-4.33-9.32-6.99-1.33-1.33-2.99-2.33-4.65-3.66l-2.67-2-.66 3c-2.66 10.31-1 20.29.66 29.6.34 2 .67 4.32 1 6.32l.33 1.66h24.96v1c.33 2.33.99 4.99.99 7.65-.33.66-.99 1-1.33 1.33Zm-47.24-10.31c-.66-.33-1.66-1-1.99-1.33-.34-.67-.34-1.66 0-3 0-1 .33-2.32 0-3.32-.34-2.33-1.34-6.32-3.66-6.65h-.67c-2 0-3.99 1-5.32 1.66l-.67.33c-1.33.67-1.66 1.67-2.33 2.67l-.33.33c-2.33 4.32-5.32 6.65-9.31 6.65-1.34 0-3-.33-4.66-1h-.33v-3c-.34-8.64-.34-17.28-.67-26.26-.67-43.9-1.33-85.14-12.31-127.05l-1-3.99-3.32 4.66c-.67 1-1.67 2.33-2.67 3.32l-3.99 5.99c-2.66 4.32-5.65 8.65-8.32 12.64 0 .33-.99.33-1.33.66a6.93 6.93 0 0 1-.66-2c1.66-2.99 3.66-5.98 5.32-8.97.67-1 1.33-2 2-3.33.66-1.33 1.66-2.33 2.33-3.32l2.66-4-2.66-.66c-2.67-.66-4-1.33-4-1.66-.33-.34 0-1.67.67-3.66.66-1.66.33-3.33 0-4.99 0-.33 0-1-.33-1.33 0-.67-.34-1-.34-1.33 1.67-3 2-6.65 2.33-9.98.34-4.65.67-8.98 4.99-11.64 1.67-1 2.66-2.33 3.66-3.99.34-.66 1-1.33 1.33-1.66l3-3.66-4.66.33c-.67 0-1.66.33-2.33.33-.33 0-1 0-1.33.34-.33-1-.33-2-.33-2.33.33-1 1-1.66 1.33-2.33 1.66-2.66 3.66-5.98 1.33-10.3 0 0 0-.34.33-.34.33-.67 1-1.33 1-2.33.33-1 .67-2.33 1-3.66.33-1 .33-2.33 1-3.32.66-2.33 1.66-4.66 2.33-6.99l1.66-4.99-1-1c-.66-.66-1.33-1.66-1.33-2.65 0-1 1.33-2 2-2.66 1.66-1 2.66-3.33 2.66-5v-6.64c0-2.66 0-5.33.33-8.32.33-2.33 1-4.65 2-6.32 1.66-2.66 3.66-4.65 5.98-6.98l1.67-1.66c1.33-1.33 2.33-2 3.32-2 1.34 0 2.33 2 3 3 1 1.99 2.33 3.98 3.33 5.98 1.33 2.66 2.99 5.32 2.99 5.99-.33.66-3.33 1.66-5.99 2.66l-2.99 1 1.99 2.32c.67.67 1.33 1.66 2 2.33 1.33 1.33 2.66 3 3.33 4.32.33 1 .66 2 .99 3.33l-2.99-1c-.33 0-1-.33-1.66-.33-.67 0-1.33 0-2.33.66l-2.66 1 1.66 2.33c.67.67 1.33 1.66 2 2.33 1.33 2 2.66 3.66 4.65 5.32.67 1 2.67 2.66 2.67 3.66s-2 2.66-3 3.66l-1.66 1.66 2.99 2.33c1.67 1.33 3.33 2.66 3.33 3.99 0 .66-.67 2-2 3-1.33 1.32-.66 3.32.34 5.64 0 .34 0 .34.33.67-.33.33-.67.33-1 .33-.67 0-1.66-1-2.66-2-1.33-1-2.66-2.32-4.33-2.99l-4.32-1.66 1.33 4.32c1.33 3.33 3.66 5.66 5.99 7.65 2.33 2 4.32 3.66 4.99 6.66l-13.64-8.98-2 2.66-1.33 1.66 6.32 5.32 12.98 10.97c1.33 1.34 2.33 2.67 2.33 3.66v.67s-.34 0-.67-.33l-3.33-2a173.55 173.55 0 0 0-13.3-7.65l-2.33 3.33 21.62 17.96-10.31-.67 6.32 6.32c2.33 2 4.32 4 5.99 5.99v.33h-.33c-1-.67-2-1-3.33-1.66-2-1-3.99-2.33-5.99-3l-2.33 3.33c1.66 2 3.66 3.32 5.66 4.99 2.99 2.32 5.99 4.32 7.32 7.98l-29.61-17.63-3.33 5 1.33 1.32 1.33 1.33c1 1 2.33 2 3.66 3 2.66 1.66 4.99 3.32 7.65 4.98 4.66 3 9.32 6.32 13.98 9.65.33.33.66 1 .99 1.66-.66 0-1.33-.33-1.99-.33 0 0-.33 0-.67-.33-.33 0-.66-.34-1-.34l-4.65-1.66 2.33 4.66c1.33 2.99 3.66 5.32 5.98 7.31 3.33 3.33 5.99 5.66 5.33 10.31v1.33l7.65 4 8.65-12.31-2-1c-1-.66-2.99-1.66-2.99-2.33-.33-1.66 3.99-7.31 7.98-12.3l1-1.33-1-1.33c-2.33-3-2.33-5.66.34-8.65 1.33-1.33 2.32-2.66 3.32-4 1.33-1.65 2.33-3.32 3.99-4.65 1-1 1.67-1.33 2-1.33.33 0 1 .67 1.66 1.67a7.9 7.9 0 0 0 2.67 2.99s.99 3.66 1.33 4.66c.66 1.99 1.33 4.32 1.99 6.65.67 1.66 1.33 2.99 2 4.65 1 2 1.99 4 2.66 5.99 0 0 0 .33-.33.66l-4.66-9.3-4.66 2.65v1.33c.33 5.66 3.99 9.31 7.32 12.97a38.5 38.5 0 0 1 4.66 5.66c-3.33 5.32 1 9.97 2.66 11.97 1.66 1.66 2.99 4.32 3.99 6.98 0 .34-.33.67-.66 1.33-.34-.33-1-.66-1.33-1-2.33-2.65-4.66-5.65-6.99-8.64l-4.99-6.32-5.99 8.65.33 1c2 6.98 6.99 11.3 11.65 15.63 3.33 2.99 6.32 5.98 8.65 9.3-3-.99-5.32-2.99-7.99-4.65-2.66-2-5.65-3.99-8.98-5.32l-6.32-2.66.33-.66-4.99-3.66-5.65 6.98-10.98 13.97c-.67.66-1 1.66-1.33 2.33-.34.66-.67 1.66-1 1.66h-.33c-.34-1-.34-4.32.33-5.65 3.99-5.66 8.65-11.31 13.31-16.96 1.99-2.33 3.66-4.66 5.65-6.66a6.8 6.8 0 0 0 1.33-2l.34-.66.99-1.66-4.32-3.33-14.31 17.63c-.66-1.66.34-3.32 4.33-9.98l.66-1-.66-1c-4.33-6.98-11.31-9.64-17.63-11.97-4-1.66-7.99-2.99-11.32-5.32-1.33-1-2.66-1.66-4.32-2.66-1-.33-1.66-1-2.66-1.33l-3.33-1.66.33 4c.34 1.65.34 3.32.34 4.98.33 3.33.66 6.65 1.33 9.64 3.32 15.3 3.32 31.27 3.32 46.56v10.98c0 11.97 1 23.94 2.33 36.25.34 3 2.33 5.65 4 8.31.66 1 1.66 2.33 2.32 3.66l1.33 2.33 2-1.66 1.66-1.67c.67-.66 1.34-1.66 1.67-1.66.66-.33 1.66-.33 2.33-.66 2.33-.67 4.65-1.33 6.32-1.33 1 0 1.66 0 1.99.33 1.33.67 2 4.32 2.67 6.65.33 1 .33 2 .66 3a14.4 14.4 0 0 1 0 5.31c-2-1.99-2.33-1.33-2.33-.66Zm3.99-117.4 4.99 3.66 12.31-16.96-4.65-3.33-12.65 16.63Zm-41.58-29.6.66 1.33c.34.33.34 1 .67 1.33.66 1.33 1 3 2.33 4.33 1.33 1 2.99 1.66 4.32 2.32 1 .34 1.67.67 2.66 1.34 3.66 2.32 7.32 4.32 10.98 6.65l5.99 3.66 2.66-5-26.95-19.28-3.32 3.32Zm-25.29 145c-.99 0-2.33-.66-3.66-1-.99-.33-2.32-1-3.66-1.32 0-.34-.66-2-.99-3.33a16.84 16.84 0 0 0-1.33-3.66l-1.67-3.99-3.32 5.66c-1-1.34-1.67-2.67-2-3.66-.67-2.33-1-3 5.99-5.32l1.66-.67-4.99-26.94-9.31 10.31c-7.32 8.32-14.64 16.3-21.96 24.28-.33.33-.67.33-1 .33v-.66c2.66-3.66 5.32-6.99 8.32-10.65l4.32-5.65-1.33-1.33c-2.66-2.33-2.66-4.32-.33-7.65 5.32-7.65 10.31-15.3 15.97-23.94 1-1.67 1.66-3.33 2.33-5.32.33-.67.66-1.34.66-2.33l.67-1.66-5.33-3-19.62 28.94c-1-2 0-3.66 3.66-10.98l.66-1.33-1.33-1c-3.99-3.66-2.66-5.65 0-9.31 1.66-2 3.33-4.66 3.66-7.65v-1.33l-1-.66a4.04 4.04 0 0 1-2.33-2.33c-.33-1 .34-2.33 1-3 3.33-4.65 6.65-8.97 9.98-13.96l7.99-10.98-5.99 1.66c-1.67.34-3.66 1-4.66 1 0-.33 0-1.33.33-3.66.34-.66.67-1.66.34-2.66-2.67-8.31 1.33-13.97 5.65-20.28 1.66-2.33 3.33-5 4.99-7.65h.33c1 0 2 .33 2 .33a177.3 177.3 0 0 1 13.64 18.62l-1 2c-.33 1-.66 2-1 3.32l-.33 1 5.66 6.32c-.67.33-1.33.67-2 .67-1 0-2.33-1.33-3.66-2.66-1.66-1.67-3.66-3.66-6.32-3.66h-1l-2.33.33 1 2.33c2.33 6.32 5.32 14.3 13.31 19.62 2.33 1.66 2.99 2.66 2.99 3 0 .33-.99 1.32-3.66 2.65l-3.32 1.33 5.65 4.33c2 1.66 3.99 3 5.99 4.65l.33.34c1.33 1 2.67 2.32 3 3.32 0 .34 0 1.33-.33 2-.67 0-1.34-.34-1.67-.34-4.99-3.65-9.98-7.31-15.3-11.3l-7.32-5.66-1 2.66c-1.66 4.33.33 6.66 2.33 8.98l.66 1c7.99 9.65 18.64 18.3 32.61 27.27h.33v10.31l-26.28-14.96-2.66 2.99c7.65 11.3 16.63 18.3 27.61 21.62.67 0 1.33 1 1.66 1.66-.66 0-1.33.33-1.66.33h-.66c-8.65-1.66-16.64-5.98-24.96-13.97l-.99-1-2.67 1-1.66.67 4.99 31.93 3.99-6.66c2.66-4.32 4.33-6.98 5.33-6.98.99 0 3.32 1.33 6.32 3l2.99 1.66c3.33 2 6.66 3.99 9.98 6.32 1.67 1 3 2 4.66 3.32-3.33-1.33-6.65-3-9.98-4.32-2.66-1-4.99-2.33-7.65-3.33-1-.33-2-.66-3.33-1-.67 0-1-.33-1.66-.33l-2-.66-.66 2a16.35 16.35 0 0 0-.67 3.98c1.66 5 1 6.32-2 6.65ZM1312.43 489.67a47.02 47.02 0 0 1 2.99-8.97c2.67-6.98 5.33-13.96 2.67-22.93l-1.67-5.98-2.33 5.98c-.66 1.66-1.33 3-1.66 4.32-1.33 3-2.33 5.65-2.66 8.3v.67c-.34 1.66-.67 3.32-1 3.66-.67 0-7.66-2.33-7.66-2.33l.67 3.32c0 .67.33 1.33.33 1.67.33 1 .67 1.99.67 2.65 0 2 0 3.99-.34 5.32-.33 0-1 .33-1.66.33-1.33-1.66-2-3.32-2-4.32 0-7.3.34-14.28.67-21.6l.66-13.62c0-2.99.34-5.97.34-8.63 0-1 0-2.66-1-3.66-2.33-2.66-2-5.65-1.67-9.3 0-1.33.34-2.66.34-3.66.33-7.97 0-15.94 0-23.58 0-2.33 0-4.99-.34-7.31 0-3.99-.33-8.3-.33-12.3 0-5.64-.33-11.62-.33-17.27 0-3.32-.33-5.65-4.66-7.98-1.33-.66-2.66-3.32-3.66-5.64-.34-.67-.67-1.67-1-2.33-.33-1-.67-2-.67-2.99 0-.33 0-1-.33-1.33l-.66-3.65-2.67 2.32c-1.33 1.33-2.99 2.66-4.32 3.99-3.66 3.32-6.99 6.64-10.99 9.97-3.32 2.65-5.99 4.65-8.98 5.98-1.33.66-2.33.66-2.67.66h-.66s-.67-.66 0-3.65c.33-1 .66-2.33 1-3.33.33-1 .66-1.66.66-2.65l1-4 .67-3.65-2-.33c-1-.33-1.66-.33-2.33-.33-4.66 0-4.66 4.32-4.66 6.31 0 5.65-1.66 15.62-10.98 19.94-.67.33-1 .66-1.67.66l3.67-5.98a8.6 8.6 0 0 1 1.66-2c1.33-1.99 2.99-3.98 3.33-6.64.33-2.65.66-8.97-2.33-12.95-2.66-3.66-7.66-5.65-12.32-7.65-3.32-1.32-3.66-2.32-3.32-3.32.66-.33 1.99-1 2.99-1a64.04 64.04 0 0 1 9.65 4.66l4 1.99 6.99 3.65 2.99-3.32-.33-1c0-.33-.34-.66-.34-1-.33-.99-.33-1.98-1.33-2.98l-16.97-21.93-10.65-13.95c-1.33-2-3-3.66-3.99-5.65 0-.33 0-1 .33-1.33h.33c.67 0 1 0 1.67.33.99.33 1.99 1 2.66 2l3.66 4.31c10.32 12.3 20.97 24.92 27.96 40.54l1.99 4.32 3.66-8.64c1.34-3 2.33-5.65 3.66-8.3 1-2 1.67-3 2.33-3 .34 0 .67 0 1.34.33.99.67 1.33.67 0 3.33l-.34 1a237.75 237.75 0 0 0-8.32 24.58l-1.33 4.65 4.33-2.32c8.65-4.66 13.64-11.97 17.97-19.27.67-1 1.66-2 2.33-2.66 1.33.66 2.66 2 2.99 2.99.67 2 1.34 3.98 2 6.31.67 2 1 4.32 2 6.31 1.66 4.32 4.33 4.99 5.66 4.99s3.32-.67 5.32-3.33c5.66-7.3 11.98-17.6 10.98-30.9-.33-4.31-.33-8.96-.33-13.28v-4c2.66 0 3.33.34 3.66.67.34.34 0 3 0 4.32-.33 4.65-.33 9.64-.33 14.95v11.64l3.33-2.33c6.65-4.66 13.98-10.3 11.98-20.6l1.33-1.33c.67.66 1.66 1.33 2 2 1 3.98 1.33 7.97 1.99 12.95.34 2 .34 3.99.67 5.98l.67 3.65 8.32-6.97c0 3.32-1.34 5.31-4 7.97-3.33 3.32-3.66 5.98-3.33 7.97.34 2 1.67 4.66 6.33 6.65 1.99.66 3.66 1.33 5.66 1.33 4.65 0 8.65-2.33 12.64-4.32 0 0 6.99-3.99 7.99-4.65-6.99 7.64-15.64 12.62-23.63 12.62-3.99 0-7.65-1.33-10.65-3.65l-1.33-1-1.33 1c-4.99 3.99-7.99 5.98-10.32 5.98-3 0-5.99-3.32-12.31-10.63l-2-2.33-4.99 8.97 3.66-.66c0 .33.33 1 .33 1.33.67 1.99 1.33 4.31 1.66 6.3 2 16.62 3.67 34.23 5.66 53.5l1 13.95c.67 7.31 1 14.95 2 22.6.33 1.32 0 2.99 0 4.31-.33 4-.33 9.3 4.32 12.96v.67l-.33 1.99c-.66 4.65-1.66 9.63-2.66 14.29 0 1.66-5.66 6.97-9.65 9.3Zm-1.67-64.12a74.14 74.14 0 0 1-2.99 11.62c-2.33 6.98-4.33 13.96-2 21.93l4-.33c.33-3.32 1.66-6.64 2.99-10.3 2.66-6.64 5.66-14.29 2-23.59l-1.67-4.32 2.67-1-3-21.59-4.99-.66-5.99 27.24 9.65-3.66-.67 4.66Zm-9.65-32.23 10.65-2.33-2.66-19.93-1.66-.67-2.33-1-4 23.93Zm15.98-59.14.33 1.33c0 .33.33 1 .33 1.66.34 1.66 1 3.66 2 4.98 2 2.33 4.99 4.32 7.65 5.32h.67c.67 0 2.33 0 5.66-6.31 1-2 1.99-4.32 2.99-6.65.34-1 2-4.65 2-4.65l-5.33-10.3-16.3 14.62Zm-145.11 149.5c2.66-5.97 4.99-11.95 6.32-17.93 1-4.99.67-9.97.34-14.95 0-2-.34-4.32-.34-6.32v-1.99l-6.65-.33-1 7.64c-1 6.64-1.67 12.96-3 19.6 0 0-.33.33-.33.67-1-.34-1.66-1-1.66-1-5.33-10.96-6.33-23.26-6.99-34.89v-1c-1-14.61-1.67-29.56-2.33-43.85l-1-18.94v-2.99l-2.66 1.33c-3 1.33-5.66 2.33-8.32 2.33-3.67 0-6.99-1.66-9.66-5.32l-1.66-1.99-1.66 2c-1 1.32-2 2.65-3 3.65-2 2.32-3.99 4.98-5.99 6.98-2.66 2.32-4.33 3.65-5.66 3.65-1.66 0-3.33-1.33-5.66-4.98-.33-.34-3.32-4.99-3.32-4.99l-1.67 2c-.66 1-1.66 1.66-2.33 2.32-1.66 2-3.33 3.66-4.99 5.65-1.66 2.33-4.66 4.98-7.65 4.98-1 0-1.67-.33-2.67-.66-1.66-1-3.33-4.32-4.32-8.3-.67-2.67-.67-5.66-.67-8.98V360.1l-2.66 1c-2 .66-4 1.99-5.66 3.65-2 1.66-3.99 3.32-6.32 3.32-.67 0-1 0-1.67-.33-3.99-5.98-1.66-11.63 1-17.94l.33-.67c3-6.98 6.66-13.95 10.32-20.6 1-2 2-3.98 3.33-5.64 1.66-3.33 2.66-3.66 3.33-3.66.33 0 1 0 1.66.33-1.33 2.66-2.99 5.32-4.32 7.98-6 10.3-11.99 20.93-13.98 33.22l-.34 1.33 3.67 2.66 4.99-4.32c2.99-2.66 6.32-5.32 9.65-7.98a22.4 22.4 0 0 1 2.66-1c.33 1 1 2.33 1 3a83.5 83.5 0 0 1-1.66 9.63c-.67 2.66-1 5.65-1.34 8.3-.33 1.67 0 3.33.34 5.32 0 .67.33 1.67.33 2.66l.33 2.66 2.67-1.33c8.65-3.99 13.97-10.3 17.3-19.6l.33-.67c.67-1.66 1-2.99 1.67-2.99h.66c.34.34 1.67 2 2 4 .33.99.33 1.98.33 3.31v3.66a11.85 11.85 0 0 0 3 5.65c.33.33 1 .66 1.66.66 1.33 0 4-1 5-2.32 1.66-2.33 3.32-4.66 4.99-7.31 1.33-2 2.33-3.66 3.66-5.32 1.33-2 2-2.66 2.33-2.66.33 0 1.66 1 2 2 2.33 3.98 5.65 7.97 10.98 7.97 2 0 4.33-.67 7.32-2 2.33-1.32 4.66-4.31 4.99-6.97.34-3.32.34-6.31.34-8.97v-5.32l-2.67.67c-1.33.33-2.66 1-3.99 1.33-2 .66-4.33 1.66-5.99 1.66-.33 0-.67 0-1-.34-2-.66-3.66-2.99-5.33-5.64l-2.99-3.99-1.66-2-3.33 4.33c-1.67 1.99-3.33 4.31-4.99 6.64a11.9 11.9 0 0 1-4 3.32c-1 .33-1.66.67-2.33.67-2 0-2.66-2.33-2.66-3.66-.33-3.32 0-6.64 0-10.63v-10.3l-3.33 3-3.66 3.65c-2.33 2.32-4.33 4.32-6.66 5.64-1.66 1-4.32 1.67-5.99 1.67-.66 0-1 0-1.66-.34-.67-.33-1-.66-1.33-1-.34-.99-.34-2.65.66-4.31l2.33-4.65c4.33-8.64 8.66-17.61 13.32-26.25.66-1.33 1.66-2.33 2.99-2.33.33 0 1 0 1.33.34l-17.3 31.56 5.65 3.99 4.66-5.32c2.67-3.32 5.66-6.64 8.66-9.63a11.5 11.5 0 0 1 2.99-2c.67 1 1.33 2 1.33 2.66v5.65c0 4.32-.33 8.97.34 13.95l.66 4.65 5.99-7.3a179.4 179.4 0 0 1 7.66-8.98c1.33-1.66 2.66-2.65 3.32-2.65 0 0 .67 1 2 3.65 1 2.33 2 4.65 2.66 6.98l1 2.99 1 2.65 4.99-3.98c2-1.33 4-3 5.99-4.32l.67 1c1.33 1.32 2.66 2.99 3.99 4.31.34.34.67 1.33.67 1.67l-1 11.96c-.33 3.65-.66 7.3-.66 10.96 0 1.33 0 2.66.33 3.65 0 .34 0 1 .33 1.33v1.33l4.33 1.33.66-1.33c.67-1 1-2 1.67-2.99 1.33-2.32 2.66-4.65 3.99-6.64.67-.67 1.66-1.33 3-2h.33c.66 1 1.66 2 1.66 3 .34 1.66.67 3.65.67 5.64.33 2.33.33 4.65 1 6.98.66 2.32 3.33 5.31 5.99 5.65h.66c2.67 0 5.66-2 6.99-3.66 1-1.33 1.67-2.99 2-4.65.33-1 .33-1.66.67-2.32.66-1.33 1.33-2.33 1.99-3.66 1 .67 2.33 1.33 2.66 2.33 4 6.3 8.32 9.3 13.32 9.3 2.66 0 5.32-.66 8.32-2.33 5.66-2.65 6.99-6.97 4.66-12.62-.34-.33-.34-.67-.67-1.33-.33-.33-.66-1-.66-1v-2.99h.33c1 0 2 .34 2.99.34 0 0 .34.33.34.66.33.33.66 1 1 1.33l2.66 2.99 1-3.99c1.33-5.65-.34-8.97-5-11.96a10.08 10.08 0 0 1-2.99-3.32c9.98 1.33 11.65 10.96 11.65 16.94v7.31c-5.33 2.66-9.65 5.32-13.65 8.97-3.33 3-6.65 4.32-9.98 4.32-4.33 0-8.66-2-13.65-5.98l-1.33-1.33-1.33 1.33c-1 1.33-2.33 2.66-3.33 3.99-2.99 3.65-5.32 6.98-9.32 6.98-1.66 0-3.33-.34-5.32-1.33l-3.33-1.66 1.33 15.61 2 26.58c.33 4.32 1 8.64 1.66 12.62 1.33 8.64 2.66 17.28 1.67 25.59-.67 5.98-4.33 11.63-8.33 17.27-1.33 2.33-2.99 4.65-4.32 6.98 0-3.32.66-4.98 1.33-6.31Zm-10.32-64.78 6.66.67.33-2c.67-3.32 1.33-6.97 2-10.3a90.91 90.91 0 0 0 2.66-16.6v-2l-5.32-1-6.33 31.23ZM562 322c0-1.33.33-2.66.67-3.98a64.27 64.27 0 0 1 2.66-7.3c.34-1 .67-2 1.34-3.33l.66-2.32-2.33-.67c-1.33-.33-2.33-.33-3.33-.33-5.67 0-9 3.32-12 6.64-1.34 1.33-2.67 3-4.34 3.66-.33-1.33-.33-2.33-.66-3.66-.67-5.3-1.67-10.95-7.34-14.94l-1.66-1-1.34 1.34c-2.33 2.98-3 6.3-3.66 9.62-.67 3.65-1 6.97-4 8.97l-5.34-13.28-3.66.66-.67 2 .67 7.3-1 1L512 288.8l15-5.97-10 6.64 8.33 15.6 2-2.32c1-1.33 2-3 3-4.32 1.34-2.32 3.67-5.64 5-5.98h.67c5.33 0 7.33 4.98 9.67 11.95l1 2.66 2-1c7-3.31 7-8.96 7-13.6 0-1.33 0-3 .33-4.32 1-5.98-2.67-8.96-5.67-10.96-1.66-1.32-3-2.32-3.33-3.65l-.67-2.65-17.66 11.28-2.34-1.99c-1.66-1.33-2.33-2.32-2.33-3.32s.33-2 1.67-3.65c4.33-4.65 8.66-9.63 12.33-15.6l-3.33-2.66-11 9.96c-.34-1.66 0-2.99 1.66-4.65 8-8.3 15.67-16.6 23.34-24.56 1-1 2-1.66 3.33-2.66.67-.66 1.33-1 2.33-1.66l1-.66-1-6.31-2 .66c-.66 0-1.33.34-2 .67l-7 6.97c-5 4.98-10.33 9.96-15.33 14.94 0 0-.33.33-.67.33v-1.33c.67-1.33 2-2.65 3.34-3.65l1.66-1.66 2-2-2.33-1.32c-2.33-1.33-3-2-3.33-2.66 0-.66.33-1.99 1.66-3.31 3.67-4.32 7.67-8.64 11.34-12.62 3-2.99 5.66-6.3 8.66-9.3a40.1 40.1 0 0 0 7.67-11.95l-3.33-2.32-20 19.92c-1.67 1.66-3.34 3.32-5 4.64v-.33c1.33-1.99 3-4.31 4.66-6.97l3-4.31-1-1.33c-.66-.67-1.33-1.66-2.33-2.32-1.67-1.66-3.67-3.66-4.33-5.65-.34-.66 1-3.65 2.66-5.31A701 701 0 0 1 548 178.25l11.33-11.28c1-1 2-2.33 2.67-3.65l2-3c.33-.66 1.33-.99 2-1.32.33.66.33 1.33.33 1.33-2.33 4.31.67 6.64 2.34 8.3.33.33.66.66 1.33 1l.67.66c.66.66 1.66 1.33 1.66 1.99-.33 11.29 4.67 20.58 8.67 27.55.67 1 1 3 .67 3.66l-.67.33c-.33 0-1.33-.67-2-2a7.78 7.78 0 0 0-2.33-2.32c-.34-.33-.67-.33-.67-.66l-1.33-1.33-4 3.65 1.33 1.66c1 1.33 2 2.33 3 3.65 2.33 2.99 5 5.98 7 8.97.67.66 1.33 1.66 2 2.32 1 .66 2 2 2 2.66 0 .33-.33.66-.67 1-.66.32-1 .66-1.33.66-.67 0-2-1.33-2.67-2.66-.66-.66-1-1.33-1.66-1.66-.34-.33-.34-.66-.67-.66-.67-.67-1.33-1.66-2.67-2.33l-3.66-1.99.66 3.98c1 7.3 6 10.96 11 14.61 1 .66 1.67 1.33 2.67 2h-.33c-5 0-8.34-3-12.34-6.65-1-1-2-1.99-3-2.65l-4.66-3.99 1.33 5.98c2.67 12.28 11.33 16.93 19.33 19.92.34 0 .67.33 1 .66-.66.33-1.33.67-1.66.67-1 0-2-.34-3-.67-1.34-.33-3-.66-4.67-.66h-1l-7.67.66 20.34 9.63-5.34 2.99 5.67 5.3c-6-1.32-11.33-3.98-17-6.96-2.33-1-4.33-2.33-6.67-3.32l-1.33-.67-3.33 3.65 1.33 1.33c.33.34.67 1 1 1.33.67 1 1.67 2.32 3 3.32 6 3.98 12 7.64 16.67 10.3l.66.32c.34.34 1 .67 1.34 1-.34.33-.67.33-1.67.66-2.33 1-3.67 4.65-3.33 6.64 0 1 .33 2.33-.34 3-.66.99-3 .99-4.33.99-3 0-6.33-.33-9.67-1-1.33-.33-3-.33-4.33-.66l-1.67-.34-.33 1.67c-1.67 5.3-2 11.28 6.33 15.27 2.67 1 3.34 3.98 2.34 9.62-.34 1-.67 2.33-1.34 3.66-.33.66-.66 1.32-1 2.32l-.66 1.99 3 1c-1.34.66-2.34 1.32-3.67 1.66-2 .66-3 .66-4 .66Zm-36.67-45.15 2.34 3.32c3.33-1.66 6-3.65 8.66-5.31 1.34-1 2.67-2 4-2.66 2.67-1.66 4.67-2.65 6-2.65 1.67 0 3 1.33 5.67 4.31a7 7 0 0 0 2 1.33s.33 0 .33.33l3.34 2-.34-3.99c-.33-3.65-1.33-6.97-3.33-9.3-3-3.31-3.33-4.3-1-6.3 1.33-1 .67-2.66.33-4.32 0-.33-.33-1-.33-1.66l-.67-3.98-27 28.88Zm5.34-43.16 4.33 3.99 5-4.98c6.67-6.97 13.67-13.94 20.33-20.92 1-1 .67-1.99.67-2.98V202.49l-30.33 31.2ZM730 360c-.33 0-1-.33-1-.33-5.68-4.66-12.7-9.3-21.39-9.97h-1c-1.34 0-3.68.33-5.35 1-2 1-4.34 1.66-6.35 1.66-4 0-7.68-1.67-10.02-4.66-.33-.33-.67-.66-1-1.33-.67-.66-1.34-1.66-2-2.32-2.35-2.33-2.35-3.33-2.35-3.33 0-.33.34-1 3.35-2.66l1.33-.66-12.7-60.15-5.68 6.31c-3 3.32-6.01 6.98-9.35 10.3 1.67-3.65 4.34-6.98 7.01-10.63 4.68-5.98 9.36-12.3 10.03-20.6v-1.34l-4.68-2.66-4 5.66a295.83 295.83 0 0 1-8.03 10.63c-.33.33-.67.33-1 .66v-1.32c2.34-4.32 5.01-8.31 7.68-12.3 1.67-2.66 3.68-5.65 5.35-8.31 1.67-2.66 2.34-4.99 2-7.98l-.66-5.98-6.35 9.97c-3 4.66-5.68 9.3-8.69 13.63-.33.33-.67.66-1 .66 0-.66-.34-1 0-1.33 3.67-6.64 7.68-12.96 11.36-19.27l4.68-7.65-4.35-3.32L654.48 249c0-1 0-2 .34-2.66 1-3 2.34-5.65 3.67-8.31.34-1 .67-1.66 1.34-2.66l.33-.33c6.69-3.99 13.04-14.63 11.03-21.94l-1.34-5.31-12.7 24.26-.33.33-1.34.66c-.33-.66-.33-1-.33-1.32.34-1.67 1-3 2-4.66.34-.66.67-1.66 1.34-2.66l.67-1.33-1.34-1c-3-2.65-2.34-4.31.34-8.97.33-.66 1-1.66 1.34-2.32l1.33-2.33-2.34-.66c-2.34-.67-3-1.33-3-1.66 0-.34-.34-1 1-2.66 2.67-4.32 5.34-8.98 8.02-13.63 1.33-2.33 2.67-4.32 3.67-6.65.67-1 1.34-2.32 2-3.32l2.01-3.32-4.34-3-2.68 3.66c-1.33 1.66-2.33 3.32-3.67 4.99l-1 1c-.34-.34-.34-.67-.34-1 .34-1.33 1-3 2-4.66l1.01-2 1-2.32-2.67-.33c-3-.33-3.68-.66-4.01-1 0 0 .33-1 2-3.98 3.01-4.99 6.02-9.97 9.36-14.96l1.34-2c2.34-3.65 5.01-7.3 7.68-10.96l2.68-3.99c1 .33 2 1 2 1.33 5.68 11.3 11.03 22.6 15.04 31.24l-.34-.33c-2.67-4.32-5-9.3-7.35-13.63l-3.34-6.31-5.35 2.32.67 2c.67 1.33 1.34 2.99 1.67 4.32 1.34 3.32 2.68 6.31 4.35 9.64 1.67 3.32 3.34 6.31 5.01 9.63 1.34 2.33 2.67 4.66 3.68 6.98.33 1 .66 2 .66 2.66v.33c-2-2.99-4.34-5.98-6.35-9.3-1.33-2-2.67-3.99-4-5.65-.67-1.33-2.01-2.66-5.02-3l-3.67-.66 1.67 3.33c.67 1.33 1 2.66 1.67 3.65 1.34 2.66 2.67 5.65 4 8.31 1.68 3 3.68 5.98 5.36 8.64 2 3 4 6.32 6 9.64v1.33l-11.35-14.3-4.68 3 4.34 7.64c2.68 4.66 5.35 9.3 8.02 13.63 1 2 2.34 3.99 3.68 5.65 1.34 2.32 3 4.65 4.34 6.98v.33h-.33l-2.34-2.66c-4.01-4.98-8.35-10.3-13.37-15.29l-3.34 2.66L703.94 249l-5.68 1.66 6.35 8.97c-5.69-3.99-12.03-12.3-24.06-30.24l-3.34-4.99-.67 5.65c-1 9.97 4.34 16.95 9.02 22.94.67 1 1.67 1.99 2.34 2.99 3 4.32 6.68 7.97 10.36 11.3 2 1.99 4.34 4.32 6.35 6.64a6.43 6.43 0 0 1 1.67 3l-16.04-12.63-1.67 1.66-1.34 1.33 1 1.66 5.01 5.98c3.68 4.65 7.69 9.64 11.37 14.62 1.67 2 2.67 4.32 4 7.31 0 .34.34.67.34.67-5.68-1-9.02-3.66-29.07-22.27l-4.01-3.65.67 5.31c.33 2.33.33 4.66.67 6.98.33 4.66.66 8.64 1.33 12.97a736.88 736.88 0 0 0 5.68 26.25l1.34 5.65 1 3.99c1 3.99 2 7.97 2.67 12.3v.66l.34.33a9.01 9.01 0 0 0 6.01 2.66c2 0 4.35-1 6.35-2.66 1.34-1.33 2.68-2 4.01-2 1 0 2 .34 3 1l3.02 2c5.68 3.65 11.7 7.64 17.7 11.63.34.66.34 1 .34 1.33Zm-74.18-154.2 5.35 2.98 10.69-18.6-5.01-2.67-11.03 18.28ZM1850.37 516.34v-1.32c1-2 2.66-3.65 4.31-5.3 6.97-6.63 9.29-14.59 6.63-24.86l-1.32-5.63-2.32 5.3c-.33 1-1 1.99-1.33 2.65-.99 1.66-1.99 3.31-1.99 5.3 0 3.32-2.32 5.3-4.64 7.96l-2.65 2.65c-.33.66-.66.66-.66.66s-.67-.66-1-1.33c-.99-2.98-2.32-6.96-2.65-10.93-.33-6.3-.33-12.6 0-18.56v-7.95l-17.9-7.96-.67.34c-1.66.66-3.64 1.65-5.3 2.31-3.98 2-8.29 3.98-12.6 4.31h-1c-4.97 0-7.29-3.97-10.61-10.27l-1.65-3.31-1.99.99c-1.33.66-2.32 1.32-3.32 1.99-2.32 1.32-4.64 2.65-6.96 3.64-1.33.67-2.65 1-3.65 1-.99 0-3.31 0-3.98-4.97-.33-4.97 0-8.95 1-11.93a111.29 111.29 0 0 1 8.62-18.23c.33-.66 2.65-1.66 3.98-1.66l.66.33c0 .33-.66 1.33-.99 2-.34.65-.67.99-1 1.65-3.31 6.3-5.97 12.6-8.95 20.55-.66 1.65-.33 3.31 0 4.63 0 .67.33 1 .33 1.66l.33 2.65 2.66-.66c.66 0 .99-.33 1.65-.33 1.33-.33 2.99-.66 4.64-1.66a22.28 22.28 0 0 0 3.98-3.97c.67-.67 1.33-1.66 1.99-2.32 1.66-1.66 2.65-1.66 2.65-1.66.34 0 1.33.66 1.99 2.98l.34 1.33c1.32 3.31 2.65 6.96 4.97 9.94a8.32 8.32 0 0 0 7.29 3.98c2.32 0 4.64-1 6.3-2.66 3.65-3.31 6.3-7.29 8.62-10.93 1-1.66 1.99-3.98 1.33-6.3-.66-1.65-1.99-2.65-3.98-3.64-.33-.67-.66-2.66-.66-3.65 2.65-11.6 5.63-23.2 8.95-36.12.33 0 .66-.33.99-.66.33.66 1 1.99 1 2.65-1 4.97-2.66 9.94-3.98 14.58-.66 2.32-1.33 4.64-1.99 7.29a17.16 17.16 0 0 0-.66 3.65l-.33 1.65-1 4.97 4.31-2.98a41.91 41.91 0 0 0 9.28-9.61 116.3 116.3 0 0 1-5.96 11.27c-3.65 5.96-3.98 18.89.99 24.52 1 1.33 2.65 1.99 3.98 2.98.66.33 1.33 1 2.32 1.33l2.32 1.66.66-2.99c1-3.97 1.99-4.64 2.32-4.64 0 0 .67.34 1.33 1 1.66 1.66 2.98 2.65 4.64 2.65 1.99 0 3.32-1.33 4.64-2.32.67-.33 1.33-1 1.66-1.33h1l.66-.66c.99-1.33 1.33-5.3 1.33-6.96-.34-1.99-1-3.64-1.66-5.3-.33-.66-.67-1.33-.67-1.66l-.66-1.66-1.66.34c-1.65.33-2.98.33-3.97.33-2.33 0-3.65-.33-4.31-5.97-.34-3.97-.67-7.95-1-12.26l-.99-12.6c.66-.99.99-2.31 1.65-3.3.34-.67.67-1.33 1.33-2.33.99 1 1.99 2 1.99 2.99.33 3.97 0 8.28 0 12.26 0 1.99-.33 4.3-.33 6.3 0 1.32 0 2.98.33 3.97v1l.33 2.65 12.27-3.65.33-1c0-.32.33-.99.66-1.65.67-1.99 1.33-4.64 2.32-6.96.33-.66 1-1.32 1.66-1.99 1 1 1.66 2 1.99 2.65.66 2 .66 4.31.99 6.63 0 1 0 1.99.34 2.99v1.32l3.97 1.66 6.97-6.3c0 1 0 1.66-.33 1.99-7.63 6.63-2.66 12.92.66 16.9 3.65 4.3 11.27 8.28 16.58 8.28.99 0 1.99 0 2.65-.33 1.32-.66 4.97-2.98 4.31-5.63-1-4.3-2.65-8.29-4.31-12.26-.33-1-1-1.66-1.66-2.32-.33-.33-.66-.66-.66-1 0-1.32-.33-4.97.33-5.63.33-.33.66-.33.99-.33.67 0 1.66 1.66 2.32 2.65l.34.66a50.71 50.71 0 0 0 3.64 5.3c3.65 4.31 6.63 6.3 9.62 6.3 3.98 0 7.29-3.64 9.61-6.63 1.99-2.65 2.65-4.97 2.32-6.95a6.4 6.4 0 0 0-3.64-4.65l-.34-.33-.66-.66c-1.99-1.66-2.65-2.98-2.65-3.64 0 0 0-.67.66-1.33 1 0 2.65.66 3.98 1 .66.33 1.66.33 2.32.66 0 0 .33 0 .33.33.67.33 1.99 1 3.98 1.32l2.65.34-.33-2.66c-.33-1.32-.33-2.65-.33-3.97-.33-2.99-.66-6.3-1.66-9.28-6.3-16.9-14.58-26.51-27.51-31.48 0 0-.34-1.66-.67-2.32v-.33c6.96.66 11.61 4.63 16.25 8.94 1.66 1.66 3.64 2.98 5.3 4.31l2.99-2.65a76.75 76.75 0 0 1-3.32-9.28c-2.65-8.62-5.64-18.23-17.9-21.54 0-.33-.33-.33-.33-.66 1.32-1 1.99-1.66 2.65-1.66.66.33 1.32.66 1.99 1.33 3.98 2.31 8.29 4.97 10.61 8.28 3.64 5.3 5.3 12.26 6.96 18.56.33 1.66 0 3.31-.66 5.3a16.22 16.22 0 0 0-.67 3.98c0 1.66.33 2.98.67 4.3l.33.67c.66 2.32 1.66 4.97 2.32 7.29 1.66 5.63 3.65 11.27 4.97 16.9.33 1.33-.33 3.31-.99 4.97-.33 1-.67 1.66-1 2.65-.99 2.98-1.66 5.64-2.65 8.95l-2.32 7.62 6.63-1c-2.65 3.99-11.6 6.64-24.87 6.97h-1.98v1.99c-.34 6.62-5.97 10.6-11.28 10.6-1.99 0-3.98-.66-5.96-1.32l-5.97-2.99-4.64-2.32-1 1.66c-2.98 5.63-4.31 6.63-7.29 6.63-1.33 0-3.32-.33-5.97-1l-2.65-.66.66 6.96c.33 3.64.66 6.96.99 10.27.34 2.32.67 4.97 1 7.3.66 5.3 1.33 10.93.99 16.56v3.32c.34 4.64 0 7.62-4.97 8.94-2.98.67-4.97 2.99-6.96 5.3-1 1-1.99 2.33-2.99 2.99-1.65-1.66-1.98-1.66-2.32-1.66Zm4.98-54.35c-5.64 5.64-9.29 17.24-5.31 22.2l2.32 3.32 1.33-3.97c.66-2 1.66-3.65 2.65-5.64 2.32-4.3 4.97-9.28 2.65-15.24l-.99-2.99-2.65 2.32Zm2.32-25.51 2.65 4.3 6.96 10.94c1 1.33 2.99 1.66 3.98 1.66.66 0 1.33 0 1.99-.33.99-.34 1.66-1.33 1.99-2.32.33-.67.66-2.32.33-3.32a125.3 125.3 0 0 0-7.29-14.91 5 5 0 0 0-2.99-2.32c-.33-.33-.66-.33-.99-.66l-1.66-1.33-4.97 8.29ZM1030.47 451c-.33-.66-1-1.33-1.33-1.66 1-2.32 2-5.63.33-8.29-1.32-1.66-3.32-2.65-6.64-2.65h-2.32a11.1 11.1 0 0 0-9.63-4.97c-1.66 0-3.32.33-4.98.33-1.33.33-2.66.33-3.98.33-1 0-2 .33-3.32.33-1 0-1.67.33-2.66.33-1 0-2.33 0-2.99-3.31-.33-1.66-2-2.33-6.64-2.33h-2.32c-.67 0-1.67.34-2.33.34-.66 0-1.33.33-1.66.33v-.67c0-1.65 1-3.98 2-5.97.32-.33.32-.66.66-.99l1.99 1-1 2.65h5.65c3.65 0 6.97.33 9.3 3.65 1 1.32 2.65 1.32 3.65 1.32.99 0 1.66 0 2.65-.33.67 0 1.66-.33 2.33-.33h1.99v-2c0-5.63 3.32-9.94 6.64-14.25.67-1 1.33-1.66 1.99-2.65h1.33c.33.66.33 1.32.33 1.66-.66 1.65-1.66 3.64-2.65 5.63-1 1.66-1.66 3.32-2.66 4.98-.66 1.32-.33 2.65-.33 3.98V431.44l2.66-.67c.33 0 .99-.33 1.32-.33 1.66-.33 3.32-.66 4.32-1.99l1-1.66a293.8 293.8 0 0 0 13.28-21.55c1.33-2.32.33-5.3-.67-7.96-.33-.66-.33-1.33-.66-1.99 0 0-.33-3.32-.66-4.97-.34-3.32-.67-6.97-1-10.28-.33-3.65-1.33-7.96-6.97-10.62-.34-.33-.67-1.65-1-2.32l3.65-1.32c.33 0 2.33-1 2.33-1l1.66-.66-4.98-14.26-28.56 29.51c-.33.33-.33.67-.66.67-1 .33-1.66.33-2.66.66.33-.66.66-1 1-1.66 2.98-2.98 6.31-5.97 9.96-8.95 1.33-1.33 5.97-5.3 5.97-5.3l-1.99-1.33c-4.31-3.32-2.99-5.31.33-10.28l1.33-2-1.66-1.32a6.1 6.1 0 0 1-2.32-2.98c-.33-1.66 1.33-3.98 2.99-5.64 2.98-3.65 2.98-6.3.99-10.61-.66-1 1-4.98 1.99-6.63l.34-.67c.66-1.66 1.99-3.31 3.32-4.97.66-1 1.33-1.66 1.99-2.66l2.32-3.31h-3.98c-1.99 0-2.32-.33-2.32-.33s-.34-.67.99-2.99c.67-1.66 1.99-3.31 3.65-4.97 2.99-2.65 2.33-5.64 2-7.96v-1c-.34-1.65.66-3.64 1.66-5.63l.99-2.99 1-2.98-3.32.33h-.67c-.66 0-1.32-.33-1.66-.66-.33-.33 0-1 .34-1.66 3.98-6.97 8.3-13.93 12.61-20.56l1-1.66s.66-.33 1-.33c0 0 .66 1 .99 1.99.67 2.65 1.33 5.3 1.66 7.63l.33 1.99c.34 1.99.67 3.97 1.33 5.96v.34l-3.98-2.33-3.65 3.32 1.32 1.66c.34.66 1 1.33 1.33 1.99 1 1.66 2.33 3.31 3.99 4.64 1.99 1.33 2.32 2 2.65 2.32 0 .34-.33.67-.99 1l-1 .66 1.33 10.61-11.62-4.64 3.98 5.64c.67.66 1 1.32 1.33 1.99 1 1.32 1.66 2.98 2.99 3.98a24.7 24.7 0 0 0 3.98 2.32c1.33.66 2.33 1.32 3.32 1.99.67.66 1.66 1.65 1.66 2.65l-.99 1c-.67.33-1 .66-1.66 1.32l-1.66 1.66 8.96 7.3h-1.33c-2.65 0-5.31-1-8.3-2.33a23.33 23.33 0 0 0-4.31-1.66l-2.33 3.32c7.64 7.96 14.28 12.6 21.58 15.25 2 .67 2.99 1.33 2.66 3.98l-25.23-11.93v3.31c0 4.98 5.31 10.28 12.28 13.27 1.33.66 2.66 1 3.99 1.66 2.98.99 6.3 2.32 8.96 3.64 1.99 1 2.33 1.33 2.33 1.66 0 0 0 .33-.34.66h-.99c-.67 0-1.33 0-2.33-.33-1.66-.33-3.32-1-5.31-1.66-.66-.33-1.66-.66-2.32-1l-1.66-.65-2.33 4.64 1.66 1c1 .66 1.99 1.32 3.32 1.98 2.33 1.33 4.65 2.66 6.31 4.65a16.73 16.73 0 0 1 2.99 5.96c.33 1 1 2.33 1.33 3.32l.66 1.66 2.99-1-3.98 7.3 1.66 1c-2 .66-4.32.99-6.31.99-5.98 0-11.96-2.65-19.26-6.63l-3.99-2.32 2.33 11.27c.99 5.3 1.99 9.62 2.65 14.26.34 1.66 0 3.31-.66 4.64-3.65 5.97-6.97 11.94-10.96 17.9l-4.98 8.3 9.96 8.62 14.95-27.52c.33-.33.33-.67.33-1 0-.33.33-.66.33-.66.66-.33 1.33-.66 2.32-1.33.34.67.34 1.66.34 2-2.99 5.63-6.31 11.27-9.3 16.57-1.66 2.66-2.99 5.3-4.65 7.96-1 2-1.99 3.65-2.99 5.64a38.5 38.5 0 0 1-3.65 6.3c1.33 1.32 1 1.99.33 2.32Zm4.98-85.55c1.66 9.61 8.63 12.26 14.61 14.25 1.99.67 3.99 1.33 5.65 2.33l4.31 2.32-1.32-4.65c-1-3.31-2.66-5.63-4.65-6.96-3.32-2.32-6.98-4.31-10.63-6.3l-4.98-2.98-3.65-2.32.66 4.3Zm-25.23-5.64 2.98 2.32 1.66 1.33 17.27-22.88-4.65-3.32-17.26 22.55ZM1486 498c0-.66 0-1.33.33-2 .67-1.99 1.67-3.64 2.67-5.64 1.66-3.32 3-6.97 4.33-10.3.67-1.98.33-3.64-.33-5.64 0-.66-.34-1.33-.34-1.99l-.33-1.66-5-.33-2.67 12.29-6-1.67.67 3.32c0 .67.33 1.33.33 2.33.34 1.33.67 2.32.34 2.99 0 .66-.34 1.33-.67 2-.67-.34-1.67-.67-2-1-.67-1-1-3-1.34-4.65-2-17.6-3.66-31.88-5.33-46.5-.33-1.66 0-3.32.33-5.3 0-1 .34-2.33.34-3.66l-4-1.33c-5.67 9.63-12.01 13.95-20.01 13.95h-.67c-8.66 0-14.33-4.32-17-13.28l-1-3.33-2.33 2.33-3 2.99c-2 1.99-4.01 3.65-6.01 5.31-1.66 1.33-3.33 2-4.66 2-1.67 0-3.34-1.67-4-5.32-.67-2.66-1.34-4.98-2.01-7.64l-2-6.97h-3.33l-.33 1-4 3.98a106.11 106.11 0 0 1-11.34 9.96c-1.33 1-4 2-5.67 2h-.33c-1.33-1.33-2.67-4.66-2.34-7.64 0-2.66 1.01-5.65 2.01-8.64.33-1.33 1-2.65 1.33-4.31l.33-1.66-1.66-.67c-.67-.33-1.67-.66-2.34-1-1.67-.66-3.67-1.32-5-2.32-4.33-3.65-6-8.63-4.33-15.6 3-14.95 8.66-26.57 17-36.2.67-.67 1-1.66 1.67-2l1-1.66-3-4.98 5.33-1.99.67-1.33c.33-.66.66-1.33 1-2.32.33-.67 1-2 1.67-2 .33 0 1 0 2.33 1.33 1.67 1.33 3.33 2.66 5.33 3.66l3 1.99 2.34 1.66 1-2.66c2.33-7.64.33-12.95-1.67-17.93-.33-.66-.67-1.33-.67-2.33l-1-1.99a5.62 5.62 0 0 1-.66-1.66c0-.66.33-1.66.66-1.99.34 0 1 .33 1.34.33 5 7.64 7.33 15.94 7 24.24 0 2.33-2.33 4.99-5 4.99h-1c-1 0-1.67-.34-2.34-.34-5.33 0-8.66 3.32-11.67 5.98l-1 1c-12 10.62-16.33 25.23-19 38.19-.67 3.65.67 7.3 1.67 9.3 1.33 2.32 4 4.64 6.67 4.97 3 0 5.33-3.65 6.33-4.65 2-3.32 4-6.97 6-10.62l1.34-2.33 2 1.33-15.34 35.2 4.33 3 1-.67c9.01-4.65 14.67-12.95 20.34-20.92.67-1 1.34-1.66 2-2.66l5.67 25.9 4.67 1.33s3-4.32 4-5.64c2.33-3.66 5-7.31 7.67-10.63 2-2.33 3.66-3.66 4.33-3.66.67 0 1 .34 1 .34.67.66.34 2.99.34 4.65-.67 6.3.66 11.62 4 15.27 2.66 2.66 6 4.32 10 4.32 1.67 0 3.33-.33 5-.67 6-1.66 12.34-9.63 13-16.27v-2.32c0-1 0-2 .34-2.66.33-1.33 1.33-2.32 2.33-3.32 1 1 1.67 2 2.33 2.99.67 1.33 1 2.66 1.67 4.32.67 1.66 1.33 3.65 2.33 5.31 1.34 2 3.34 5.64 6.67 5.64 1.67 0 3.34-.66 5-1.99h5.01l-.34-2.32c0-.67-.33-1.33-.33-2-.34-.99-.34-2.32-.34-2.98 0-.33.67-1 1.34-1.33 2.33 1 4.67 2 7 3.32 0 .33-.33.66-.67 1-4.66 2.65-8.67 8.96-8 14.6 1 7.31 2.34 14.62 3.67 21.92.67 3.66 1.33 7.64 2 11.63.67 3.98 1.33 8.96 2 13.94 0 .67 0 1.66-.33 2C1495 492.36 1491 495 1486 498Zm-8.67-23.58 5.67 1.33 5.66-25.24-6-1.66-5.33 25.57ZM881.07 356c0-1-.34-2-.34-2.99 0-.33.34-1 .67-1.32.33-.34.33-.67.66-1l.66-1.33-1.32-1c-4.63-3.64-10.6-5.3-16.55-5.3-4.96 0-9.92 1.32-14.89 3.65a20.33 20.33 0 0 1-1.65-3.98c-1.99-5.31-6.29-7.3-10.26-9.3-1.32-.66-2.65-1-3.64-1.99l-.33-.33h-1.65c-.66 0-1.66-.33-2.65-.33-4.3-.33-6.62-.67-6.95-6.64-.33-5.64-4.63-9.3-10.26-9.3-2.97 0-5.95 1-8.6 2.66-1 .67-1.99 1.33-2.98 1.66H800v-1.33c1.99-4.64 5.96-6.96 11.58-6.96h.66c5.63 0 9.93 2.98 12.58 8.3 1.32 2.65 3.3 4.64 5.29 6.63l1.65 1.66.67.66h.99c.66 0 1.32-.33 1.65-.33l1.66-.33v-2L831.1 282l-2.98 2.99c-2.97 2.99-5.29 6.64-7.6 10.29a42.16 42.16 0 0 1-6.95 9.62l6.61-14.93.34.33 9.26-15.93-5.3-2.99-8.6 15.93-.99-1c-.66-.99 0-2.65.33-3.64a17.85 17.85 0 0 1 2.32-4.32c1.32-2.98 2.98-5.64 3.97-8.96l-3.64-1.99L808.6 280c0-2.99 1.33-5.3 2.98-7.63 1-2 2.32-3.65 2.98-5.97l.33-1.66-1.32-.67c-.67-.33-1.33-.66-1.33-1.32-.33-1 1.33-3.32 1.99-4.32 1.32-1.99 2.64-4.31 3.64-6.3.33-.67.66-1.66 1.32-2.33 1-1.66 1.99-3.65.66-4.98-2.64-2.98-1.65-4.31.66-7.3 1.66-1.99 3.31-4.31 3.31-7.63v-1l-.99-.66c-1-.66-3.3-1.99-.33-6.64 1.65-2.65 3.3-5.64 4.63-8.3l3.97-6.96c.33-.33.66-1 1.33-1.33.33.33.99 1 .99 1.66l.33.66c.66 1 1.32 1.66 1.65 2.66 1 1.66 1.99 2.99 3.31 4.64l.66.67c1.99 2.32 1.99 2.65.67 3.98-1.33 1.33-.66 3.65 0 4.31.66 1.33.99 2.33.66 3-.33.99-1.66 1.65-2.98 1.98l-2.65 1 1.66 2.32c1 1 1.65 2 2.31 2.99 1.99 2.32 3.64 4.31 4.97 6.63.33.67.66 1.33.66 2.33-.66 0-1.32-.33-1.99-.67-.99-.66-1.98-1.32-3.3-2.32-.67-.66-1.33-1-1.99-1.66l-3.97-2.98.66 4.97c1 6.3 4.96 9.96 8.93 13.94 2.32 2 4.3 4.32 5.96 6.64l-7.94-1.33 1.32 3.32c1.66 4.31 5.3 5.97 8.27 7.3 1.66.66 3.31 1.33 4.3 2.32l1.33 1.33h-2.32c-.33 0-.99-.33-1.32-.33-1-.33-1.99-.66-3.3-.66h-5.96l4.3 3.65 2.98 2.32c2.97 2.32 5.95 4.98 8.93 7.3.33 0 .33.33.66 1h-.33c-3.64-1.66-7.28-3.65-10.92-5.65l-2.98-1.65c-1.98-1-3.64-2-6.62-2.33h-3.63l1.98 3.32c.33.66.66 1 1 1.66.65 1.33 1.32 2.66 2.3 3.65 7.62 8.96 17.88 14.27 27.8 18.59 1 .33 1.66 1 2.65 1.32-8.27 0-20.51-6.3-33.09-16.59l-3.97-3.32.66 5.31 1 8.96c.99 9.63 1.98 19.58 7.28 28.87 3.97 6.97 8.27 8.63 14.88 9.3 9.27 1 19.2 2.32 26.8 9.29 1.33 1.33 3.32 2.32 4.97 2.99-2.65 1.32-4.63 2.65-6.95 3.65-.33.66-1.32.66-1.98.66ZM752.67 362c-.67-.67-1.67-1.33-1.67-1.66-.67-6.33-1-12.65-1.33-18.98v-3.66c0-3.33-.34-6.99-.34-10.32-.33-8.98-1-18.63-1-27.62 0-14.65.34-29.3 1.34-43.27.33-6.33-1.34-10.65-6.34-15.65l4-.33 3-22.3-18 23.3 8-.66-3.33 4.32a199.57 199.57 0 0 0-7.67 9.99 32.98 32.98 0 0 0-3.66 5.66c-1.34 1.66-2.34 3.66-3.67 5.32v-.33c.67-1 1.33-2 2-3.33l3-5c2-4.99 3.33-10.31 5-15.3.67-2 2.33-8 2.33-8l-1.66-.66c-1-.33-2.34-1-2.67-1.33-.33-1 2.33-6 6-12.98l1-1.67-1.67-1c-1.33-.66-2.33-1.66-2.33-2.66-.33-1 .33-2.66 2-4.66a42.53 42.53 0 0 0 4.67-7.65c.66-1 .66-2.33.66-3.33 0-.67 0-1.33.34-1.66.66-2.67 1.66-5.66 2.33-8.33l1.67-5.65H742c-2 0-2.33-.34-2.33-.34s-.34-1 2.66-5.99c1-1.33 2-2.66 3-4.32.67-.67 1.34-1.67 2-2.33l2-2.67-3.33-.66c-2.33-.33-2.67-1-2.67-1s-.33-.67 1.34-2.66c1-1.67 1.33-3.66 1.66-5.33 0-1 .34-1.66.67-2.66.67-2.33 1.67-4.66 2.67-7l.33-.99c1-2 2.67-4.66 1-8.32.67-.67 1.67-2 2.67-3H756c.67 0 1.67-.33 2.33-.33 0 1-.33 1.66-.33 2.66 0 0-.33.34-.33.67s-.34.33-.34.66l-.66 1.34 1.33 1c2.67 2.32 4.33 6.98 4 11.31 0 2.33-.67 4.33-2 5.33l-.67.66v1c-.33 3 1.34 5.33 2.67 7.66 1.33 2.33 2.33 4.32 2 6.32l-4.33-3.66-2.34 1.33-2 1 2.67 4.33c1.33 2 2.67 4.32 4 6.32.67 1 1.33 2 2.33 3 1.34 1.66 2.67 3.32 3.34 5.32 0 .33-.34 1.33-.67 2.33-.67-.33-1-.67-1.33-.67-1-1-1.67-2-2.67-3.32-.33-.67-.67-1-1.33-1.67l-2-2-4.67 2.34.67 1.66c.33.67.66 1.33.66 2.33.67 1.66 1.34 3.66 2 5.32 1 2 2 3.67 3.34 5.33 1.33 2 2.33 3.66 3.33 5.66.33.66.33 1.66.67 2.66l-7.34.33 2.34 3c.33.67 1 1 1.33 1.66 1 1.33 2 2.33 2.67 3.66 0 0 0 .67-.34 1-.66 0-1.33-.33-1.66-.33-1.34-1-2.67-2.33-4-3.66-.67-.67-1-1.33-1.67-1.66l-1.33-1.34-5 3.66 1 1.67c.66 1 1 2 1.66 2.66 1.34 2.33 2.34 4.33 4 6.66 1.34 1.66 2.67 3 4 4.66 1.67 1.66 3 3 4 5 .34.32.34 1.32.67 1.99l-10.33-9.65-4.67 3.66 1 1.66c.67.67 1 1.67 1.67 2.33 1.33 2 2.33 4 4 5.66 1.66 1.66 3.33 3 5 4.33 1.33 1 2.66 2 3.66 3.33.34.33.67 1 1 1.33h-2c-1.66-.67-3.33-2-5.33-3.33-.67-.67-1.67-1-2.33-1.67l-1.67-1-3.67 4.33 4.34 3.66c4 3.33 8 6.66 12.33 9.99l-11-5-7.33-3.32V303.75c.33 11.65 1 23.63 1.33 33.95.33 4 .67 8 1.33 11.99.34 2 .34 3.66.67 5.65 0 .67.33 1.33.33 1.67.34 1 .34 2.33.34 3 0 .66-1 1.32-2 1.99.33 0 .33 0 0 0ZM1421.7 334c-.66 0-1.33 0-1.99-.33-.33 0-.66-.33-1.32-1 6.95-2.99 13.58-10.96 12.25-29.57l-.33-3.65-2.98 2a6.34 6.34 0 0 1-3.97 1.32c-2.65 0-4.64-2-7.29-3.99a5.95 5.95 0 0 0-2.32-1.66c-.66-.33-.99-1-.66-1.66 0-.66.99-1.33 1.32-1.33 1.66-.66 3.31-1.33 5.3-2 1-.32 1.99-.66 2.98-.99l1.66-.66.33-1c-1.32-10.63-2.65-23.59-15.57-30.9-.33 0-.99-.33-.99-.66-.33-1.33-1-2.33-1.33-3.66.67 0 1.33-.33 1.99-.33h.99a66.6 66.6 0 0 1 8.62 5.98l3.97 3 3.65 2.65-.34-4.32c-.99-11.63-7.61-19.93-14.9-27.9-1.66-1.67-2.98-3.33-4.64-5-2.32-2.32-4.64-4.97-6.96-7.3v-1.66c1 .33 1.66.33 1.99.66 3.31 2.66 6.63 5.65 9.94 8.64l5.3 4.98 1.32-1.66c4.31-5.65 4.64-11.96 1.33-17.6-9.61-15.95-20.54-27.91-33.46-36.22l-2.32-1.66c-2.98-2-5.96-3.66-8.61-5.98-.33-.33-.66-1.66-.66-2.33 0 0 1.32-.66 2.32-.66 1.32 1 2.98 2 4.64 3.32 6.62 4.65 13.58 9.3 19.21 14.62 7.62 7.3 14.24 16.28 20.21 24.25 4.63 6.32 5.29 13.63 1.98 21.93-.33.67-.99 1.33-1.98 2.33l-1.66 1.66-1 1.33 8.62 12.29 1.32-3.99 1.99-4.98c1.66-3.99 3.64-8.3 2.98-14.29-.66-4.98 1.66-10.63 3.64-16.28.34-1 .67-1.99 1.33-2.99 1.32-3.98 3.64-7.3 5.63-11.3.99-1.65 1.99-3.65 2.98-5.3l1.66-3h-14.91c-1.32 0-2.32-.33-2.65-1-.33-.33-.33-1 0-1.99l1-2.99c1.65-4.98 3.31-10.3 5.96-14.28 10.27-14.62 20.54-24.6 32.13-31.57a31.2 31.2 0 0 1 7.62-3.32h.66c.66 0 1.33 0 2.32.33-.33 1-.99 2-1.66 2.66l-7.95 4.98c-4.3 2.66-8.94 5.32-12.92 8.97-8.61 7.65-18.21 16.62-22.52 29.57-.33.67-.33 1.33-.66 2.33l-.67 3.32 1.99.33c1.33.34 2.65.34 3.98.34 5.63 0 10.27-2.66 14.9-5.65.67-.34 1-.67 1.33-1l.33-.33c.33-.33.99-.67 1.32-1.33 1.33-1 2.65-2.33 3.65-2.33.33 0 .99.34 1.32 1 .67.66.67 1 .67 1.33 0 .66-1.33 1.66-2.32 2.32-.67.67-1.66 1-1.99 1.67-10.6 10.63-17.89 23.25-22.86 39.2-.33.66-.33 1.66-.33 2.33v.66l-.33 2.33 7.62-.67c-.33.67-.66 1-.99 1.33-6.3 6.98-10.6 15.95-12.26 27.24-.33 2.66 0 5.32.66 7.98.33 1 .33 1.66.66 2.66.34 1.32.67 2.32 1 3.65l-7.62.66 4.64 21.93 5.3-13.29c2.65-6.97 5.63-13.95 8.61-21.26.66-1.66 1.66-3.66 2.98-4.98.66-.67 1.66-1 2.98-1 0 1.33 0 2.32-.33 2.99l-4.97 11.96c-2.32 5.32-4.97 10.96-6.95 16.61-1 2.33-.67 4.99-.67 7.64v2.33l-5.96 2.99 1.33 2c4.63 7.63 2.65 15.94 0 24.91a34.18 34.18 0 0 1-3.98 8.97c-1.66 3-3.31 4.32-5.63 4.32ZM261.06 456s-1-.66-3.33-4.64c-.33-.67-.33-2-.33-3v-1.65l-.66-19.25c-.67-13.93-1-27.87-1.67-41.47-.33-9.96-1-19.91-1.66-30.2-.34-4.64-1-17.25-1-17.25l-2.66 1.33c-1 .66-2.33 1.32-3.33 1.66-2 1-3.66 2.32-5 2.32-.33 0-1.32 0-2.66-2-1.66-2.31-2.33-4.97-3.32-7.96-.34-1.32-1-2.65-1.34-3.98l-1-2.65-2.32 1.66c-1.67 1.32-3.33 1.99-4.66 1.99-2.33 0-3.66-2.99-4-5.64-1-4.32-1.33-8.63-1-12.94V311h1.34l2 14.6 5.98 2.65v-2.98c0-7.63 4-10.29 10.99-11.95-1.67 2.66-3.33 5.31-4 8.3-.66 3.32.33 6.97 1 10.62.33 1.32.67 2.98 1 4.64l.33 2 2-.34c7.99-1 9.32-7.63 10.32-11.61.66-2.33 1-2.99 1.33-2.99h.33c.33.33 1 2 1.33 3.32.34 5.64.67 10.95.67 16.59 0 3.32.33 6.3.33 9.62 0 2 1 3.98 3 5.97l2 2 2.99-6.31 4-8.96c.66-1.99 1.66-3.98 2.32-5.97 1-2.32 1.67-4.98 2.66-7.3a7.67 7.67 0 0 1 2.33-2.32l.34.33c1 1 2 1.99 2.33 2.65a84.57 84.57 0 0 1 3.66 10.95c.66 1.66 1 3.32 1.66 4.98l1 3.32L301 334.56s0 .33-.33.33c-3 4.98-7 10.95-10.99 16.6-1.33 1.65-2.66 2.64-3.99 2.64-1.66 0-3-.99-4.33-3.31a53.92 53.92 0 0 1-2-4.32l-.33-1c-.33-.99-1-2.31-1.33-3.31l-1-2.99h-4.32l-.33 1.66c0 .33-.34 1-.34 1.33-.33 1-.66 2.32-.66 3.65.66 16.26 1.66 32.52 2.66 48.44 1 17.59 2.33 34.84 3.33 52.43v1.33c0 .66.33 2.32 0 2.65h-.67c-.66 0-1.66-1.33-2.33-2.32l-2-2-2.32-2.31-1 2.98s0 .33-.34.66c-.33 1-1.33 2.66-1.66 4.65-.67 2.99-2.66 3.65-4.66 3.65h-1Zm-2-8.96 6 2 7.65-20.91-6.32-1.33-7.32 20.24Zm5.66-44.46c-3.66 6.97-7.32 14.27-4.66 23.56l.34 1 4.99 1.32 7.32-27.87-5.99-1.66-2 3.65Zm-8.32-.33 4 1.32 2 .67 8.31-24.22-5.32-1.66-8.99 23.89Zm9.32-44.13c-9.98 9.95-10.65 11.61-7.99 25.88l4 .33 7.32-23.9-3.33-2.31ZM43.62 423c-1 0-2-.33-3-1-2.67-1.99-2.67-4.32-2.34-8.3 0-1 0-1.66.33-2.66v-1.66l.34-3-2-.32c-4.34-.67-7.35-1.33-8.35-2.66s-.67-4.32.33-8.97 2.34-9.3 3.34-14.29c.67-2.32 1-4.65 1.67-6.97l1.34-4.99-7.01 4.65c-1.67 1-3 2-4.34 3-1 .66-1.67.66-2 .66-1 0-1.67-1.33-1.67-2-.67-3.98-.67-7.64.33-9.96a381.65 381.65 0 0 1 8.68-20.6 90.1 90.1 0 0 0 3.67-8.3c.33-1 .67-2 1.34-3.33l3.33-8.64-5.34 3.66c-1.33 1-2.67 1.66-3.67 2.66-2.67 1.66-4.67 3.32-7.34 4.65-1.34.66-3 1-4.68 1h-.33v-.34c-.33-1.66-.33-3.32 0-3.99 1.34-2.65 2.67-5.31 4.34-8.3-.67 2-1.34 4.32-1.67 6.98l-.33 4.31 8.68-5.98c5-3.32 9.68-6.3 14.68-9.63h1.67v2l-8 15.94c-3.68 7.3-7.69 14.62-11.02 22.26-1 2.32-1.67 4.98-2 7.64-.34 1-.34 2.33-.68 3.32l-.66 3 3-.67c8.01-1.66 16.02-10.3 18.03-15.95a573.71 573.71 0 0 1 10.68-25.25c1.33-3.32 3-6.31 4.34-9.63.66-1.66 1.33-2 1.67-2h.33c0 .67-.33 2-.67 3-3.34 7.3-6.67 14.61-10.35 22.25l-6 12.63 4.34-1.33c10.34-3 16.69-9.97 17.69-19.6l3 .33-2.67 26.58 4 2 7.35-5.32c0 .33 0 .66-.33 1-1.34 3.31-6.35 7.3-8.68 7.3-3.67-1.33-4-3.65-4-7.97v-12.95l-3.35 2.32c-19.36 13.95-28.7 30.56-28.37 50.5v.66l3.34 3.32 1.33-1c.67-.33 1.34-1 2-1.32 1.34-1 2.68-2 4.35-2.66 8.34-4.65 12.35-11.96 11.68-21.6 0-1 .33-2.32.67-2.99.66-.66 1.67-1.32 2-1.32 0 0 .67 1 .67 1.66-.34 7.97-1 15.28-2 22.26-.34.33-1.34.33-2 .66 0-.33-.34-.66-.34-.66-.34-.67-.67-1.33-1.34-2l-1.67-2.32-1.67 2.32c-3.67 4.99-8 11.96-7.67 20.93 0 3.33 2 5.32 5 5.32.67 0 1.34 0 2.34-.33 1.34-.34 2.34-1 3.34-1.33l2-1h.67c0 .33-.33 1-.33 1.33-.34 0-.34 0-.67.33-.34 0-.67.33-1 .33-1 .34-1.67.67-2.67 1-2 .33-4 1.33-5.68 1.33Zm-20.7-104.65c2.68-4.99 5.68-10.3 9.35-16.28 1.34-2.33 2.67-4.32 4-6.31 2.68-4.32 5.68-8.97 8.02-14.3l3.34-6.97-6.34 4.32c-1 .67-2 1.33-2.68 2a75.62 75.62 0 0 1-6.67 4.31c-1.34.67-3.34 1.33-4.34 1.33a7.92 7.92 0 0 1-1-4.98c3.67-17.94 14.35-32.56 24.03-44.52 4.34-5.31 8.68-9.97 13.02-14.28.33-.34 1-.34 1.33-.67-.33.66-.66 1.33-1 1.66-17.02 16.61-28.37 33.56-34.71 52.5-.34.99-.34 1.99-.34 3.32 0 .66 0 1.32-.33 2.32l-.33 4.32 31.37-20.93v.33l-2 3.99c-4.67 6.64-9.35 13.29-14.02 20.26-7 9.3-13.68 18.94-20.7 28.58ZM1259.84 239.34c-.66-1-1.33-2.66-1.33-3.33 1-4.31 2.32-8.3 3.65-12.62.66-1.66 1-3.32 1.66-4.98l1.99-6.65-5.31 4.32c-1.66 1.33-2.98 2.66-4.64 3.66-3.65 2.98-7.29 5.97-11.27 8.63a13.5 13.5 0 0 1-5.97 1.66c-.99 0-1.33-.33-1.66-.33-1.32-.66-2.98-4.98-2.32-6.97 2.32-10.97 5.64-21.93 8.62-32.23.67-2.32 1.66-4.32 2.99-6.97.66-1.33 1.32-3 2.32-4.66l2.65-5.31-5.31 2.66c-1.32.66-2.98 1.33-3.97 1.99-2.66 1.33-4.98 2.66-7.3 3.32-.66.33-1.32.33-2.32.33H1230v-.66c0-2 0-3.65.66-4.65a556.98 556.98 0 0 1 14.26-23.59c1.66-2.99 3.32-5.65 5.3-8.64.67-.66 1.33-1.66 1-2.65-.33-9.64 3.65-17.94 7.96-26.91 2.32-4.65 4.64-9.64 6.3-14.95l.99-2.66h-5.64c-.66 0-.99-.33-1.65-.33-.67 0-2.32-.33-2.66-.66a6.03 6.03 0 0 1 1-4.65c7.96-12.3 15.91-24.59 23.87-36.22l6.3-9.63c.33-.33.33-.66.66-1 0 0 .33-.33.33-.66H1292c0 .66 0 1.33-.33 1.66-1.99 2.66-3.98 5.65-6.3 8.3-2.65 3.66-5.64 7.31-8.29 10.97-3.65 5.31-6.96 10.96-10.28 16.6-1.32 2.33-2.98 4.66-4.31 7.32l-.99 1.66 4.64 3.65 1.33-1c.99-.66 1.98-1.65 2.65-2.32a96.47 96.47 0 0 0 6.3-5.65c1.32-1.33 2.32-1.99 2.98-1.99.66 0 1.66.66 2.32 1.66-10.61 12.3-18.56 26.9-26.19 48.83l-1.99 5.65 4.97-2.99c1.66-1 3.32-2 4.65-2.99a71.68 71.68 0 0 1 9.61-5.65h1.99c0 .67-.33 1-.33 1.33-16.25 8.3-25.2 22.93-31.83 35.88-1 2.33-2.65 4.32-4.31 6.31-.66 1-1.33 2-2.32 3l-1 1.32 1.99 2.33 1.33 1.33s4.97-3.33 6.63-4.65c4.31-3 8.95-5.98 13.26-9.64l.66-.66c.67-.67 1.99-1.66 2.33-1.66 0 0 .33 0 .33.33.33.66.33 3.65-.67 4.65-7.95 11.3-17.57 26.58-21.55 44.51a48.6 48.6 0 0 0-.99 9.97c0 2.33 3.65 4.32 4.97 4.32h.67l.66-.33c1.99-1.33 3.65-2.66 5.63-3.99 5.97-3.99 12.27-8.3 17.25-13.62 3.31-3.65 4.97-8.64 6.63-13.62.33-1.33.66-2.32.99-3.65.66-2.33 1-2.33 1.33-2.33.33 0 .66 0 1.32.33.67.34 1.33.67 1.33 1 0 .33.33.66-.33 2.33a930.22 930.22 0 0 0-13.93 34.54c-.66 1.33-.33 2.66-.33 4V234.67c0 1 .33 2.66 0 3-.66 1-2.32 1.32-3.98 1.99-.33 0-.33 0-.66.33.33-.33 0-.33 0-.66ZM1753.95 442c-.66-.67-1.32-1.66-1.32-2 0-1 0-2-.33-3-.33-4.99-.67-9.98.66-13.97 2.65-7.32 6.28-14.31 9.59-20.97l3.97-7.99c1.33-3 2.65-3 3.31-3 .67 0 1.33.34 1.99.67-.99 1.33-1.99 3-2.65 4.33-8.6 13.64-17.2 27.96-15.22 45.93Zm28.79-42.94c-1.66 0-3.31-1.33-6.29-5.99v-10.65l-.99-.67c-4.3-2.33-4.63-3-2.32-7.98 1.99-4.33 4.3-8.66 6.29-12.98 1.99-4 3.64-7.66 5.63-11.66.66-1.33.99-2.32 1.65-3.66l1.65-4.66-6.61-.33c-1.33 0-2.32-.33-2.32-1-.33-.33 0-1.33.66-2.33l7.94-12.98 4.31-6.99-1.66-1c-7.28-4.99-2.32-14.64.33-18.3a117.8 117.8 0 0 0 5.63-8c.99-.99 1.65-2.32 2.64-3.32l1.33-1.67-1.66-1.33c-.99-.66-1.98-1-2.97-1.66-1.66-.67-3.31-1.66-3.64-2.66-.34-1-.67-3 .99-8 7.94-22.96 21.18-41.93 39.04-56.24.34-.34.67-.67 1-.67.33-.33 1.32-1.33 1.65-1.33.99 0 1.99.33 2.98.67-.33.66-.33 1.33-.66 1.66-1.66 1.66-3.64 3-5.63 4.33-2.64 2-5.29 4-7.61 5.99-10.26 9.98-18.53 22.3-26.14 39.27-.99 2.33-1.32 5-1.65 7.66 0 1-.33 2-.33 3.33l-.34 1.33 4.31 2.66s3.31-2.66 4.3-3.33c2.65-2 5.29-3.99 7.61-5.99.99-1 1.98-2 2.65-3 .99-1 1.65-1.99 2.64-2.66 0 0 .66-.33 1.33-.33.66 0 .99 0 .99.33 0 0 0 1.34-.33 1.67-3.97 5-8.27 9.65-12.24 14.31-7.28 8.32-12.58 16.98-16.22 26.63l-.33 1s1.65 2 1.99 2.66l.99 1.33 4.96-2.66c3.31-1.67 6.29-3.33 9.6-5 .33-.33.66-.33 1.32-.33 0 .34-.33.67-.33 1l-3.97 4c-1.65 1.33-3.31 2.66-4.63 4.32a77.95 77.95 0 0 0-9.27 12.65l-3.97 6.33 6.62-3.67c5.29-2.66 8.27-4.32 9.26-4.66l-28.12 46.94 3.64 3.66 7.94-3.66v.66c-.66 1.33-1.32 3-2.32 4.33-1.32 2-2.31 4.33-2.98 6.66a15.16 15.16 0 0 0-.33 6.65v5l2.32-.34h2.32c1.98 0 4.3 0 5.95-1 2.32-1.33 4.3-2.66 6.62-3.99 1.66-1 3.64-2.33 5.63-3.33-1 1.67-2.32 3-3.64 4-4.31 3.66-9.6 5.99-13.9 7.65a6.13 6.13 0 0 1-3.31 1.33ZM326.3 333c-2.97-.66-6.28-2.32-7.6-4.31-3.31-4.64-5.63-10.28-7.61-15.25-.33-1 .33-3.65.99-4.31h.33c.33.33.66 1.32.66 1.99.33.66.33 1.32.66 1.99 1.66 3.64 3.31 6.96 5.3 10.27l2.97 5.64 4.97-1v-8.95c0-1 .66-1.99.99-3.31.99.66 1.98 1 2.98 1.99.66.33.99 1 1.65 1.32 1 1 2.31 2.32 3.97 2.66 1 .33 1.98.66 2.98.66 1.32 0 4.3-.33 4.96-4.97 0-.34.99-.67 1.65-1.33 1-.66 2.32-1.66 3.3-2.98 4.3-6.64 5.3-14.26 3.32-23.55-.33-1.99-.66-3.98 0-4.97.66-.66 1.98-1 2.97-1h2.32l-.33-2.32c-2.65-11.94-7.94-23.2-16.21-34.48-.33-.33-.66-1-1.32-1.33-1-1.33-2.32-2.65-2.32-3.65 0-.33.33-.66 1-1 .66-.66.99-.66.99-.66.33 0 .99 1.66 1.32 2.33.66 1 1 2.32 1.65 2.98 8.27 8.62 11.91 20.23 15.22 32.16l1.65 5.31 17.54-38.46-1-1c-.66-.66-1.65-1.32-2.64-1.99-1.66-1.32-2.98-2.32-3.64-3.65-.66-1.32-.33-3.98-.33-5.96v-1c.33-1.99.66-4.31 1.65-6.63.66-1.99 1.65-4.31 2.65-6.63.33-1 .99-2.32 1.32-3.32l1.65-3.98-4.3 1.33c-.66 0-.99.33-1.32.33-.66.33-1.32.33-1.98.66l-1.33.34c-.66 0-1.65.33-2.31.33-.66-1.33-1-2.99-.66-3.65L366 207c3.3-8.3 6.94-16.91 10.91-24.54 8.94-16.58 17.87-29.51 31.1-39.13.33-.33.66-.33.99-.33-19.52 21.55-32.09 41.45-40.36 62.34v.66l4.3 3.65 3.64-3.98c2.32-2.32 4.63-4.97 6.95-7.3.33-.33.66-.99 1-1.65.32-.33.65-1 .65-1 .67-.33 1.66-.66 2.65-1 0 .67.33 1.33 0 1.67-.66 1.65-1.65 3.31-2.65 4.97-.99 1.66-2.31 3.65-2.97 5.64a512.47 512.47 0 0 0-9.93 25.86 6.6 6.6 0 0 0 .33 3.65c0 .33.33.66.33 1l.33 1.98 3.31-.66c1-.33 1.99-.33 2.98-.66 1-.34 2.32-.34 3.3-.67 0 1.33 0 2.32-.32 3.32a71.23 71.23 0 0 1-4.63 8.62 125.56 125.56 0 0 0-5.63 11.6c-2.64 6.3-4.96 12.6-6.94 18.57-1 2.99-1.99 5.97-3.31 8.96l-3.64-3.32-1.32 1.66-.33.33c-.34.33-1 1-1.33 1.99 0 1.66-.33 3.32-.33 4.97 0 3.32-.33 6.64-.99 9.95-.66 2.32-1.98 4.64-3.64 7.3l-1.98 2.98c-.67 1.33-1.66 2.65-2.32 3.65l-1 1.66c-2.3 3.64-4.95 5.3-8.6 5.3-1.31 0-2.3-.33-3.96-.66l-1-.33-1.32 1-.99.99c-.66 1-1.32 1.99-1.65 3.31 0 1.33-1 2.99-1.33 3.65ZM1095.33 286c-1.33-.67-2-1.66-2.66-2.33-1.67-2.66-2-5.99-1-9.65 1-3.33 2-6.65 3.33-9.65.67-1.33 2.33-6.32 2.33-6.32l-2-.67c-.66-.33-1-.33-1.66-.33H1091l3.67-2.66c3.33-2.33 6.33-4.66 9.33-6.99.67-.33 1-1 1.33-1.33 0-.33.34-.33.34-.33.66 0 1.33-.33 2.33-.33 0 .66 0 1.33-.33 1.66-1.67 3.33-3.34 6.32-5 9.65-2 4-4 7.65-6 11.64-2.34 4.66-4.34 10.65-1.34 17.64 0-.33 0-.33 0 0Zm-9.33-28.62c-1-2.99-1.33-6.65-.33-8.65 3.66-7.32 8-14.64 12.33-21.96 1.33-2.33 3-4.99 4.33-7.32a28.06 28.06 0 0 1 2.67-4l1.33-1.99 2.34-3.66-4.34.67h-2c-1.33 0-3.33-.34-4-1.33-.66-1-.66-3 .34-5.66 1.66-4 3.66-7.65 5.66-11.64 1-1.67 1.67-3.67 2.67-5.33l5.67-11.98-5.34 2.33c-1 .33-2 1-3 1.33-1.33.67-2.33 1.33-3 1.33-1 0-2 .34-3 .34-1.33 0-2-.34-2-.34-1.33-1.66-2.33-4.66-2-5.65 3.34-7.99 6.67-16.3 11.34-22.96 10-14.31 20-26.95 30-38.6 4-4.66 9.66-7.99 15.33-11.31 1-.67 2.33-1.33 3.33-2h.67c.67 0 1.33 0 2 .33a5.66 5.66 0 0 1-2 2 107.08 107.08 0 0 0-30.33 27.28c-7.67 10.32-14.34 18.97-20 27.95-2.34 3.66-4 7.66-5.67 11.65-.67 1.66-1.33 3.66-2 5.32l-.67 1.34 3.34 2.66 1.33-.34c.67-.33 1-.66 1.67-.66 1.33-.67 2.66-1.33 4-2.33 5.33-4.33 11-8.65 18.33-14.64.67-.33 1.33-1 1.67-1.66 1-1 2.33-2.33 3-2.33.33 0 .33 0 .66.33-.33 1.33-1.33 4-2.66 5.66-3.34 4.99-7 9.98-10.34 14.97-3.66 5.32-7.66 10.65-11.33 15.97-1.33 2.33-2.33 4.66-3.67 7.32-.66 1.33-1 2.66-1.66 4.33l-2 4.32 4.33-1.33c4-1.33 7-3.33 10-5.32 3.33-2.33 6.67-4.33 10.33-4.66-17 17.97-29 35.93-37.33 54.9l-.67 1.33 4 4h-.66c-1.34 0-2.67.33-3.67.33l1-.34ZM431.67 466c-.67-1.33-1.67-2.67-1.67-3.67-1.33-7-2-14-2.67-20.33-.66-6.33-1.33-12.33-2-18.67a430.46 430.46 0 0 0-2.33-21.66c0-1.34-1-2.34-1.67-3-.33-.34-.66-.67-.66-1-.34-.34-.34-1-.67-1.34 1.33 1 2.33 2 3.67 3 3.33 3 7 6 10.66 6h3c4.34 0 8 1.34 12.34 3l1 .34a12 12 0 0 0 3.66.66c6.34 0 13.67-5.33 16-11.66.67-1.34 1-2.67 1.34-4 .33-1.34.66-3 1.33-4 .33-.34.67-1 1.33-1.34l1 2-.33.67a6.29 6.29 0 0 0-.67 2.67c.34 2.33 1 4.33 2.67 6.33l1 1.33c-1-.33-1.67-1.33-2.67-2l-1.66-1.66-1.34 2c-5 7.66-11.66 11-22 11H448l8.33 50c-1.33 0-1.33-.67-2.33-5.34-.33-2.33-1-4.66-1.67-7.33l-1-4.33h-4c-3 12.66-3 13-15.66 22.33.33 0 0 0 0 0Zm10-39.33c-1.34 4-2.67 7.66-4.34 11.33-3 7.33-6 14.33-6.33 23v2.33l2.33-.33c6-1 7.34-4.67 8.34-7.67 0-.33.33-1 .66-1.33.67-1.33 1-3 1.34-4.67 1-4.33 1.66-6.66 5.66-7.66l2.34-.67-8.67-20-1.33 5.67Zm-12 4.33 8.33-21.33-13.33-6.34 5 27.67ZM481 402.67c-.67 0-1 0-1.67-.34l1.34-2.33c4-7.67 3.66-15.67 3.33-23.33V372c0-.67.33-1.33.67-2 .66.33 1 1 1.33 1.33V375c0 7.67 0 16-1.33 23.67-.67 1.66-1.67 4-3.67 4Z" fill="#485143"/><path fill-rule="evenodd" clip-rule="evenodd" d="M1404 166c-9.27-10.64-16.22-22.94-22.85-34.91-3.31-6.32-7.94-11.97-11.92-17.62-2.31-3-4.3-5.99-6.62-8.98-.66-1-1.32-2.33-1.65-3.66-.33-.66-.33-1.33-.67-1.66 0-.33-.33-.66-.33-1-.33-1-.66-2-1.32-2.99-1.33-1.66-2.65-3.66-3.97-5.32-2.32-2.99-4.31-5.65-6.3-8.98-.33-.66-.33-1.99-.33-3.32h1.33c.66 0 1.65 0 2.32.33 2.98 1 5.62 2.33 8.6 3.66 1.33.66 2.98 1.33 4.64 2l4.97 2.32-2.32-4.99c-5.63-11.96-13.58-19.28-23.18-26.93-8.61-6.98-19.2-11.63-31.12-14.3-.66 0-1.33-.33-2.32-.33H1307.65c-.99 0-1.66-.33-2.65-.66.33-1 .99-2.33 1.32-2.33.67-.33 1.66-.33 2.65-.33 1.33 0 2.65.33 3.98.33 14.57 2 27.81 8.98 40.39 21.28 8.61 8.31 14.24 15.96 18.21 24.27 1.33 2.66 1.66 3.33 0 4.99-1.32 1.33-1.98 1.33-2.65 1.33-.66 0-1.32-.33-2.65-1-.66-.33-1.65-.66-2.64-1-.67 0-1.33-.33-2.32-.66l-6.62-2 9.6 10.98c4.3 4.98 8.61 9.97 12.58 14.63.33.33.33 1.66.33 2.32 0 .67 0 1.67.33 2.33 0 .33 0 1 .33 1.33.33 1.33.33 3 1.33 4.32 9.27 17.3 17.21 32.25 24.83 46.55ZM99.93 459.53c-1.67-.67-2.68-1.33-3.68-2-2.01-1.66-3.01-3.32-3.35-4.32-1.34-9.32-2.34-18.97-3.68-28.3-.34-3.99-1-7.98-1.34-11.64 0-1-.67-1.33-1-2l-.34-.33-1.34-1.33-1.67 1.33-.67.67c-.34.33-.67.66-1 .66l-2.02 1c-1 .67-2.34 1.33-3 1.33-1.68-1-3.36-3.33-3.7-5-.33-4.32 0-8.98 0-13.3 0-2.33.34-4.66.34-7v-5.32c0-3-.33-5.65 0-8.32 0-.33.67-1 1.34-1.66.67.67 1.34 1.66 1.34 2 .34 3.66.67 7.32.67 11.31v4.66c-5.36 4.33-3.35 9.32-2 12.98.66 1.33 1 3 1.33 4.33l.34 3 2.67-1.67c5.03-3 6.03-7.32 6.37-11.32 0-1 .66-2.33 1.33-3.66 1.34.67 2.68 1.33 3.69 2.33a9.19 9.19 0 0 1 2 2.66c.34.67 1.01 1.33 1.68 2l2.34 3 2.35-5.33c.67-1.33 1-2.33 1.34-3.33.67-1.66 1.34-2.33 2-2.33.34 0 .67.34 1 .67 2.02 3.66 4.7 5.32 7.7 5.32 1.68 0 3.36-.66 5.03-1.33-1.67 2.33-4.35 3-6.36 3-2 0-4.02-.34-6.03-1l-1.67-.67-6.03 10.99 9.04-.67c0 1.67.34 3 .34 4.66.33 5 .67 9.65 1.34 14.31l2 12.98c.68 3.66 1.34 7.65 1.68 11.31v3l-5.36-3-3.68 5.66c-.67.33-1 0-1.34-.33Zm-1.67-45.26c-3.35 8.32-7.37 17.97-4.02 28.29l4.02-.34 4.01-26.95-4.01-1ZM1931 345c-.33 0-.33-.33-.33-.33-1-1.67-2-3.33-2.67-5.32-1.67-3.33-3.33-6.99-6-9.65a469.5 469.5 0 0 0-17.67-18.62l-5.33-5.32c-1.67-2-3.67-3.65-6-5.65-1-1-4-3.66-4-3.66l-1.33.67c-1 .33-2 .66-3 .66-3 0-5.67-1.66-9-3.65l-2-1v-1l13.66 4.32-.33-3.32c-1-8.31-5.67-14.3-10.33-20.28-3.67-4.66-7-8.98-8.34-14.3 0 0 .34 0 .34.33 1.33.66 3 1 4 1.66 4.66 2.66 9.33 5.65 14 8.65l7.33 4.65 3.67-4.32-.67-1.33c-1-1.66-2-3.66-3-5.32a233.38 233.38 0 0 0-7.33-11.97c-6.34-9.31-12-17.96-18.34-26.27-3.66-4.66-8.66-10.97-17.33-11.64 0 0-.67-1-1-1.66.33-.33 1.33-1 1.67-1.33 1 .66 2 1 3 1.33 4.66 2 9.33 4.32 12.66 7.65 14.67 16.3 25.67 36.24 35.34 53.87v1.66a6.2 6.2 0 0 1-3.34 1.33c-3-.67-5.66-1.66-9-2.66-1.33-.33-2.66-1-4.33-1.33l-4-1.33 1.67 3.99c1 2.32 2 4.65 3.33 6.65 2.67 4.32 4.67 8.31 3.33 12.63l-.33 1.33 3 2.33c15 11.64 29 22.61 36.67 39.57.33 3 1 5.32 1.33 7.98ZM174 292.67c0-.66 0-1.99.33-1.99a731.53 731.53 0 0 1 17.18-15.55l6.28-5.62c1.65-1.32 9.58-8.6 9.58-8.6l-1.98-1.65a9.38 9.38 0 0 1-2.98-3.31l2.65-.66c8.59-2.32 15.53-10.26 15.86-17.54v-1c.66-.98.99-1.98 1.65-3.3.33 1 .66 1.66.66 2.65l.99 8.93c0 1.32.66 5.96.66 5.96l1.98-.34c3.97-.66 7.27-1.98 8.92-4.3 1.66-2.31 2.32-5.62 1.99-9.26 0-.66.33-1.65.66-2.65.66.66 1.32 1 1.32 1.66 2.31 5.3 3.3 7.6 8.26 7.6h.99c-.33 1-1 2-1.32 2-.66.32-1.65.32-2.97.32H237.1l-.66.66c-.66.67-.99 1.66-1.65 2.32-1.32 1.99-2.64 4.3-4.3 5.3-.65.32-1.31.32-2.64.32-.99 0-1.98 0-2.97-.33h-1.98l-1-3.97-2.64 2.32-7.26 6.29a339.46 339.46 0 0 0-16.52 14.22c-3.97 3.64-7.6 7.28-10.9 10.92-2.98 2.98-5.62 5.95-8.6 8.93-.66-.33-1.32-.33-1.98-.33Zm28.08-36.72c-1.98-3.64-1.65-7.94-.99-13.24.33-1.65.33-3.64.33-5.29l.33-6.95-3.96 5.63c-1 1.32-1.98 2.64-2.64 3.64-1.66 2.31-2.65 3.97-4.3 5.29-1 1-2.64 1.65-4.63 2.32-.33 0-.33.33-.66.33-.33-.33-.33-.67-.66-1-.99-1.32-1.98-3.3-1.98-3.97a122.96 122.96 0 0 1 6.6-22.5 96.14 96.14 0 0 1 5.96-11.57c.66-1.32 1.32-2.32 1.98-3.64 1.32.66 1.65 1 1.65 1.32.33.67-.66 2.65-1 3.64-3.96 7.61-7.26 15.55-10.56 23.16l-1 2.65a7.29 7.29 0 0 0 .67 6.28l1.65 2.98 5.28-7.28c2.98-4.3 5.95-8.27 9.25-12.57.34-.66 1.33-1 2.32-1.32.33.66.33 1.32.33 1.98-.66 6.29-1.65 12.9-2.65 19.85l-1.32 10.26ZM1539 243.69c-5.3-11.93-13.9-21.87-21.85-31.15l-1.32-1.65c-2.32-2.65-3.64-4.64-2.65-7.3l15.23 12.6 4.96-4.64-16.22-22.2c-.66-1-1.32-1.66-1.98-2.32a31.27 31.27 0 0 1-3.98-5.96c-.33-.67 0-2 0-3.32 1.33 0 2.32.33 2.98.67 2.98 2.32 5.96 4.97 8.94 7.62a86.07 86.07 0 0 1 5.63 4.97c.99.99 2.32 1.32 3.31 1.65.33 0 .66.33 1.32.33l1 .33 4.63-2.64-.66-1.66a28.07 28.07 0 0 1-1.66-5.63c-1.32-4.31-2.65-8.95-5.29-12.6-6.29-8.28-13.91-16.56-22.84-25.18-2.98-2.98-7.95-3.97-12.25-4.63l-1.99-.33c-.66 0-1.32-.34-1.65-.34-.34 0-1.33 0-1.66-.33v-.33c.33-1 2.32-2.65 3.31-2.65h.99c5.96 0 11.59 2.32 16.89 6.96 15.56 13.91 24.82 27.83 28.47 43.07.66 2.98.33 5.63-.67 7.29-1.32 1.99-3.97 2.32-5.62 2.32-1 0-1.66 0-2.65-.33l-4.64-.66 2.65 3.97c8.28 12.92 6.95 15.57.99 19.55l-1.65 1 .99 1.65c1 1.66 1.66 2.98 2.65 4.64 3.97 6.62 7.61 13.25 8.28 20.54-1-1.32-1.66-2.32-1.99-3.31ZM254 317c-3.67-1-3-5.97-2.67-7.96 1-4.64 1.67-9.61 2.34-14.26.33-1.98.33-3.97.66-5.63l.67-4.31-3.67 2.32c-2.66 1.66-5 3.31-7.66 4.97-6.34 3.98-13 8.3-19.34 12.6-1 .66-1.66.66-1.66.66-.34 0-1-.66-1.67-1.65l2.33-1.66c4.34-2.98 8.67-5.97 12.67-8.62 1.33-1 3-2.32 4-4.31 1.67-3.98 3.33-7.96 5-12.27 2.67-6.63 5.33-13.26 8.33-19.9.34-.99 1.67-1.65 3-2.65l.34-.33-14 28.52 5 2.98 1-1.33c.66-.66 1.33-1.65 2-2.32 1.66-1.99 3-3.65 4.66-5.3.67-.67 1.67-1 3-1.66.34 1 .67 2.32.67 2.98-1 6.3-2.33 12.94-3.67 19.24-.66 2.98-1 5.63-1.66 8.62V310.04l4.66 2.32 3.67-6.3c2.33-3.98 4.67-7.96 7-11.6.67-1.33 1.67-2.33 2.67-3.65 1 1.32 2 2.32 2.66 3.64 1 2 1.67 3.98 2.67 5.64 1 2.65 2 5.3 3.33 7.63 1 1.98 4.34 2.65 5.67 2.65 1 0 1.67-.33 2.33-.67 4-3.31 8.34-6.96 12.34-11.27 1.33-1.66 1.33-3.98 1-5.97v-.33c0-1-.34-1.99-.67-2.98-.33-1-.67-2-.33-2.65 0-.67.66-1.33 1.33-2 .33.34 1 1 1 1.33.33 1 .67 2.32 1 3.65.33 1.66.67 2.98 1 4.64 1.33 2.99 2.67 6.3 6 6.3 1.67 0 3.33-1 5-2.32 0 .66-1 1.99-1.67 2.65-1.66 2-3 2.65-4.33 2.65-2 0-4.67-1.98-6.33-3.97l-1.67-1.66-9.67 12.27c-1.66 1.99-4 4.3-7 4.3s-5.33-2.31-7-4.3c-1.66-2-3-4.31-4.33-6.64a22.3 22.3 0 0 0-2.33-3.64L270 297.1l-1.67 2.65c-1 1.32-1.66 2.65-2.33 3.64-2 2.99-3.67 5.64-5.67 7.96-3.33 4.31-5.66 5.64-6.33 5.64ZM1552.6 441c-2.32 0-4.96-.67-7.94-2.33 0 0-.33-.34-.66-.34 1.65.34 3.31.67 4.96.67 3.31 0 5.62-1.33 7.61-4.33 4.29-7 4.29-12-.34-18a8.8 8.8 0 0 0-1.65-2c-.99-1.34-1.98-2.34-2.64-3.67-.33-.67-.33-1.33-.33-2.33.99 0 1.98.33 2.64.66.99.34 1.65 1.34 2.65 2.34.33.66.99 1 1.65 1.66.66.67 1.65 1.67 2.64 2.34l5.63 5 .33-4.34c.66-15-2.98-27-11.25-37.33-.33-.67-.99-1-1.65-1.67-.99-1-2.64-2.66-2.64-3.66 0-.34.33-1 .99-1.34.66-.33.99-.66 1.32-.66.66 0 1.98 1.33 2.65 2.33.66.67 1.32 1.67 1.98 2 3.31 3.33 6.94 6.67 10.25 10l4.96 5 4.3-3-.33-1.33c-.33-.67-.33-1.67-.66-2.34-.33-2-.66-3.66-1.66-5.66-6.94-14.67-15.54-31.67-27.44-46.67-1.32-1.67-3.31-4-2.98-5.33 0 0 0-.67.66-1 .66-.67 1.33-.67 1.33-.67.66 0 1.98 1.67 2.64 3 .33.67.66 1.33 1.32 2 12.9 18 22.16 34.67 28.77 51.33.33 1.34.99 2.34 1.33 3.67.33 1.33.66 2.67 1.32 4 1.65 4.67-.33 5.33-.99 5.67h-1c-.99 0-2.31-.34-3.3-.67-.66-.33-1.33-.33-1.99-.67-.33 0-.66-.33-1.32-.66-.33-.34-.66-.34-.99-.67l-3.31-1.67.66 10.67c.33 5.67.66 11 1 16.33 0 3.34-1 5-3.64 6-1.66.67-2.98 2.34-3.64 5.67-3.97 10.67-8.27 12-11.24 12ZM199.1 157c-.67-1-1-2-1-2.65-.66-9.96 1.99-19.25 8.28-27.88 4.31-5.97 8.29-12.27 9.28-20.23.33-2 1.33-4.32 2.32-6.64.66-1.33 1.33-2.32 1.66-3.65l1.99-4.65-4.64 2c-.67.33-1 .66-1.66.66-.66.33-1.33.66-1.99.66h-1.99c-.99 0-1.65 0-1.98-.33 0-.66 0-1.99.33-2.65 5.3-14.6 13.25-28.2 23.86-40.15l10.93-12.94c5.63-6.64 11.6-13.6 17.56-20.24 2-2.32 4.97-3.65 8.29-5.31 0 0 .33 0 .66.33-24.52 21.9-43.08 45.79-56.33 72l-.66 1.33 3.64 3.32s10.94-9.63 13.92-12.28l1-1 .65-.66h1.33v.67a178.97 178.97 0 0 1-6.3 10.61c-2.65 4.65-5.63 9.3-8.28 13.94-1 1.99-1.66 3.98-2.65 5.97-.33 1-.66 2-1.33 3.32l-1.32 3.32 3.31-.34h1.33c1.65 0 2.65.34 3.31 1 .66.66.33 1.66.33 2-.33 1.65-3.31 3.97-4.3 3.97h-.34c-6.3 0-8.94 4.32-10.93 7.97l-.66 1c-3.98 6.3-8.29 14.92-7.63 25.2.34.67.34 1.34 0 2.33ZM340 153.67c-2.67-4-5.67-7.67-8.67-11.67a93.4 93.4 0 0 0-5.33-6.67c-2.33-3-5-6-7-9.33-.67-.67-.67-1.67-1-2.67 1.33 0 2.67 0 3.67.34.33 0 1 .33 1.33.66 1 .67 2.33 1.67 4.33 2l4 .67c-.33 1-.66 2-1.33 2.67-1 1.66 0 3.66 1 5.66.33.34.33.67.67 1 1 2.34 2.33 4.34 3.33 6.67 2 3.67 4 7.33 5.67 11 0 .33.33.67.33 1l-1-1.33Zm-10.33-30c-1-2-2.34-4.34-3.34-6.34-2.33-5-5-10-8-14.66-2.66-4.34-5.66-8-8.66-12-2.34-3-4.34-5.67-6.67-8.67-.67-1-1-2.33-1.33-4v-.67c.66-.33 1.66-1 2-1.66l1.33 2c2.33 3.33 4.67 7 6.67 10.33 5.33 8 10.33 15.33 14.66 23l1 1.67c3 5 5.67 9.66 4 14.66l-1.66-3.66Zm-7.34-44c-1.33 0-3 0-4-.34-2.33-1-5-2-7.33-3.33-1-.67-2.33-1-3.33-1.67l-1.67-.66c.33-.34.67-.34 1.33-.34.34 0 1 .34 1.67.67 1.33.67 3 1 4.67 1.67 1 .33 2 .33 3 .66l4 1-1.67-4C310.33 53 298 37 281 24c1-1 1.67-1 2.33-1 .67 0 1.67.33 3 1C294 28.33 299 35.33 304 42c.67 1 1.67 2.33 2.33 3.33 6 8 10.67 17 15.34 26l1.66 3.34c.34.66 0 2.66-.33 4.33-.33 0-.33.33-.67.67.34 0 .34 0 0 0ZM478 273.67c-2.67-4-5.67-7.67-8.67-11.67a93.4 93.4 0 0 0-5.33-6.67c-2.33-3-5-6-7-9.33-.67-.67-.67-1.67-1-2.67 1.33 0 2.67 0 3.67.34.33 0 1 .33 1.33.66 1 .67 2.33 1.67 4.33 2l4 .67c-.33 1-.66 2-1.33 2.67-1 1.66 0 3.66 1 5.66.33.34.33.67.67 1 1 2.34 2.33 4.34 3.33 6.67 2 3.67 4 7.33 5.67 11 0 .33.33.67.33 1l-1-1.33Zm-10.33-30c-1-2-2.34-4.34-3.34-6.34-2.33-5-5-10-8-14.66-2.66-4.34-5.66-8-8.66-12-2.34-3-4.34-5.67-6.67-8.67-.67-1-1-2.33-1.33-4v-.67c.66-.33 1.66-1 2-1.66l1.33 2c2.33 3.33 4.67 7 6.67 10.33 5.33 8 10.33 15.33 14.66 23l1 1.67c3 5 5.67 9.66 4 14.66l-1.66-3.66Zm-7.34-44c-1.33 0-3 0-4-.34-2.33-1-5-2-7.33-3.33-1-.67-2.33-1-3.33-1.67l-1.67-.66c.33-.34.67-.34 1.33-.34.34 0 1 .34 1.67.67 1.33.67 3 1 4.67 1.67 1 .33 2 .33 3 .66l4 1-1.67-4C448.33 173 436 157 419 144c1-1 1.67-1 2.33-1 .67 0 1.67.33 3 1C432 148.33 437 155.33 442 162c.67 1 1.67 2.33 2.33 3.33 6 8 10.67 17 15.34 26l1.66 3.34c.34.66 0 2.66-.33 4.33-.33 0-.33.33-.67.67.34 0 .34 0 0 0ZM1287 295h-.33c-.34-.33-.67-1.32-.67-2.98 0-2.98 1-5.96 2-8.27 3.33-9.27 6.67-18.2 10-27.48l3-8.27c2.67.66 3 1.32 3 1.32.33.67-.67 2.98-1.67 4.64l-.33.66c-5 10.92-8.33 20.19-11.33 29.13l-2.34 6.62 5.34-4.64c7.33-5.96 12.33-13.57 15.66-23.17.34-.66.34-1.32.34-2.31 0-.67.33-1.33.33-1.66.67-1 1.67-1.98 3-2.98l.33.33c.67.67 2 1.66 2 2.32.34 3.97.34 8.28.34 12.58v5.63c0 .66 0 1.32.33 1.98 0 .33.33 1 .33 1.66l1 3.97 2.67-3.31c1-1 1.67-1.99 2.67-2.98 1.66-1.99 3.33-3.64 4.33-5.63 2-3.3 3-3.3 3-3.3s1 0 3 2.97c1.67 2.32 3.33 4.63 5 6.62.67 1 1.67 1.99 2.33 2.65l1.34 1.65 4-3.3c2.33-2 4.66-3.98 6.66-5.96.34.99.67 1.65.67 2.64a7.8 7.8 0 0 1-3.67 5.3c-3.33 2.65-5.66 3.97-8 3.97-3 0-6.33-2.65-11-8.94l-1.66-1.98-1.67 1.98c-.67.67-1.33 1.66-1.67 2.32-1 1.66-2 2.98-3.33 3.64-2.33 1.66-5 3.64-7.33 3.64-1 0-1.34-.33-1.67-.66-.33-.33-1-1.65-1-4.63 0-2.65 0-5.63-1.67-8.94l-1.66-3.3-2 2.97c-1 1.32-1.67 2.65-2.67 3.97-2 2.98-3.67 5.96-6 8.6-2.67 3.32-6.33 7.29-10.67 9.94.67.99 0 .99-.33.99ZM378.2 405c-2.64 0-5.61-3.3-6.6-6.6-.33-1.65-.66-2.97-.99-5.28-.33-1.32-.33-2.64-.66-4.3l-.66-4.62-2.97 3.63c-.99 1-1.64 2.32-2.3 2.98a28.71 28.71 0 0 1-3.96 4.62c-1.32.99-3.3 1.98-4.62 1.98-1.98-1-3.62-3.63-3.95-5.61a16.05 16.05 0 0 1 0-5.62c0-2.64 0-5.6-.33-8.9l-.66-4.3-2.97 3.3c-.66.66-1.32 1.65-1.65 2.31-1.32 1.65-2.3 2.97-3.63 3.96a9.8 9.8 0 0 1-4.61 1.65c-1.65-.99-2.64-3.96-2.64-5.6 1.98-15.85 11.21-28.73 19.12-40.28.33-.66 1.32-.99 2.64-1.32-.99 1.65-1.98 2.97-2.64 4.62-6.59 10.9-13.51 22.12-15.16 36.31l-.66 4.3 3.62-2.32a40.64 40.64 0 0 0 14.51-16.5c.33-1 1.32-1.65 2.64-2.31.33 1.65.66 2.97.66 3.96a377.8 377.8 0 0 1-3.63 18.81c-.33 2.31-1.65 8.59-1.65 8.59l5.28 2.97 3.63-3.96c1.97-2.32 4.28-4.63 6.26-7.27.66-.99 1.32-2.3 1.65-3.3.33-.66.66-1.65.99-1.98.33-.66 1.32-.99 1.98-1.65.33.66.99 1.32.99 1.65.33 3.3.33 6.93.33 10.56v3.97c0 2.64 0 8.9 5.6 8.9 1.32 0 2.97-.32 5.28-1.31l3.95-1.98a53.76 53.76 0 0 0 4.3-1.98H396c-.99.33-1.98.99-2.64 1.32-4.28 2.3-8.57 4.62-13.19 6.27-1.32 0-1.65.33-1.98.33ZM1846.01 378c-4.33 0-8-2.65-14.32-9.95l-1-1.32-1.67.99c-.66.66-1.66 1-2.33 1.66-1.66 1-3.33 2.32-4.99 2.98-1.34.67-2.34 1-3.33 1-2.67 0-3.33-2.32-3.33-4.31 0-3.32.66-6.63.99-9.95.34-1.66.67-2.99.67-4.31l.67-5.3-4 3.64c-.67.66-1.67 1.66-2.66 2.32-2 1.99-4.33 3.98-7 5.64-1.66 1-4.33 1.99-6.33 1.99-.66 0-1 0-1.33-.33-.66-.34-1-.67-1-1-.33-1.32 1-3.98 1.67-5.3l1-2.33c6.32-12.6 12.65-24.87 18.98-37.47.67-1.65 1.33-1.99 1.67-1.99.66-.33 1.33-.33 1.99-.66 0 .66.34 1 0 1.33a319.68 319.68 0 0 1-7.66 15.25c-1.99 3.98-3.99 7.63-5.99 11.6-1.33 2.33-2.33 4.98-3.33 7.63-.67 1.33-1 2.66-1.67 3.98l-1.66 4.31 4.33-1.32c6.66-2.32 12.65-7.96 16.98-16.25.34-.33.34-.66.67-1.33.33-.33.66-1.32.66-1.32.34 0 .67 0 1.34.33 1.66.66 1.66 1 1 3.65-2 7.29-4 13.92-5.33 19.56-.34 1-.34 2.32-.34 3.32V367.39l5 2.32 2.66-3.98c1.34-1.99 3-3.98 4.33-5.64.34-.66 1-1.32 1.34-1.65.66.33 1.33.99 1.99 1.99v2.32c1 5.63 3.33 13.6 12.99 13.6 1.67 0 3.67-.34 6-.67h1.33c-.33.66-.67 1-1 1.32-3 .34-5.66 1-7.99 1Z" fill="#485143"/><path fill-rule="evenodd" clip-rule="evenodd" d="M407.92 386c-.99 0-2.31-1-3.3-2.65-1.33-1.99-1.99-4.3-2.98-6.62-.33-1.33-1-2.32-1.65-3.65l-1.32-2.98-1.99 2.65c-.66 1-1.32 1.66-1.98 2.65-1.66 1.99-3.3 4.3-5.3 6.3-.65.99-2.3 1.65-3.3 2.31-2.31-1.98-3.64-3.97-3.97-5.3-.33-2.98 0-5.96.33-9.6.34-1.66.34-3.31.67-4.97l.33-4.3-3.64 2.65-2.98 1.98c-1.98 1.33-3.63 2.65-5.62 3.65-.66.33-1.32.66-1.65.66-.66 0-1-.33-1.32-.66a1 1 0 0 1 0-1.33c3.3-10.93 8.6-20.53 15.2-31.79 0 .66 0 1.66-.32 1.99l-2.98 6.95c-2.64 5.3-4.96 11.26-7.27 16.9l-1.66 4.3 4.3-1.33c5.95-1.99 9.26-6.62 12.56-10.93.67-.66 1-1.32 1.66-2.31.33-.34.66-.67 1.32-1 0 .66.33 1 0 1.33-.66 3.97-1.65 7.61-2.64 11.59-.67 2.31-1 4.63-1.66 7.28-.33 1.33-.33 2.65-.66 3.98 0 .66 0 1.65-.33 2.31l-.33 3.65 3.3-1.66c5.3-2.65 7.61-6.95 9.6-10.6.66-1.32 1.32-2.31 1.98-3.64.33-.66.99-1.32 1.65-1.99.33.67 1 1.33 1 2 .65 3.63 1.31 6.95 1.98 10.92l.99 5.63 1.32.33c.66.33 1.32.33 1.98.33 3.97 0 4.96-3.3 5.63-5.3.33-.66.33-1.32.66-1.98.66-.67.99-1.99 1.65-2.98 0-.33.33-.67.33-.67 1.32.33 2.98 1.33 3.64 2.32 3.63 3.98 5.95 6.3 8.92 6.3 2.65 0 4.96-2 8.93-4.97-2.64 2.98-6.28 6.95-9.92 6.95-2.31 0-4.63-1.32-6.94-3.97-.33-.67-1-1-1.65-1.33l-2.65-2.32-2.97 4.97c-1 1.66-1.99 3.31-3.31 4.97-1 1.99-2.32 2.98-3.64 2.98ZM1456.54 414c-2.34 0-3.68-2.33-4.35-4-1.34-3.33-2.34-7-3.34-11-.34-1.67-1.01-3.67-1.34-5.33l-1-3-2.35 2.33c-1 .67-1.67 1.67-2.67 2.67a86.5 86.5 0 0 1-6.02 5.33c-1.34 1-2.34 1.33-3.34 1.33-2.35 0-3.01-3.33-3.01-4.66-.67-6.34 1.67-12.34 4.01-18.34.67-1.33 1-2.66 1.67-4l.34-1c.66-1.66 1.33-3.33 2.34-4.33.67-.33 1.67-.67 3.01-1 .33 1 .67 2 .33 2.33-1 3-2.34 5.67-3.34 8.67-1.01 2.33-2.01 4.33-2.68 6.67-.67 1.66-1 3.66-1.34 5.33 0 .67-.33 1.33-.33 2l-.34 1.33 4.02 2.34 4.01-5c2.34-3 4.68-6 7.36-9 .67-1 2-1.67 2.34-1.67 0 0 1 1.33 1 2.33.34 2.34.34 4.34.34 6.67s0 5 .33 7.67c.34 2 1 4 2.01 6.33.33 1 1 2 1.34 3.33l1 3 2.34-2.33c6.35-6.33 10.7-11.67 12.04-19.33 0-.34.33-1 1-1.34 1.01.67 2.01 1 2.34 1.67 2.01 3.33 3.68 7 5.69 11 1 1.67 4.01 8 4.01 8-2.34 0-5.02-3-10.03-9l-1.67-2-1.68 2c-1 1.33-1.67 2.33-2.67 3.67-2.01 2.66-4.01 5.33-6.36 7.66-2 2-3.67 2.67-5.01 2.67Zm39.46-16.33c-.67 3.33-3.68 7.33-8.36 10.33-2.01 1-3.01 1.67-4.01 1.67l12.37-12ZM1329.77 180c-.66 0-1.32 0-1.98-.33-1.99-1-3.65-3-5.63-5-1-1-1.66-2-2.65-2.67l-1-1-1.32.67a30.17 30.17 0 0 0-4.31 2.66c-3.31 2-6.95 4-10.59 5.34-.67.33-1.33.33-1.99.33-1.99 0-3.97-1.33-7.29-9.67l-.99-2.66-2.32 2c-.99.66-1.65 1.66-2.65 2.66-1.98 2-3.64 3.67-5.96 5a12.18 12.18 0 0 1-4.97 1.34c-.66 0-1.32 0-1.65-.34-.33-1-.66-4-.33-6 1.32-5 3.64-10.33 5.63-15l.99-2.66c.33-1.34 1.33-1.67 1.99-1.67.33 0 .66 0 1.32.33 0 1-.33 2.34-.66 3.67-.99 3-2.32 6-3.64 9-.67 1.33-1 2.67-1.66 4l-.66 1.67 4.64 2.66 1.32-1.33c.66-1 1.32-2 2.32-3a94.82 94.82 0 0 1 5.3-7c.99-1 2.31-2 3.64-2.67.99 1.34 1.66 3 2.32 4.34v.66c0 .67 0 1.67.33 2.67.33.67.66 1 .66 1.67 1.33 3 2.32 5.66 4.97 6h.99c3.64 0 7.29-3.34 8.61-4.34 1.99-1.66 3.31-4 4.64-6 .66-1 .99-1.66 1.65-2.66 1-1.34 1.66-1.67 1.99-1.67.33 0 .99.67 1.66 1.67 1.32 2.66 2.65 5.66 2.98 8.66.66 5 3.31 6 5.3 6 1.65 0 2.98-.66 4.63-1.33 3.65-1.67 6.96-3 10.6-4.67-3.64 4-11.26 8.67-16.23 8.67ZM273 203c-.67 0-1.33-.34-1.67-.67-.33-.34-.33-1.01-.33-2.02 1-6.38 2.33-11.75 3.33-16.46a286.35 286.35 0 0 1 6-20.83c.67-2.35 1.34-3.02 1.67-3.02.33 0 .67 0 2 1l-6 20.84 3.33 2.35L273 203Zm14-2.35c-.67-.67-1.67-2.02-1.67-2.35 0-1.68 0-3.36.34-5.04.33-3.03.33-5.71 0-9.07l-.67-5.71c1-2.35 2-4.37 3.33-6.72a7.75 7.75 0 0 1 2.34-2.35c.66 1 1.33 2.01 1.33 2.35 0 2.35-.33 5.04-.67 8.06-.33 1.34-.33 3.02-.66 4.7l-1 7.73 4.66-6.38 2.34-3.36c1-1.35 1.66-2.35 2.33-3.36l-2.67 5.7-2 4.38a259.7 259.7 0 0 1-5 9.74c-.66 1-1.33 1.68-2.33 1.68.33.33 0 .33 0 0Zm16.33-1.68c-.33 0-1.66-1-1.66-1.34-.67-2.36-.67-5.04-1-7.73 0-1.34-.34-2.35-.34-3.7l-.66-6.72c.66-.67 1-1.34 1.66-2.35.34-.67 1-1 1.34-1.34.66.34 1.33 1.34 1.33 1.68.33 2.35.33 4.7.33 7.39V190.23H307v.68c-.33 2.35-1 4.7-1.67 7.05-.66 0-1.66 1-2 1ZM1200.61 205c-.33-.33-.33-.66-.33-.66 1.32-10.63-2.32-20.26-11.26-30.22a108.37 108.37 0 0 0-8.93-8.64c-1-1-1.99-1.66-2.98-2.66.66-.33 1.32-.33 1.65-.33a48.35 48.35 0 0 1 6.95 4.32c1 1 2.32 1.66 3.31 2.66 2.65 1.66 4.97 3.32 7.62 4.98l4.96 3.32 4.63-3.99-.99-1.66c-.99-1.66-1.99-3.65-3.31-5.31-2.32-3.99-4.63-7.97-7.28-11.62a995.58 995.58 0 0 0-16.55-22.92c-2.98-3.98-5.62-7.64-8.6-11.62-1.66-2-1.66-2.99-1.33-3.32 0-.33.66-.67 1-1 .33-.33.66-.33.99-.33.99 0 1.98 1.33 3.31 3.32a395.83 395.83 0 0 0 15.55 22.92l8.94 12.95.66 1c3.31 4.64 6.62 9.62 8.94 14.6 1.32 2.66 1.65 4.65 1.32 5.32-.66 1.33-3.31 2-5.63 2.65-.66 0-.99.34-1.65.34l-2.32.33 1 7.3c.66 4.32 1.32 8.64 1.65 12.96 0 1.32-.33 2.65-.99 4.31.66.34 0 .67-.33 1ZM222.38 167h-.67c-.67 0-1-.34-1.34-1-.68-1.01-.34-3.03.33-5.04l2.02-5.03c3.35-7.72 6.7-15.77 10.06-23.83 1.34-3.35 3.36-6.37 5.37-9.72l1.68-2.69c1-1.68 1.68-2.68 2.35-3.35.33-.34.67-.34 1.34-.34v1c-1.68 3.36-3.69 6.38-5.37 9.74-2.35 4.36-5.03 8.39-7.38 13.08a287.9 287.9 0 0 0-6.71 14.77c-1 2-2.02 4.36-2.69 6.37l-.67 1.68 5.37 3.35c-1.34.67-2.68 1.01-3.7 1.01Zm4.7-2.68c.33-.67 1-1.35 1.34-2.02 1-1.34 2.35-3.02 3.36-4.7 2.34-3.69 4.36-7.38 6.7-11.07 3.7-6.37 7.4-12.75 11.42-18.79.33-.67 1.34-1.34 3.02-2.34v27.5l1 .68c1.35.67 2.35 1 3.7 1 3.35 0 5.03-2.68 6.37-4.36.34-.33.67-1 1.01-1.34-1.68 6.04-6.04 9.4-8.73 9.4-4.02 0-7.04-6.04-7.71-15.1l-.34-6.38-3.36 5.37-1.67 2.35c-1.01 1.34-1.68 2.35-2.35 3.35-1.01 1.35-2.02 3.03-3.02 4.37-2.69 4.02-5.7 8.05-8.73 11.74-.67.67-1.68 1.68-3.02 2.01l1-1.67ZM497.21 387s-.33-.33-.65-1c5.93-3.67 5.27-9.67 4.6-14 0-.67-.32-1.67-.32-2.33-.33-4.67-1.65-9-3.3-13-.66-2.34-1.64-4.67-2.3-7-.66-2-.33-4.34-.33-4.67.33 0 .66-.33.99-.33.33 0 1.31.66 2.3 2.66 2.97 6 7.9 8.67 11.86 10l1 .34 3.94-3-.65-1.67a94.67 94.67 0 0 0-4.29-8l-9.88-19a115.06 115.06 0 0 0-6.6-10.67c-1.97-3.33-4.27-6.33-6.25-9.66C487 305 487 304 487 303c.66.33 1.32.67 1.65 1a918.13 918.13 0 0 1 22.4 36.67c1.32 2 2.3 4.66 3.3 7 .65 1.33.98 2.66 1.64 4 1.65 3.66 1.32 6.33-1.32 8.66-.98 1-1.64 1-1.97 1-.66 0-1.65-.66-2.64-1-.66-.33-1.64-1-2.3-1.33-1.32-.33-1.32-.33-1.65-.33h-1.65l-.66 3.33h.33v4c0 4.67-.33 9-.99 13.33-.33 2.34-3.3 4.67-5.27 6.67 0 1-.33 1-.66 1ZM124 306c-9.33-10.57-18-20.16-26.67-30.07 0-.33-.33-1-.33-1.65h1c.67 0 1.33 0 1.67.33a37.6 37.6 0 0 1 7 3.96c1.66 1 3 1.99 4.66 2.65 1 .66 2.34.99 4 .99h2l2.67-.33-1-2.31C108.67 256.44 97 240.9 81 230c.33 0 .67 0 1 .33 2 .66 4 1 5.33 1.98 12.67 10.25 23.34 23.46 32 41.3l1 1.99c.67 1.65 1 2.97 2.34 4.3 1.66 1.98 1.66 3.3-.34 4.95-.33.33-1.33.33-3.33.33h-1c-1.33 0-2.33-.33-3.67-.66-.66 0-1.66-.33-2.66-.33l-5.34-.99 3.67 4.3a35.01 35.01 0 0 1 3.33 3.96 80.39 80.39 0 0 1 6.67 8.26c1.67 1.98 2.67 4.3 4 6.28ZM1277.68 304c-4.96-.33-8.92-2.98-12.22-8.61-.99-1.66-1.65-3.32-2.64-5.3-.33-1-.99-2-1.32-2.99l-1.33-2.65-1.98 2.32c-.99 1-1.98 1.99-2.64 3.31-1.98 2.32-3.63 4.31-5.61 5.64a8.92 8.92 0 0 1-4.96 1.65h-.66c-.33-.66-1.32-2.65-1.32-4.3 0-3.65.66-7.3 1.65-11.27 1.32-5.63 2.97-10.93 4.63-16.56a197.8 197.8 0 0 0 3.63-13.26c.66-2.65.99-2.98 1.32-2.98.33 0 .66 0 .99.33 1.65.66 2.31 1 .99 4.3-2.64 8.62-5.28 17.24-7.6 25.52l-1.65 5.96c-.66 2 .66 3.98 1.65 5.3l1.66 2.32 3.96-6.29c1.98-3.31 3.96-6.63 6.27-9.6.67-1 1.66-1.66 2.32-2.33a8.3 8.3 0 0 1 2.31 2.65c.66 2.65.99 4.97 1.32 7.95 0 1 .33 2 .33 2.99.99 7.29 4.95 12.25 11.89 14.57 0 0 .33.34.33.67-.66.33-.99.66-1.32.66ZM181.22 335c-3.69 0-7.04-3.02-7.7-7.38-.34-2.35-.68-4.7-1.01-7.38 0-1.35-.34-2.69-.34-4.03l-.67-4.03-3.02 2.69c-1 1-2 1.67-2.68 2.68-2.01 2.01-3.69 3.7-5.7 5.03-1 .68-3.02 1.68-4.02 1.68-1.34-1.68-2.35-4.02-2.02-4.7 3.7-10.06 7.72-21.14 13.08-33.55.34-.34 1.34-.67 2.35-1.01l-12.74 30.2 4.7 3.02 4.02-4.36 7.04-8.06c.67-.67 1.34-1 2-1.34.68.67 1.35 1.68 1.35 2.35.33 3.02 0 5.7 0 8.73v4.02c0 5.04 1 8.4 2.68 10.07a6.09 6.09 0 0 0 4.7 2.01c2.34 0 4.69-1 8.04-2.68a27.88 27.88 0 0 0 4.03-2.69c1-.67 1.67-1.34 2.68-2l2.01-1.01c-.34.33-.34.67-.67.67l-1.68 1.34c-3.69 3.02-7.04 6.04-11.06 8.39-2.35.67-4.03 1.34-5.37 1.34ZM945.33 472.64c-.66-1.34-1.33-3.03-2-4.38-1.66-3.37-3-6.73-4.33-9.76l-1-4.05c.67 0 1.33-.33 2-.33h1c3 1.68 5.67 3.7 8.33 5.72 1 .68 2.34 1.69 3.34 2.36l2.66 1.68 3-13.13 11.67 4.04.67-1.69c.33-.33.66-1 1-1.68a78.77 78.77 0 0 1 2.66-5.05c1.34-2.02 3-3.37 4.67-3.37s3.67 1.35 5 3.7c1.33 2.03 2.67 4.38 4 6.4l1 1.69c0 .34 0 .34-.33.67-.34 1.01-.67 2.02-1 2.36-1 1.01-1.67 1.35-2 1.35-.34 0-1-.68-1.34-2.36-.33-1.68-1-3.37-1.66-5.39l-1.34-3.7-4.66.33-1.34 4.05-2 6.06c-.66 1.68-1.33 3.7-2.66 3.7-.34 0-1.67-.33-4-2.02-.67-.67-1.67-.67-2.34-1l-1.66-.68-1 1.68-3.34 7.75-8.33-3.37-2.67 10.78a3.41 3.41 0 0 1-2-2.36ZM356.21 244c-.33-.33-.66-1-.66-1.33l-4.98-9.95c-3.65-7.63-7.63-15.93-11.94-23.56-1.66-3.32-1.33-3.65-.33-3.98 0 0 1.32.66 3.32 1.99 1.65 1 2.98 2.32 4.64 3.65a8.79 8.79 0 0 0 1.99 1.66l1.33 1 3.98-3.32-16.26-26.55c-.66-1-1.32-2-1.66-2.99-1.65-2.65-3.31-4.97-4.64-7.63V171c.66.33 1.33.33 1.66.66 7.96 13.28 15.92 26.55 23.22 40.15 1 2 1.33 3.98 1 4.65-.34.66-1.66 1.33-3.65 1.33h-1.33l-2.99-.33.67 2.98c.66 2.99 1.99 5.97 2.98 8.63 2.32 4.64 4.32 9.29 3.65 14.93ZM1459.68 358a6.9 6.9 0 0 1-6.32-5.04c-.66-2.68-.66-5.37-.99-8.4v-2.68c0-1 0-1.68.33-3.02 0-.67.33-1.35.33-2.02l.67-4.7-3.99 2.69c-1.67 1-3 2.01-4.33 3.02-3.32 2.35-6.31 4.7-9.3 6.38 0 0-.34.34-1.33.34-1 0-1.66-.34-1.66-.34-.67-1-1.33-3.36-1-4.36 3.32-8.06 6.98-16.8 11.63-26.2 0 0 1.33-.33 2-.67.33.67.66 1.68.66 2.01-1.33 3.36-2.99 6.72-4.65 10.08-1 1.68-1.66 3.7-2.66 5.37-.67 1.35-1 2.35-1.33 4.03-.33.67-.33 1.68-.67 2.35l-1.66 5.04 4.66-2.35c7.31-3.7 10.63-9.74 13.63-15.45l.33-.67c.33-.67 1.66-1 2.66-1.68h.33v.34c.33.67 1.33 1.68 1.33 2.35l-1 11.08c-.33 3.36-1 7.05-1 10.75-.33 2.68-.33 5.7 1.33 7.72.67.67 1.67 1.34 3.66 1.34.67 0 1.66 0 2.66-.33 0 .67-.33 1-.66 1.34-1 1.68-2.66 1.68-3.66 1.68ZM162 224c.67-7.3 4-13.93 7.33-20.56l.67-1.33-1-1c-5-4.63-5.67-7.95.33-16.24 5.34-7.3 11.34-14.59 19.34-23.88.33-.33 1.33-.66 2.33-.99 0 1-.33 1.99-.67 2.32a1352.1 1352.1 0 0 0-9.66 12.6c-2.67 3.32-5.34 6.63-7.67 9.95-1.33 1.66-2.33 3.65-3.33 5.64-.34.66-.67 1.66-1.34 2.32l-.66 1.32 3.66 3.65 4-3.65c2-1.65 3.67-3.31 5.67-4.97l2.33-2.32c1.34-1.33 2.67-2.65 4-3.65.34 0 .67-.33 1.34-.33v2.32a82.77 82.77 0 0 1-5.34 5.64c-1.33 1.33-2.66 2.65-4 4.31A92.62 92.62 0 0 0 162 224ZM136 399c.34-.66 1-1 1.34-1.32.34-.34.67-.67 1-1.33a12.43 12.43 0 0 0 3.03-4.97c1-2.65 2.01-2.65 2.35-2.65.67 0 1.34 0 2 .33l2.36 1 .33-2.65c1.68-12.59-4.7-22.52-10.73-31.13h.67c1 0 1.68.66 3.02 1.99.67.66 1.67 1.65 2.68 2.31l.67.67 9.06 19.87 4.03-4.97c1.34-1.66 2.68-3.64 4.02-5.3 1.68-2.32 3.36-4.97 5.37-7.29 3.69-4.96 7.38-10.26 11.07-15.23.33 0 .67 0 1-.33 1.01 1.66.68 2.32.68 2.32-2.69 3.64-5.7 7.95-8.73 11.59-2.34 2.98-4.7 6.3-7.04 9.27-3.36 4.64-6.38 9.27-9.73 13.91l-4.02 5.63c0 .33-.34.33-.34.66-1.68 1-3.02 1.99-4.7 2.98-3.02 2-5.7 3.98-9.39 4.64ZM1473.16 311c-4.3 0-7.61-3.33-7.95-8.67-.66-6 .34-12 1.33-18.33l.33-2 1.99-1c.66 1 .99 2 .99 2.67 0 2.66 0 5.66-.33 8.33 0 2.67-.33 5.67-.33 8.67 0 2.33 1.66 6 4.31 6.33h.99c1.99 0 4.64-1 5.96-2.67a30.28 30.28 0 0 0 3.65-5.33c.99-1.33 1.65-2.67 2.65-4 .66-1 1.65-1.67 2.32-2.33.66.66 1.32 1.33 1.98 2.33.33.33.67.67.67 1v.67l3.64 9.33 2.32-2.33 1.65-1.67c1.33-1.33 2.99-3 3.98-4.67.33-.33.33-.66.66-1 .33 5-2.32 9.67-6.62 12-1 .67-1.99 1-2.65 1-2.32 0-3.98-2.33-5.97-5.66l-1.32-2-3.64 2.66c-1.33 1-2.32 2-3.65 2.67-1.99 3-4.31 4-6.96 4ZM1309.33 235.67h-.33c-3.33-.66-5-3.62-5-9.21 0-4.94.33-9.55 1.33-14.16 0-.65 1.67-2.3 2.34-2.3h.66c.34 0 .67 0 .67.33.33.33.67.99.33 2.3-.33 3.95-.33 7.9-.66 11.85l-.34 6.25 5.34 2.3 3.33-4.93c2-2.96 3.67-5.92 5.67-8.88.33-.66 1.33-1.32 2-1.98.66.99 1.33 1.65 2 2.63.33.66.33 1.32.66 2.3 0 .67.34 1.65.34 2.31 1.66 4.94 4.33 7.57 8.66 7.57 1 0 2.34 0 3.67-.33 2-.33 3.67-.99 6-1.31-2 2.63-4.67 3.62-8.33 4.6-.67.33-1.34.33-2.34.66-.66.33-1.33.33-2 .33-2.33 0-4-1.32-6-3.3a29.9 29.9 0 0 0-5.33-3.61l-1.33-.66-1 1.32c-.34.33-.67.98-1 1.31-.34.66-1 1.32-1.34 1.65-.66.33-1.66.99-2.33 1.31-1.67.33-4 1.65-5.67 1.65ZM406.67 339c-1 0-2.34-.67-3-1.34a6.86 6.86 0 0 1-2-5.04c0-2.35.33-4.7.33-7.06l.33-4.03-3.33-3.02v-.33a83.75 83.75 0 0 1 4-5.71c.33-.68 1.33-1.01 1.67-1.35.33.34 1 1.35 1 1.68 0 2.02 0 4.03-.34 6.38 0 1.35-.33 3.03-.33 4.37v14.78l9-4.37c-2 2.69-5 5.04-7.33 5.04Zm-17.34-13.44c-.33-.67-.33-2.01-.33-2.35a406.4 406.4 0 0 1 8.67-26.53c0-.34 1-1 1.66-1.68l-8 24.18 3.67 1.68a12.08 12.08 0 0 1-2.67 4.03c-.33.34-1.33.68-2.33.68h-.67ZM1164.69 271c-1 0-2 0-2.99-.33-1.67-.34-3.33-2-5.33-3.67-1-1-1.99-2-3.33-3l-.33-.33h-.66c-1.34 0-2.33 1.33-3 1.66-1.33 1.67-2.99 2.67-4.33 2.67-.66 0-.99-.33-1.66-.67-1.33-1.33-2.33-5-2-7.66.67-4.67 2.67-9.34 4.33-13.67.33-.33 1.33-.67 2-1 .33.67.66 1.67.66 2-.33 2.67-1.33 5.33-2.33 8.33-.33 1-.66 2.34-1 3.34l-.66 2 4.99 2 1-1.34c.33-.66 1-1.33 1.33-2 1-1.33 2-3 3-4 .66-.66 1.66-1.33 2.32-1.33 0 0 .67 1 1 2.33.34.67.34 1.34.34 2.34v2.66c.99 5.67 4.32 6.67 6.65 6.67 1 0 2-.33 3.33-.67 3.33-1 6.65-1.66 10.31-2h.67v.34l-1 .66c-4.32 2.34-8.65 4.67-13.31 4.67ZM1797.99 438c-.66 0-1.66 0-2.32-.66-.67-.66-.67-1.66-.67-2.32.33-5.3 1-10.93 2.99-15.9 3.66-8.94 8.65-17.55 12.97-25.83l2-3.97c.66-1.33 2.32-2.32 2.99-2.32h1s.33 1-.67 3.31c-4.99 9.94-9.31 19.87-13.96 29.8l-2.66 5.64c-.34.99-.34 1.98-.67 2.98v1.65l-.66 5.3 8.64-7.95c-1.99 4.64-5.65 9.28-7.98 9.6 0 .67-.33.67-1 .67ZM1573 326c-1.97-3-3.94-6-6.24-9.33-3.94-6-7.88-12.34-12.48-18a63.7 63.7 0 0 0-4.27-5.67c-4.27-6-8.54-12.33-15.76-16-.33-1-.33-3.33 0-4 .32-.67.65-1 .98-1 .33 0 1.32.33 1.97 1.33 1.64 2 3.61 4.34 5.26 6.34a302.96 302.96 0 0 1 12.48 16.33c4.92 7.33 9.19 15.33 13.79 23a79.58 79.58 0 0 0 4.27 7ZM417.49 286c-1.32 0-2.31-3.37-2.64-6.06-.34-2.02-1-3.7-1.65-5.72l-1-3.03-.32-1 1.32-.34.33-.68c.33-.33.33-.67.66-1l1.31-2.7c.33.67.33 1.68.67 2.36.32 3.03.32 6.4 0 9.42v5.72l4.94 1.01 3.96-7.07c1 1.69 1.65 3.37 2.97 4.71a8.91 8.91 0 0 0 3.96 2.02c-1.32 1.35-1.98 1.69-2.64 1.69-.99 0-2.64-.68-4.95-2.36l-1.32-.67-.99 1c-2.3 2.36-3.96 2.7-4.62 2.7Zm-14.52-12.45c-.66 0-1.65-.68-2.31-2.36-.33-1-.66-1.34-.66-1.34a173.2 173.2 0 0 1 4.95-15.82c.33-1.35.99-2.02 1.32-2.36.33-.33.99-.33 1.65-.67 0 .34.33 1.01 0 1.01l-2.97 12.12-1.98 7.74 4.95-1.01c-.33 0-.33.33-.66.33-1.65 1.35-3.3 2.36-4.3 2.36ZM277.93 154c-3.96-.34-4.95-4.4-5.28-6.77a20.31 20.31 0 0 1-.66-4.4 33.66 33.66 0 0 1-.99-7.8c0-.34.66-1.35 1.32-2.03.66.68 1 1.35 1.32 2.03.66 1.7 1 3.73 1.32 5.42.33 1.36.66 3.05 1 4.4.32 1.36.98 2.38 1.64 3.4.33.33.33.67.66 1.35l1.32 2.7 1.98-2.03 1-1.01 1.97-2.03.33 4.06c-.66.34-.99.68-1.65 1.02-2.3.67-3.96 1.69-5.28 1.69Zm17.17-2.03c-2.64 0-5.28-1.02-7.93-3.39l-2.97-2.37c0-.34.33-.34.33-.68.66-1.35.33-2.37.33-3.38v-1.36c.33-1.02 1-1.7 1.65-2.7.67.67 1.32 1 1.32 1.34 1 1.7 1.66 3.73 2.32 5.76.33.68.66 1.7.66 2.37l.33 1.02.99.34c1.32.34 2.3.68 3.63.68 2.3 0 4.29-.68 6.27-1.02a9.42 9.42 0 0 1 2.97-.68c-2.97 2.37-6.27 4.07-9.9 4.07ZM1410.01 399c-1 0-2.33-.33-3.33-2.33-3.67-7-.67-13.67 2.66-19 5.34-8.67 11.33-16.67 17.33-24.67.67-1 2.66-1.67 4-2l.33.33c-.67 1.67-1.33 3.34-2.33 4a78.42 78.42 0 0 0-20.33 32.67c-.33 1.33-.33 2.67-.33 4v4.33l7.33-1c-.67 1-1.33 2.34-2 2.34-.66.66-2 1.33-3.33 1.33ZM824 508c-.33 0-.33 0 0 0-1.97-1.67-3.62-3.67-5.6-5.67l-3.28-3.66-1.65 1.66c-.99 1-1.64 2-2.3 3-.99 1.34-2.63 3.34-3.3 3.67-.32 0-.65 0-.98-.33l1.32-3c.65-1.34.98-2.34 1.64-3.34.99-2 1.98-3.66 2.63-5.33.66-1.67 1.32-2 1.32-2s.66.33 1.32 1.33c2.96 4 5.59 8.34 7.9 12.34L824 508Zm-17.77-1.33c-.98-.67-1.97-1.34-2.63-2.34a18.82 18.82 0 0 1-2.63-2.33l-2.3-1.67-1.32 5c-.66-1-1.65-2.33-1.98-4-1.31-3.66-1.97-9-.65-13.33l11.51 18.67ZM1062.3 342c-.33 0-.33 0 0 0-1.97 0-3.61-.67-3.94-1-1.97-5.38-1.31-7.73-.99-8.4 4.6-9.4 10.18-18.47 15.43-27.2l3.93-7.06c.33-.67.99-1 1.32-1 .98-.34 1.97-.34 2.95-.34 0 .67-.33 1.34-.66 1.68-9.84 11.42-16.73 23.17-21.33 35.6-.32.67-.32 2.01.33 2.68l.66 1.01h.33l2.95 2.35a7.77 7.77 0 0 1-.98 1.68ZM662 341.75a222.87 222.87 0 0 1-12-4.9 9.37 9.37 0 0 0-4.33-.98c-1.67 0-3.34.65-5 2.29-2.34 1.96-4.34 2.94-6.34 2.94-1.66 0-3.66-.65-6-2.29l-2-.98c-1-.65-2-.98-2.66-1.63a7.72 7.72 0 0 1-1.67-4.58c0-.33.67-.99 1-1.31.67.32 2 .98 2.67 1.63l.66.66c.67.65 1.34.98 2 1.63 1 .98 2 1.96 3.34 2.62a9.25 9.25 0 0 0 4.66 1.3c3 0 5.34-1.95 7-6.2.34-.99 1-1.97 1.34-2.95 1 .98 2 1.96 3.33 2.62a77.6 77.6 0 0 0 8.67 5.56l2.33 1.3c.67.33 1 .66 1.67.98a12 12 0 0 1 3.33 2.3c-1 .32-1.67.32-2 0ZM1284.69 243c-.98 0-1.64-.33-2.29-1.32a6.7 6.7 0 0 1-1.31-4.96c1.96-10.25 4.25-20.5 6.22-30.43l.66-2.64c.32-1.33.98-2.65 1.96-2.65.33 0 .66 0 .98.33 1.31.33 1.31.33.66 3.3-1.97 7.61-3.6 14.89-5.57 22.83-.66 2.97-1.31 5.95-1.97 9.26l-.65 2.97 5.57-1.32c-.33 1.32-.66 2.31-1.31 2.98a3.44 3.44 0 0 1-2.95 1.65ZM1293.74 327c-.69 0-1.37-.34-1.37-.34a6.99 6.99 0 0 1-1.37-3.36c1.37-6.4 3.08-12.45 4.79-18.85l.68-3.03a38.1 38.1 0 0 0 1.03-3.36c.34-1.35 1.03-2.7 1.37-4.04.34-.67.68-2.02 1.71-2.02.34 0 .68 0 1.37.34 0 .33.68 2.02.34 3.03-1.37 5.04-3.08 10.1-4.79 15.81l-4.11 13.13 10.61-8.42c-1.71 4.04-5.47 7.4-9.24 10.44l-.34.33c0 .34 0 .34-.68.34ZM1134.41 232c-1.66-1.67-1.66-3-1-5l2.66-9c2.98-10.33 6.29-21.33 9.61-32 0-.33.99-.67 1.66-1 .33.67.66 1.33.66 1.67-2.32 8.33-4.97 16.66-7.62 25-1 3.66-2.32 7.33-3.32 11-.66 2.66-1.66 5.33-2.32 8l-.33 1.33ZM875.59 501l-15.3-4-.66.67c-1 1-2 1.66-3 2.33l2-3c1-1.33 1.66-2.67 2.66-4 .33-.33.66-.67.66-1.33.34-.34.67-1 1-1.34.67.34 1.66 1 2 1.67 1.66 3 3.65 6 8.64 6.67 1.66.33 3.99 2.33 4.32 3.33.33 1-.33 2.67-1 4l-1.32-5Zm-21.95-.33c-.66 0-2.99 0-5.98-6.34-.33-.66-.66-1-.66-1.66-1-1.67-1.67-3.34-2-5.34 0-.66.33-1.33.66-2.33.67.33 2 .67 2 1a44.5 44.5 0 0 1 3.32 8c.34 1 .67 2.33 1.33 3.33l.34 1 3.99 1.67c-1.67.67-2.33.67-3 .67ZM144.77 286.75c-4.24-4.68-2.6-10.69-1.63-12.7 3.58-8.67 7.81-17.69 13.35-28.71.97-1.67 2.28-3.34 5.2-3.34H163c0 .33-.33.67-.33.67-9.44 10.35-14 23.38-17.9 34.73-.65 2-.33 4 0 6.01 0 1 .32 1.67.32 2.67 0 .34 0 .67-.32.67 0 .33 0 .33 0 0Z" fill="#485143"/><path fill-rule="evenodd" clip-rule="evenodd" d="M180 300c13.33-12 27-24 40.33-36h.67v1c-2.33 2-5.33 4.33-8 6.67-2.67 2.33-5.67 4.66-8.33 7C199 284 193.33 289.33 187.33 295c-2 2-4.33 4-6.33 6l-1-1ZM188 306c-1-.67-1-1-1-1s.33-1 1.65-2c3.31-2.33 6.29-5 9.6-7.33 7.27-5.67 14.88-11.34 21.83-17.34l.33-.33c3.3-2.67 5.95-5 9.59-6-1 1-1.99 2.33-3.3 3-2.65 2-5.63 4-8.28 6-3.97 3-8.27 5.67-11.9 9-4.64 3.67-9.27 7.67-13.9 11.67-1.32 1.33-2.97 3-4.63 4.33ZM1236.02 293a4.63 4.63 0 0 1-1.31-1c-7.19-11.89-13.72-22.47-19.93-33.37-.65-1.32-.98-3.64-.65-4.3 0 0 .32-.33.65-.33.66 0 1.96 1.32 2.94 2.31 7.84 7.94 11.76 17.52 16.34 27.77.98 2.31 1.96 4.62 2.94 6.6-.33.34-.65 1.66-.98 2.32ZM146.48 358c0-.67 0-1-.33-1.68-.33-2.02-.33-4.04-1.63-5.72-5.56-9.75-12.1-19.84-21.9-26.9a7.66 7.66 0 0 1-2.3-2.35c-.32-.68-.32-1.01-.32-1.35 0 0 .33 0 .65.34a32.41 32.41 0 0 1 9.48 6.05c8.83 8.07 13.73 18.5 17.33 27.91.65 2.02.65 3.03.32 3.7h-1.3ZM1390.46 494c-.32-.67-.65-1-.32-1.67 0-1 1.64-2.33 2.95-3.33l.66-.67c2.63-2 4.93-4.33 7.55-6.33 3.29-2.67 6.57-5.33 9.53-8 1.64-1.33 2.96-3 4.27-4.67a26.8 26.8 0 0 1 4.27-4.33h.99c.65 0 .98 0 1.64.33v1.34c-1.97 2-3.61 4-5.58 6-7.89 8-15.44 16.33-25.96 21.33ZM1567.66 488a6.33 6.33 0 0 1-.66-2.36c2.96-4.7 6.58-9.75 10.2-14.46l5.93-8.08c.98-1.34 1.97-3.03 2.96-4.7 1.32-2.03 2.3-4.04 3.62-5.73.33-.33 1.32-.67 2.3-.67.33 0 .66.67.99 1l-1.65 2.36c-1.64 2.36-2.96 4.71-4.6 7.07l-.99 1.35a518.93 518.93 0 0 1-16.79 23.55c.33.33-.65.33-1.31.67ZM1448.1 303a2.7 2.7 0 0 1-1.38-.66c-.69-3.3-1.03-6.6-.34-8.91 2.41-7.6 5.86-15.19 8.96-21.79.35-.99 2.42-2.31 2.76-2.64.35 0 .69.33.69.66.35.33.35 1.32-.69 3.3-2.41 5.28-4.48 10.9-6.55 16.18-.69 2.3-3.1 7.59-3.1 7.59l.69.99c.69.66 1.03 1.32 1.72 1.98l.69.66c-1.03.66-2.07 1.65-3.45 2.64ZM969.34 487.33c0-1.66 0-3.33.34-4l2.37-4c6.1-9.66 12.53-20 15.92-31.66 0 0 1.01-.34 1.7-.67.33.67.33 1.67.33 1.67-6.43 13-12.87 26-18.97 38-.34.33-1.01 1-1.7 1.33H969c.34-.33.34-.33.34-.67ZM1649.84 386h-.98c-3.29-.68-9.2-8.83-9.86-13.93 1.97.35 3.61 2.38 5.59 4.76 1.64 2.04 3.61 4.75 6.57 6.11l.65.34c0 1.02-.32 1.7-.98 2.04 0 .34-.33.68-.99.68Zm6.25-6.8c-.33-.33-.99-.33-1.32-.67l-.66-.34V370.72c0-.68.33-1.7.99-2.72.66.68.99 1.36 1.64 2.04.33.34.33 1.02.66 1.7.66 1.35.99 3.05 2.63 3.73 1.31.68 1.97 1.36 1.97 1.7 0 0 0 .34-.33.68s-2.3.68-3.61 1.02c-.66 0-1.32 0-1.65.34h-.32ZM1373.67 492c-.34-.34-.67-.68-.67-1.01a8.71 8.71 0 0 1 2.33-3.71c.67-.68 1.67-1.01 2.67-1.35a11.22 11.22 0 0 0 4-2.03c5.33-4.72 10.33-9.78 15.33-14.5l3.67-3.38.67-.67L1403 464s.33 0 1 .68c1 1 1 1.34 1 1.34 0 .34-.33.68-1.67 2.03l-6.66 5.73c-6.67 5.74-13.34 11.14-20 16.87-.67.34-1.34.68-2.34 1.35h-.66c.33 0 0 0 0 0ZM1229.97 252c-4.33-12.85-11.65-21.75-22.3-26.7 0-.32-.34-1.31-.67-2.3 5.66.33 11.65 3.96 15.98 9.89 4.66 5.93 7.33 12.85 6.99 19.11ZM1410 489.85c.33-.65 1.32-1.63 1.98-2.29l2.63-2.94c5.6-6.23 11.19-12.78 17.12-19 1.98-2.3 2.97-2.62 2.97-2.62.32 0 .65.33 2.3 2.3l-.33.97c-.33 0-.33.33-.66.33-.99.66-2.3.98-3.29 2.3-2.63 2.62-4.94 5.56-7.57 8.18l-10.87 11.8c-.66.65-2.63.97-4.28.97 0 .33 0 0 0 0ZM1591 483c-.33-.66-1-1.65-1-1.98 0-1.31 1.33-2.96 2.33-4.28l.34-.66c4.33-6.6 9.66-13.84 14.66-20.76.34-.66 1.67-1.32 2.67-1.32l1 .99c0 .33-.33.66-.33.66l-4.67 6.92c-2 2.96-4 5.93-6.33 8.9-.67 1.31-1.67 2.3-2.34 3.62-1.33 1.98-2.66 4.29-4.33 6.26-.33.33-1.33 1-2 1.65ZM986 488l3.25-8c.65-2 1.62-4 2.27-5.67 1.95-5 4.22-10.33 6.5-15.66.65-1.34 2.59-2.67 3.24-2.67.65 0 .65.33.65.33.33.34-.32 1.34-.97 3.34-1.95 4-3.9 8-5.52 12-1.63 3.66-3.57 7.33-5.2 11-.32 1-.97 2-1.3 3-.32.66-.65 1.66-.97 2.33l-.98 2-.97-2ZM164 390.67c0-.66.67-1.65 1-2.3 2.33-2.98 5-5.94 7.33-8.91 3-3.63 6.34-7.26 9.34-10.89 1-1.31 2-2.96 3-4.28 1-1.65 1.66-2.97 2.66-4.29H189v1.65c-6.67 8.9-13 17.15-19.33 24.73-1 1.32-2.67 2.64-4.34 3.63-.33.33-.66.66-1.33.99.67 0 0 0 0-.33ZM203 307c0-.33.33-.99.33-.99 5.27-7.89 12.86-12.82 20.77-18.08l3.3-1.97a7.2 7.2 0 0 0 1.64-1.32 10 10 0 0 1 2.31-1.64c.33 0 1 0 1.65.33-.66.66-.99 1.31-1.32 1.64-8.9 6.9-18.46 14.47-28.02 22.03 0-.33-.33 0-.66 0ZM1509.83 439.3c-3.27-2.06-6.55-3.76-9.83-6.15v-.34h.33c4.59 2.38 8.19 4.1 11.47 4.1 4.92 0 8.52-3.42 13.44-9.57.33 0 1.31-.34 1.97-.34h.33c.32.68.65 1.7.32 2.05-1.31 4.78-8.52 10.24-15.08 11.95l-2.95-1.7ZM139 453c0-1.01.33-1.35.33-1.69 1-1.34 2.34-2.35 3.67-3.7 2-1.69 4-3.7 5.67-5.73 2.33-3.03 4.33-6.4 6.33-9.43 1.33-2.03 2.67-4.38 4-6.4 1.33-1.7 2.67-3.38 4-4.05.33 0 .67.34 1 .34v1a86.19 86.19 0 0 0-4.67 7.08c-3.66 6.07-7.33 11.8-13.66 15.5-1.34.68-2 2.03-2.34 3.04a4.64 4.64 0 0 1-1 1.34c-1 1.01-2 1.69-3 2.7H139c.33 0 .33 0 0 0ZM1452.04 236c-.35-.66-1.04-.99-1.04-1.32.69-4.94 2.08-9.89 3.12-14.83.34-2.31 1.03-4.62 1.38-6.6 0-.66.35-1.65.35-2.3 0-1 .34-1.98.34-2.64.69-1 1.73-2.31 2.08-2.31 0 0 .69.99 1.38 1.32 0 .33.35.33.35.33l-5.54 22.09c0 .66-.34 1.31-.34 1.97-.35 1.32-.35 2.31-1.04 2.97.34 0-.35.66-1.04 1.32ZM1018.98 496c-.32-.67-.98-2.02-.98-2.36.33-1.35 1.31-2.36 2.29-3.71.66-.67 1.31-1.69 1.64-2.36 1.31-2.02 2.29-4.05 3.6-6.07l7.87-13.15c0-.34.65-1.01 2.94-1.35 0 .34.66.67.66.67l-.98 2.03-2.62 4.38-12.78 21.25c-.33 0-.98.33-1.64.67ZM1357 491c.99-1.64 2.3-3.29 3.28-4.6 4.27-5.92 7.88-11.51 12.15-16.77.99-.99 2.63-1.97 4.93-2.63.33 0 .98.33 1.64.66-.33.65-.66 1.31-1.31 1.97l-6.9 7.9-2.63 2.95c-.98.99-1.64 1.97-2.62 2.96-1.97 2.3-3.94 4.27-5.91 6.57-.66.66-1.64.99-2.63.99.33 0 0 0 0 0ZM1005 491c.67-1 1-1.67 1.33-2.33 1.34-2.34 2.67-4.67 4.34-7 1-1.67 2-3 3.33-4.67 1.67-2.33 3.67-5 5.33-8 .67-1.33 1.67-2 2.34-2 .33 0 1 0 1.33.33.67.34 1 .67 1 .67 0 .33-1 1.67-1.33 2.33-4 5.34-7.67 10.67-11.34 15.67-.66 1-1 2-1.33 3-.33.67-.33 1.33-.67 1.67-.33.66-1 1.66-1.66 2.33l-2.67-2ZM1101.76 413H1097.83c-3.92 0-6.87-2.9-8.83-8.36.65-.64 1.31-.64 1.64-.64.65 0 1.3.96 1.96 1.6 1.63 2.26 3.6 5.15 7.2 5.15 1.31 0 2.94-.32 4.58-1.29h2.29c-.66 2.9-2.29 3.54-4.91 3.54Zm11.78-.64c-.33-.32-.66-.65-.66-.97-.32-.32-1.96-2.89-1.96-2.89v-2.57c0-.32.33-.64.65-1.29l.99.97c.98 1.28 1.3 2.25 1.3 2.89.33 2.9 0 3.54-.32 3.86ZM1604.46 484c-.33-.99-.65-2.3-.33-2.63 1.63-3.3 3.9-6.58 6.17-9.88.97-1.64 1.94-2.96 2.92-4.6.64-1 1.29-2.3 1.94-3.3a32.34 32.34 0 0 1 3.57-5.59h1.62c0 .33.65.66.65.99l-6.49 10.86a21.76 21.76 0 0 1-2.27 3.62c-1.94 3.29-3.89 6.58-5.84 9.54-.64 0-1.29.33-1.94.99ZM1559.14 478c0-1.32-.32-2.63 0-2.96 4.54-7.57 9.4-14.8 13.94-21.38.33-.33 1.3-.66 2.27-.66l.65.66-.65 1.31c-.97 1.32-1.62 2.63-2.27 3.95-2.59 4.28-10.05 16.12-10.05 16.12 0 .33-.32.66-.32.99 0 .33 0 .33-.32.65-.98.33-1.95 1-3.25 1.32ZM393.71 233.75c-.68-.99-1.71-2.97-1.71-3.3 2.06-5.61 4.8-11.23 7.2-16.84 1.03-1.99 1.71-3.97 2.74-5.62v-.33c.69-.33 1.37-.33 2.06-.66 0 .66 0 1-.34 1.32-3.77 6.28-8.23 13.87-9.6 23.78l-.35 1.65c0 .33 0 .33 0 0ZM1034.37 503l-1.37-1.31a359.07 359.07 0 0 1 11.95-21.36c.34 0 .68-.33 1.37-.33h.34c0 .33.34.66.34.99v.32l-.68 1.32a28.84 28.84 0 0 0-2.39 4.6c-.34.66-1.03 1.64-1.37 2.3-1.71 2.96-3.76 6.24-3.07 10.84-.69.66-2.39 1.64-3.42 2.3-.68 0-1.02.33-1.7.33ZM600 457c0-1 0-2.33.33-2.67 6.23-4.66 9.83-11 13.44-17 .66-1.33 1.64-2.66 2.3-4 1.3-2.33 2.3-2.33 2.3-2.33.32 0 .65.33 1.63 1.33l-3.93 6c-4.92 7-9.19 13.67-16.07 18.67ZM1625.05 487c-.69 0-1.37 0-1.37-.34-.34-.34-.68-2.03-.68-2.36a289.5 289.5 0 0 1 11.93-21.62 2.61 2.61 0 0 1 1.71-.68c.34 0 1.02.34 1.36.68l-.34.33c-.68 1.02-1.02 1.7-1.36 2.37-.69 1.35-1.03 3.04-1.71 4.73a61.38 61.38 0 0 1-3.41 8.44 34.03 34.03 0 0 1-6.13 8.45ZM590.67 452H590c0-.33 0-.67.33-1l1-1.67c3.67-6 7.34-12.33 11.67-18.33 1.33-1.67 3-3 5-4l1 1-3.67 5c-4 5.67-8 11.33-11.66 17a6.25 6.25 0 0 1-2.34 2h-.66ZM1649.72 488a2.57 2.57 0 0 1-.68-1.36c.68-2.7 2.03-5.42 3.38-8.47.34-1.02 1.02-2.37 1.35-3.73l1.02-2.71-8.79-.68c2.37-1.02 4.39-2.03 6.76-2.71.34 0 1.01-.34 1.69-.34 1.69 0 2.7.34 3.04.68.68 1.01.68 3.73 0 5.76-1.69 4.07-4.05 8.14-6.42 12.54-.34.34-1.01.68-1.35 1.02ZM613 460.01a16.4 16.4 0 0 1 1.3-4.27c3.27-5.6 6.54-10.86 9.8-16.12l.33-.33c.65-.99 1.3-2.3 1.96-2.63.65-.33 1.63-.33 2.61-.66 0 .99 0 1.64-.33 1.97a298.98 298.98 0 0 1-8.49 13.16 83.9 83.9 0 0 0-4.57 6.9c-.65 1-.98 1.98-1.63 2.97 0 0-.98-.66-.98-.99ZM265.04 191c-.35-.34-.7-1.01-1.04-1.35 1.73-9.1 3.8-18.2 6.23-26.63 0 0 .35-.67 2.42-2.02l.35.34-1.38 5.05c-1.04 5.06-2.43 9.78-3.47 14.16-.34 1.35-.34 2.7-.69 3.7-.34 1.7-.34 3.38-1.04 5.06a7.37 7.37 0 0 1-1.38 1.69ZM1430 487v-2.7c1.96-3.73 4.58-7.45 6.87-10.84l2.94-4.06.98-2.03c.98-.34 1.96-1.02 2.94-1.36.98-.67 1.64-1.01 2.29-1.01.33 0 .65.34.98.68l-2.94 4.4c-3.93 5.41-7.85 11.17-12.1 16.58-.65 0-1.31 0-1.96.34ZM131 447c-.67-.67-1-1.33-1-1.33s0-.67 1.67-2c3.33-3.34 6-7.34 8.66-11.34l3-5c.67-.66 1-1.66 1.67-2.66 1-1.67 2-3.34 3.33-4.67.67-.67 1-1 1.34-1 .33 0 .66.33 1.33 1.33L131 447ZM429.45 335c-1.35 0-2.37-.67-3.38-2-1.7-2.33-2.71-5.67-3.73-9l-.34-1.33c0-.34.34-.67.68-.67 1.01.33 2.03 1 2.7 1.67v.66c0 .67 0 1.67.69 2.67.67 1.33 1.69 2.33 2.37 3.33.33.34.67.67 1.01 1.34l1.7 2 1.69-2 1.02-1c.67-1 1.35-1.67 2.03-2.67.68-1 1.01-1 1.35-1 .68 0 1.36.33 2.03.67 1.02.33 2.04 1 3.4 1 0 .33.33.33.33.66-1.36.67-2.71 1-4.4 1.67l-.34-.33c-.34-.34-.68-.34-1.02-.67l-2.03-1-.68 2c-1.35 2.67-3.05 4-5.08 4ZM181.15 394c0-1.01-.34-2.36 0-3.04 3.04-7.76 6.08-14.18 8.78-19.92 1.02-2.03 1.7-3.04 2.37-3.04.33 0 1.35.34 2.7 1.69-3.38 3.71-5.4 8.1-7.43 12.5-1.7 4.38-3.38 8.77-6.42 11.81ZM1123.67 300c-1.34-.99-2.67-3.61-2.67-4.93.33-4.6 1.33-9.52 3-14.77.33-.66 2.33-2.3 3-2.3l.33.33c.34.66-.33 2.63-.66 3.61-1 2.96-1.67 5.91-2.34 8.87-.33 1.3-.66 2.3-.66 3.6l-.34 1.98 4.67 1.64c0 .33-.33.99-.33 1.31-1 0-3 .66-4 .66ZM378.33 314c0-.33 0-.33-.33-.33 2.33-9.34 5-19.34 8-30.34.33 0 .67 0 1-.33l-.67 2.67c-1.33 4-2.33 7.66-3.33 11.33-.67 2-1 4.33-1.67 6.33-.66 3-1.33 6-2.33 8.67 0 .67-.33 1.33-.67 2ZM161.34 447c0-.34-.34-1.01-.34-1.35 4.42-7.1 9.18-14.55 14.28-21.31 0 0 .68-.34 1.7-.34h.34c.34.34.34.68.68 1.01 0 .34 0 .34-.34.34l-3.06 4.4c-4.08 5.41-8.16 11.16-12.24 16.57 0 .34-.68.68-1.02.68ZM1610 327.66c-6.33 0-11.67-3.79-17-7.57l-1-.68v-2.07s1-.34 2-.34h1c.33 0 1 .69 1.33 1.38.67.68 1.67 1.71 2.67 2.4 3.67 1.72 7 3.1 11.33 5.16l3.67 1.37c-.33.35-1.33.35-2.67.69-.33-.34-1-.34-1.33-.34ZM94.51 386c-1.3 0-2.29-.32-2.61-.65-1.96-2.59-3.27-5.82-4.57-9.06l-.33-.97s0-.32.33-.32c.65 0 1.3.32 1.3.32.98 1.3 1.96 3.24 2.61 4.86l.98 1.94.66 1.3 1.63-.33c2.94-.65 4.25-2.59 5.55-4.2.98-1.3 1.96-2.27 2.94-2.6-1.3 4.86-3.27 8.1-6.86 9.39 0 .32-.65.32-1.63.32ZM176.71 451c-.34-.33-.34-.67-.68-1.33-.35-.67-1.03-1.67-1.03-2 2.05-5 4.79-10.34 8.55-17.34.34-.66 1.71-1.66 3.42-2.33H188c0 .67 0 1.33-.34 1.67-1.03 1.33-2.06 3-3.08 4.33-3.42 4.33-6.84 9-6.84 15.67-.34.66-.34 1-1.03 1.33ZM999 484c3-7.67 6-15.67 9.67-23.67 0-.33.66-.66 2-1.33l.33.33-1.67 3.67c-1.66 3.67-3 7-4.33 10.33-1.33 3-3.33 7-5.33 10.34-.34.33-.34.33-.67.33ZM360 308c.33-.66.67-1.65 1.33-2.97.67-.98 1-1.97 1.34-2.96 1.33-4.29 3.66-8.57 5.66-12.85 1.34-2.31 2.34-4.95 3.67-7.25 1-2.31 2-2.64 3-2.97l-15 29ZM119.25 437c-.33-.33-.33 0 0 0 4.27-6.57 9.2-14.45 14.45-21.67 0 0 .66-.33 1.97-.33l.33.33-.66.98c-.98 1.32-1.64 2.63-2.63 3.94-3.28 4.93-6.9 9.53-10.5 14.12-.66.99-1.65 1.64-2.63 2.3 0 .33-.33.33-.33.33ZM327.86 296a17.7 17.7 0 0 1-5.1-.96c-1.36-.64-3.4-1.92-4.08-3.2-.34-.64-.34-1.6-.68-2.56 1.02 0 2.04 0 3.06.32 2.04 2.56 4.08 3.52 6.12 3.52 2.38 0 4.42-1.28 6.46-3.84.34-.64 1.02-.96 1.36-1.28 0 3.2-2.38 5.12-6.12 7.68 0 0-.34.32-1.02.32ZM218.57 395.31c-.67-.34-1.69-.34-2.7-.34-1.03 0-2.72-.35-3.06-.69-.68-1.03-1.02-2.4-.68-4.12.34-1.72 1.36-3.44 3.06-5.16l1.01 3.44 7.8 3.78v.34c-.68 1.03-1.36 2.4-2.03 3.44l-3.4-.69ZM195.69 395a5.37 5.37 0 0 1-.69-1.64c2.4-5.57 5.5-11.14 8.25-16.05a7.5 7.5 0 0 1 2.4-1.31h.35c0 1.31-.34 2.3-.69 3.28-2.75 5.9-5.5 10.8-8.25 15.4 0-.33-.69 0-1.37.32ZM583.92 393.02c-.68-1.96-1.7-3.93-1.7-5.56-.34-2.95-.34-6.22.34-9.5 0-.65.68-1.3 1.02-1.96.34.65.68 1.3 1.01 1.64.34 2.29 0 4.9-.33 7.52 0 .98-.34 2.3-.34 3.28v1.63l5.08 1.97-4.74 1.96c0-.65 0-.65-.34-.98ZM1343 490c-.67-.98-1-1.63-1-2.29 0-.65.67-1.63 2.33-2.94a17.09 17.09 0 0 0 3.34-3.59 8.76 8.76 0 0 1 2.33-2.6 28.51 28.51 0 0 1 7-4.58s.33.33 1 .65c-.33.66-.67 1.3-1 1.64-3.67 3.59-7 7.18-10.67 11.1L1343 490ZM317.35 196c-2.28-4.76-3.26-13.6-1.3-17H318v.68c-.32 5.78-.32 10.88-.65 16.32ZM1843 356c-.75-.98-1.5-1.97-1.5-2.95-.75-4.93-1.5-10.5-1.5-16.08 0-.33.37-1.31.75-1.97.75.33 1.87 1.31 1.87 1.64.38 5.25.38 10.83.38 16.08V356ZM1047 506.37l1-3.27a193.5 193.5 0 0 1 4-10.77s.67-.33 1.33-.33c.34.33.67 1.3.67 1.96v.98c0 3.26 0 6.2-1.33 8.81-.67 1.31-2 2.3-3.34 3.6l-.66.65-1.67-1.63ZM90.18 361c-1.7-2-3.76-4-5.47-6.33-.68-1-1.37-2.67-1.71-4.34V349c.68.33 1.37.67 1.71 1a7.24 7.24 0 0 1 1.71 2.67c.69 1 1.37 2.33 2.4 3.33 1.02 1.33 2.73 2 4.44 2.33l.69.34c.68.33 1.37.33 2.05.33-.34.67-.68 1.67-1.03 2-.34.33-1.36.33-2.05.67-.34 0-1.03.33-1.37.33-.34-.33-1.02-.67-1.37-1ZM1362.61 321a5.69 5.69 0 0 1-3.06-.97c-3.75-1.93-6.82-3.87-8.87-6.13a7.37 7.37 0 0 1-.68-2.9c1.36.32 2.73.32 3.41.97a76.83 76.83 0 0 1 8.86 6.45c1.03.64 1.71 1.29 2.73 1.94-.68.64-1.7.64-2.39.64ZM680.38 420s-.63-.33-.94-2.62c-.63-3.27-1.57-6.54-2.5-10.14l-.94-3.93.63-1.31c.62.65 1.25 1.3 1.56 1.96 1.25 3.6 2.81 7.86 3.75 12.11.31 1.31-.63 3.6-1.25 3.93h-.32ZM1121.69 415c1.38-5.67 2.77-11 4.5-16.67.34-.33.69-.33 1.03-.33l.69.67c0 2 .35 4.33-.34 6-1.73 3.66-3.46 7.33-5.53 10.66-.35.67-.69 1.34-1.04 1.67l.69-2ZM1632.33 392.38c-3.66-2.9-7-5.5-10.33-8.4v-.66c.33-.32 1-.32 1.67-.32 3.66 2.26 8 4.85 13.33 8.41v.65c0 .32-.67.65-1.67 1.3l-.66.64-2.34-1.62ZM569.4 391c-.94-.67-2.22-2-2.54-3.33A69.04 69.04 0 0 1 564 376c0-.67.32-1.67.64-2.67V373l.32.33 1.58 1.67c.32 1.67.64 3.33.96 5.33.32 1.34.32 2.67.64 4 .32 1.34.95 2.34 1.27 3 .32.34.32.67.63 1L571 390a6.9 6.9 0 0 0-1.6 1ZM1693.67 446.06a64.93 64.93 0 0 1-8.67-6.8c0-.64.33-1.61.33-2.26l3 .97c1 .65 1.67 1.3 2.67 2.26 1.67 1.95 3.67 4.21 7.67 4.21.33.32.33.65.33.97 0 .32-.67.97-1.67 1.94l-.66.65c-1.34-.65-2-1.3-3-1.94ZM1680.7 385c-.6-.34-.9-.68-.9-1.02-.9-2.37-1.2-5.09-1.5-7.46 0-.68-.3-1.36-.3-1.7v-3.4c0-1.69 0-3.05.3-4.06 0-.34.6-1.02.9-1.36.3.68.9 1.36.9 1.7v3.73c0 1.36-.3 2.71-.3 3.73 0 1.36.3 2.71.6 3.73s.3 2.38.6 3.4c0 1.35-.3 2.03-.3 2.71ZM1626 321a9.6 9.6 0 0 1-3.58-.69 55.18 55.18 0 0 1-9.42-8.57c0-.34 0-1.37.65-2.74h1.3c3.25 3.09 6.17 6.51 9.43 9.94L1626 321ZM643 456c.34-1 .34-2 .68-3 .67-2.33 1.01-4.67 2.02-6.33.34-.67 1.7-1 3.05-1.67a6.7 6.7 0 0 1 0 3.67c-.34 2-1.02 4.33-2.37 6.66-.34 1-1.35 1.67-2.03 2.67l-1.35-2ZM1150.67 234c-.34 0-.34-.33-.34-.33l-1-3.92c0-.33 0-.99-.33-1.31 0-1.31.33-2.3.33-3.6l1-7.86c0-.32.67-.65 1-.98.34.66.67.98.67 1.3-.33 5.24-1 10.48-1.67 15.72.34.32.34.65.34.98ZM627.71 373c-.97 0-2.26-1.7-3.23-3.07l-.32-.35c-1.29-1.7-3.55-4.43-4.84-7.5-.32-.69-.32-1.71-.32-3.08.97 0 1.93 0 2.58.34.32 0 .97 1.03 1.94 2.4a98.44 98.44 0 0 0 4.19 8.19l1.29 2.39c-.64.34-.97.68-1.29.68ZM1710.25 449c-1.5 0-2.25-1.67-2.63-3.33-.75-3.34-.75-7-.37-10.67a8.28 8.28 0 0 1 1.87-1c.38.33 1.13 1 1.13 1.33.37 3 .75 6.34.75 10v3.34s-.38.33-.75.33ZM630 456l.67-2.33c1-3.67 2.33-7.67 3.66-11.34.34-.33 1-.33 1.67-.33.33 0 .67.67 1 1-1.33 4.33-3 8.33-5 12.33 0 0-1.67.67-2 .67ZM692.7 418c-.62 0-1.55 0-2.16-2.28-.62-3.92-1.23-7.83-1.54-12.07 0 0 .62-.32.92-.65.31 0 .62.33.62.65.61 3.92 1.54 7.83 2.15 12.07L693 418h-.3ZM317 427c-1.03-.68-1.72-1.37-2.76-2.39-2.41-2.73-5.17-5.8-7.24-9.22 0-.34.35-1.7.35-2.39h.68c2.76 4.1 5.52 8.54 7.94 12.63L317 427ZM1241.04 424.67c-2.61-.34-5.55-.67-6.86-1.67-2.61-2-2.94-2.33-.65-6 .65.33 1.31.67 1.63 1 .65 2 2.29 5.67 6.53 5.67h.66s.32.33.65.33c0 .33-.33.67-.33 1-.65 0-1.3 0-1.63-.33ZM1147.37 303c-.32 0-.63-.32-.95-.32-1.26-1.95-2.21-4.23-3.47-7.16-.32-.64-.63-1.62-.95-2.27.32-.32.63-.98.95-1.3.63-.65 1.26-1.95 1.58-1.95.63 0 .94 0 1.26 3.25 0 1.95.63 3.57 1.26 5.2.32.98.63 2.28.95 3.57-.63.33-.63.66-.63.98ZM418 237c-3.18-.65-4.59-1.63-4.94-1.95-1.06-2.93-1.06-5.85-1.06-9.1V224l.35.32c.36.66.36 1.63.7 2.6.36 1.3.71 2.6 1.07 4.23.7 1.63 1.76 2.92 2.82 4.55.35.33.7.65 1.06 1.3ZM1228.67 433c-4-1.74-7.34-4.17-10.67-6.6V425h1.67a70.03 70.03 0 0 1 9 5.56c.33.35.66 1.05 1.33 1.74-.33.35-1 .7-1.33.7ZM602.88 395c-1.11 0-2.23 0-2.6-4-.37-2.67-.37-6 0-9.33 0 0 .74-.34 1.12-.67.37.33 1.11 1 1.11 1.33 0 1 0 2-.37 2.67-.37 2.67-.75 6.33 1.86 9.33-.37.67-.74.67-1.12.67ZM648.4 374c-.32 0-.96-.69-1.92-2.74-.64-1.03-.96-1.72-1.6-2.4a20.8 20.8 0 0 1-2.88-5.15c0-.34.32-1.02.32-1.71.64 0 1.6.34 1.6.34 1.6 2.06 3.2 4.8 4.8 7.2.32.69.96 1.37 1.28 2.06-.96 2.06-1.6 2.4-1.6 2.4ZM723.43 452a9.37 9.37 0 0 1-1.43-2.6v-.97c.36-.65.36-1.3.71-1.94.72-1.95 1.08-3.9 2.15-5.52 0-.32.71-.65 1.07-.97.36.97 1.07 1.62 1.07 2.27 0 2.27-.71 4.54-1.79 7.46-.71.97-1.42 1.62-1.78 2.27ZM336.73 427c-1.77-2.6-3.54-5.19-5.31-8.1l-1.42-1.95 1.77-1.95c.71.32 1.06.97 1.42 1.3 1.77 3.24 2.83 7.13 3.54 10.7.36 0 .36 0 0 0ZM502 434a9.98 9.98 0 0 1-3.5-2.91A15.4 15.4 0 0 1 495 423c1.9 1.94 3.18 4.2 4.77 6.8.64 1.29 1.28 2.9 2.23 4.2ZM363.33 435.06l1.34-1.94c0-.33.33-.65.33-.97 0-.33.33-.65.33-.65.34 0 .67-.32 1.34-.65 0 .33.33.97.33.97-.67 1.62-2 3.24-3 5.18l-.67-1.94Zm-5-5.82c-.66-.65-1-1.3-1.33-1.62 0-.33.33-.97.67-1.62l.66 3.24ZM773.33 488s-.33-.32-.33-.65c1-2.59 2.33-4.53 3.33-6.14 1-1.3 2.34-2.6 4-3.56l.67-.65v2.26c-1.67 3.24-4.33 6.15-6.67 8.74h-1ZM196.54 448c-.62-.69-.92-1.37-1.54-2.06v-.34c.3-1.03.3-2.06.62-2.74.3-2.4.61-4.12 1.23-5.83 0-.34.61-.69.92-1.03.3.69.92 1.37 1.23 1.71 0 3.09-.3 6.52-1.23 9.6-.3 0-.92.35-1.23.69ZM675.12 441c-.33-.34 0-1.03 1.3-2.74.65-1.03 1.3-1.72 1.63-3.09a22.54 22.54 0 0 1 2.93-5.48c0-.35.33-.35.33-.69 1.3 1.71.65 3.43-.98 6.17l-.33.69a35.5 35.5 0 0 1-4.88 5.14ZM669.31 412.97c-1.66-2.42-3.31-4.49-4.31-6.9 0-.35.66-1.38.66-2.07.67.35 2 .69 2 1.03 3.64 6.21 4.3 7.25 1.99 8.97.33-.35 0-.69-.34-1.03ZM662.67 460c-2-1.03-3.34-2.41-3.67-2.76 0-1.72 1-3.8 2-5.86.33-.35.33-1.03.67-1.38l.33 1.38c.67 2.76 1.33 5.17 2 7.93-.33.34-1 .69-1.33.69ZM1264.9 413.67a69.51 69.51 0 0 1-2.9-8c0-.34.36-1 .72-1.67.73.33 2.18.67 2.18 1 1.81 3 1.08 5.67 0 9 .36 0 .36 0 0-.33ZM204 447.67l8-5.67c-.35 3.33-2.78 6-6.26 8l-1.74-2.33ZM1695.08 389c0-2.33-.33-4.67.34-6.67.33-.33 1.66-1 2.33-1.33.33 1 .33 2 0 2.67a19.39 19.39 0 0 1-2.67 5.33ZM1721 448l-1-.95c.67-1.58 2-3.16 3-4.73 0 0 0-.32.33-.32l1.67 1.26-4 4.74ZM679 461.3c1.33-2.12 3-3.89 4.33-5.3.34 0 .67.35.67.35l-4.33 5.65c0-.35-.34-.35-.67-.7ZM520 428a8.65 8.65 0 0 1-3.86-1.9c-.7-.94-1.4-1.89-1.05-2.84 0-.63.7-1.26.7-1.26.36 0 1.06.32 1.06.32 1.05 1.26 2.1 3.47 3.15 5.68ZM1065.77 375c-.92-.63-1.85-1.88-2.77-3.44.31-.31 1.85-1.56 1.85-1.56.3.31.61.63.61.94.62 1.25.92 2.19 1.54 3.44 0 .3-.62.62-1.23.62ZM346.82 429c-.73-.7-1.82-1.76-1.82-2.47 0-1.06 1.45-2.47 2.55-3.53l1.45 2.47-2.18 3.53ZM622.67 397c0 .33.33.33.33.67-.67 1-1 2-1.67 3-.66 1.33-1.33 2.66-2.33 3.33l3.67-7ZM1663.62 486c-.31-.3-.62-.62-.62-.92v-.31c.62-2.46.92-2.77 1.54-2.77h.61c.31 0 .93.92 1.54 1.85l.31.3c-1.54.62-2.46 1.54-3.38 1.85ZM658 369c.5.35.75 1.04.75 1.4v.69c.25 2.78.5 4.52-.25 5.91l-.5-8ZM1250.71 418c-.85-1.1-1.42-1.82-1.71-2.9.29-.37.57-.74.57-1.1.57 1.45 1.14 2.55 1.43 3.64 0 0 0 .36-.29.36ZM750 454l.75-3 .25.33c-.25.67-.5 1.67-1 2.67Z" fill="#485143"/><path d="M689 407c18.37 18.14 36.66 37.99 60.56 48.78 8.27 3.74 16.93 6.5 25.22 10.22 5.75 2.58 13.13 6.3 19.1 8.33 24.07 8.21-4.74-2.45 18.12 3.67M983 404c-14.92 24.14-37.23 43.47-62.11 57.11-19.35 10.6-39.34 14.2-60.89 16.89M809 480c15.43 4.37 32.2 3.09 48 2" stroke="#485143" stroke-width="3" stroke-linecap="round"/><path d="M987 395.5c0 5.61-3.7 11.34-11.28 16.87-7.54 5.5-18.59 10.54-32.42 14.8C915.67 435.7 877.38 441 835 441c-42.38 0-80.67-5.3-108.3-13.82-13.83-4.27-24.88-9.3-32.42-14.8C686.7 406.83 683 401.1 683 395.5c0-5.61 3.7-11.34 11.28-16.87 7.54-5.5 18.59-10.54 32.42-14.8C754.33 355.3 792.62 350 835 350c42.38 0 80.67 5.3 108.3 13.82 13.83 4.27 24.88 9.3 32.42 14.8C983.3 384.17 987 389.9 987 395.5Z" stroke="#485143" stroke-width="4"/></g></svg>