<svg width="319" height="118" viewBox="0 0 319 118" fill="none" xmlns="http://www.w3.org/2000/svg" xmlns:xlink="http://www.w3.org/1999/xlink"><mask id="b" style="mask-type:alpha" maskUnits="userSpaceOnUse" x="0" y="0" width="142" height="115"><path fill="url(#a)" d="M0 0h142v115H0z"/></mask><g mask="url(#b)"><path fill="#8B9D83" d="M0 0h142v115H0z"/></g><path d="m172.31 68.14.12 1.48c-1.38.42-2.7.63-3.95.63-1.2 0-2.22-.33-3.08-.98a6.13 6.13 0 0 1-1.92-2.38c-.41-.96-.84-2-1.28-3.12-.42-1.12-.82-2.17-1.22-3.13a5.75 5.75 0 0 0-1.64-2.38 3.8 3.8 0 0 0-2.61-.98l.39 11.49c-.24.8-.7 1.2-1.37 1.2-.47 0-.92-.19-1.37-.58-.41-.39-.67-.86-.78-1.4.03-.55.12-4.95.28-13.2.15-8.29.27-13.08.35-14.38l1.75.39c.03.99.1 2.85.24 5.58.13 2.71.2 4.55.23 5.51a3.96 3.96 0 0 0 2.86-1.25 9.69 9.69 0 0 0 1.95-3l1.56-3.48a9.38 9.38 0 0 1 2.03-2.97 4.23 4.23 0 0 1 3.05-1.25c.88 0 2.38.2 4.5.58l-.4 1.57c-1.62-.26-2.54-.4-2.77-.4-.91 0-1.68.38-2.3 1.14a9.56 9.56 0 0 0-1.57 2.85c-.42 1.12-.87 2.28-1.37 3.48a10.5 10.5 0 0 1-2.19 3.24 7.2 7.2 0 0 1-3.55 2c1.25.28 2.33.84 3.24 1.67a8.07 8.07 0 0 1 2.03 2.81c.45 1.04.88 2.15 1.3 3.32l1.09 3.13c.3.94.74 1.72 1.28 2.34.58.63 1.27.94 2.08.94.78 0 1.8-.16 3.04-.47Zm.12-25.78 2.03-1.91a86.45 86.45 0 0 1 4.45 8.9c1.8 4.01 3.03 6.66 3.68 7.93 2.6-6.7 4.57-12.03 5.9-16.01.33-.63.76-.94 1.28-.94.47 0 .89.23 1.25.7.37.44.58.96.63 1.56-.89 1.9-2.3 5-4.22 9.3-1.9 4.27-3.53 7.77-4.88 10.5-1.33 2.72-2.75 5.33-4.26 7.86l-2.54-.5 5.04-9.9c-.94-2.57-3.72-8.4-8.36-17.5Zm21.37-1.91h13.7c.48 3.67.76 8.77.87 15.3.13 6.52.26 10.83.39 12.94-.24.8-.7 1.2-1.37 1.2-.47 0-.92-.19-1.37-.58-.41-.39-.67-.86-.78-1.4 0-2.11-.06-6.4-.2-12.86-.12-6.48-.19-10.42-.19-11.83-.57 0-1.5.04-2.81.12a52.79 52.79 0 0 1-5.98.03l.28 11.45c.2 7.55.33 12.17.39 13.87-.24.8-.7 1.2-1.37 1.2-.47 0-.93-.19-1.37-.58-.41-.39-.68-.86-.78-1.4.08-2.24.14-6.6.2-13.05.07-6.46.2-11.26.39-14.41Zm33.04 26.8.4 1.75c-1.02 0-2.87.04-5.55.12-2.66.1-4.59.15-5.78.15-1.93 0-3.25-.09-3.95-.27.26-2.86.42-7.66.47-14.38.05-6.71.22-11.4.5-14.06.9.08 3.24.15 7.04.2 3.83.05 6.33.17 7.5.35l.43 1.76c-1.17.2-3.52.45-7.03.74-3.52.29-5.37.44-5.55.47l.16 3.67c.1 1.85.17 3.37.2 4.57a203.48 203.48 0 0 0 9.29.82l.39 1.8c-5.5.5-8.71.75-9.65.78a506.76 506.76 0 0 0-.12 10.35c5.97.55 9.72.94 11.25 1.17Zm-1.05 5.42-1.13-2.03a16.69 16.69 0 0 0 3.67-3.32 18.53 18.53 0 0 0 2.38-3.79 21.16 21.16 0 0 0 1.37-4.33c.34-1.62.54-3.1.62-4.46.1-1.38.16-2.97.16-4.76 0-.94.02-2.39.08-4.34.08-1.98.12-3.49.12-4.53.75-.13 1.9-.2 3.47-.2a167.28 167.28 0 0 0 5.98.12c1.25 0 2.4-.05 3.44-.16.3 1.75.46 4.48.46 8.2 0 1 0 2.56-.03 4.7-.03 2.1-.04 3.7-.04 4.8 0 4.27.18 7.79.54 10.55-.23.8-.67 1.2-1.32 1.2-.47 0-.93-.19-1.37-.58a2.28 2.28 0 0 1-.82-1.36c.05-2.04.07-3.59.07-4.65 0-1.51-.03-3.88-.11-7.11-.05-3.23-.08-5.73-.08-7.5 0-2.4.03-4.18.08-5.35-.63-.06-1.7-.1-3.24-.12-1.54-.03-2.71-.1-3.52-.2a56 56 0 0 0-.59 5.32 4533 4533 0 0 1-.35 5.78 39.46 39.46 0 0 1-.7 5.54c-.37 2-.87 3.75-1.52 5.24a13.58 13.58 0 0 1-2.9 4.22 12.72 12.72 0 0 1-4.72 3.12Zm24.88-32.3 1.76.39c.26 4.3.56 11.44.9 21.44 5.08-9.03 8.57-16.3 10.47-21.8.39-.3.76-.46 1.13-.46.57 0 1.04.34 1.4 1.01.4.68.6 1.45.63 2.3.08 2.43.14 6.52.2 12.27.07 5.76.18 10.06.3 12.9-.23.78-.67 1.17-1.32 1.17-.47 0-.92-.2-1.37-.59a2.28 2.28 0 0 1-.82-1.37c.08-2.26.12-5.74.12-10.43.03-4.68.05-7.85.08-9.49-.57.99-1.58 2.87-3 5.63a110.33 110.33 0 0 1-4 7.1 36.6 36.6 0 0 1-3.7 5.16l.15 3.17c-.23.8-.69 1.2-1.37 1.2-.46 0-.92-.19-1.36-.58-.42-.39-.68-.86-.78-1.4.07-2.22.15-6.56.23-13.01.08-6.46.2-11.33.35-14.61Zm31.21 15.54v-1.99l.04-2.1c.05-.95.1-1.69.16-2.23l.31-2.11c.13-.89.3-1.6.5-2.11l.71-1.84a5.1 5.1 0 0 1 1.06-1.64c.41-.42.87-.8 1.36-1.17.5-.4 1.08-.68 1.76-.86a8.55 8.55 0 0 1 2.23-.27 8.7 8.7 0 0 1 4.22.97 7.72 7.72 0 0 1 2.8 2.39 11.5 11.5 0 0 1 1.61 3.55c.42 1.4.68 2.75.78 4.02a45.56 45.56 0 0 1-.12 9.88 15.56 15.56 0 0 1-1.4 5.24 6.13 6.13 0 0 1-3.4 3.32c-.8.34-1.7.5-2.7.5-1.61 0-3-.19-4.18-.58a7.83 7.83 0 0 1-2.85-1.64 7.57 7.57 0 0 1-1.75-2.77c-.42-1.15-.72-2.4-.9-3.75a42.67 42.67 0 0 1-.24-4.8Zm14.93.32c0-1.28-.1-2.6-.32-3.99a29.5 29.5 0 0 0-.97-4.45 8.61 8.61 0 0 0-2.15-3.87 4.79 4.79 0 0 0-3.56-1.52c-1.04 0-1.96.7-2.77 2.1a15.42 15.42 0 0 0-1.68 4.7c-.34 1.71-.5 3.34-.5 4.88v2.46c.02.55.07 1.34.15 2.38.08 1.02.18 1.82.31 2.42.16.6.4 1.3.7 2.07.32.79.68 1.4 1.1 1.84.44.42 1 .8 1.68 1.13.7.32 1.48.48 2.34.51 1.9-.1 3.32-1.17 4.26-3.2.94-2.03 1.4-4.52 1.4-7.46Zm2.65-13.44-.39-1.76 14.92-.86c.65.03 1.2.26 1.64.7.45.45.67.93.67 1.45 0 .34-.13.64-.4.9-.25.26-.64.42-1.17.47l-6.56-.35c.65 9.19 1.13 17.55 1.45 25.07-.24.79-.68 1.18-1.33 1.18-.47 0-.93-.2-1.37-.59a2.28 2.28 0 0 1-.82-1.37c.05-1.4.08-3.54.08-6.4 0-1.07-.01-2.67-.04-4.8v-4.81c0-3.1.05-5.9.16-8.4-2.95-.21-5.22-.35-6.84-.43Zm-145.86 69.2.2-27.5c.28-.97 1.4-1.45 3.36-1.45 1.8 0 3.45.25 4.96.74a8.2 8.2 0 0 1 3.79 2.42 5.75 5.75 0 0 1 1.56 4.07c0 1.25-.31 2.46-.94 3.63-.6 1.17-1.34 1.93-2.22 2.26 1.66.24 3 1.24 4.02 3.01a12.43 12.43 0 0 1 1.52 6.3c0 1.63-.65 3.06-1.95 4.29a11.92 11.92 0 0 1-4.57 2.61c-1.72.53-3.47.79-5.24.79-2.16 0-3.66-.4-4.49-1.18Zm3.2-13.68c0 1.8-.02 5.4-.07 10.82a3.83 3.83 0 0 0 3 1.33c1.62 0 3.18-.66 4.7-2 1.5-1.34 2.26-2.8 2.26-4.33 0-1.9-.64-3.38-1.92-4.45a7.4 7.4 0 0 0-4.92-1.6c-1.33 0-2.34.08-3.04.23Zm-.07-2.89 2.42-.04c1.66 0 2.94-.48 3.83-1.44a5.02 5.02 0 0 0 1.36-3.52c0-1.38-.45-2.56-1.36-3.55a4.83 4.83 0 0 0-3.8-1.53c-.72 0-1.58.16-2.57.47a1341.92 1341.92 0 0 1 .12 9.6Zm23.79-10.74 2.96.2c.73 3.22 2.23 7.8 4.5 13.7 2.26 5.9 3.76 10.3 4.49 13.2a2.9 2.9 0 0 1-.4 1.69c-.25.39-.58.59-.97.59-.34 0-.66-.15-.97-.44a2.05 2.05 0 0 1-.6-1.13 59.92 59.92 0 0 0-2.26-6.87c-5.36-.68-8.73-1.1-10.11-1.25-.34.94-.76 2.46-1.25 4.57a47.9 47.9 0 0 1-1.18 4.37c-.39.47-.83.7-1.32.7-.55 0-1.02-.24-1.41-.74a2.65 2.65 0 0 1-.59-1.75c.84-3.05 2.35-7.53 4.53-13.44a200.74 200.74 0 0 0 4.58-13.4Zm1.36 3.94c-.52 3.16-1.96 7.78-4.33 13.87h4.37a52 52 0 0 1 4.96.2c-2.68-5.76-4.35-10.45-5-14.06Zm8.48 28.05-1.13-2.03a16.7 16.7 0 0 0 3.67-3.32 18.53 18.53 0 0 0 2.38-3.79 21.16 21.16 0 0 0 1.37-4.34c.34-1.6.54-3.1.62-4.45.1-1.38.16-2.97.16-4.76 0-.94.03-2.39.08-4.34.08-1.98.12-3.49.12-4.53.75-.13 1.9-.2 3.47-.2a167.28 167.28 0 0 0 5.98.12c1.25 0 2.4-.05 3.44-.16.3 1.75.46 4.48.46 8.2 0 1 0 2.56-.03 4.7-.03 2.1-.04 3.7-.04 4.8 0 4.27.18 7.79.54 10.55-.23.8-.67 1.2-1.32 1.2-.47 0-.93-.19-1.37-.58a2.27 2.27 0 0 1-.82-1.36c.05-2.04.08-3.59.08-4.65 0-1.51-.04-3.88-.12-7.11-.05-3.23-.08-5.73-.08-7.5 0-2.4.03-4.18.08-5.35-.63-.06-1.7-.1-3.24-.12-1.54-.03-2.71-.1-3.52-.2a55.34 55.34 0 0 0-.58 5.32l-.36 5.78a39.32 39.32 0 0 1-.7 5.54c-.37 2-.87 3.75-1.52 5.24a13.59 13.59 0 0 1-2.9 4.22 12.72 12.72 0 0 1-4.72 3.12Zm39.18-5.43.39 1.76c-1.02 0-2.87.04-5.55.12-2.65.1-4.58.15-5.78.15-1.93 0-3.24-.09-3.94-.27.26-2.86.41-7.66.47-14.38.05-6.71.22-11.4.5-14.06.89.08 3.23.15 7.03.2 3.83.05 6.33.17 7.5.35l.43 1.76c-1.17.2-3.51.45-7.03.74-3.51.29-5.36.44-5.54.47a3808.9 3808.9 0 0 1 .35 8.24 204.03 204.03 0 0 0 9.3.82l.39 1.8c-5.5.5-8.72.75-9.65.78a506.93 506.93 0 0 0-.12 10.35c5.96.55 9.71.94 11.25 1.17Zm3.24-26.29 1.76-.47c0 .84.01 1.3.04 1.41 1.48-.99 3.57-1.48 6.25-1.48 2.89 0 5.05.9 6.48 2.73 1.44 1.8 2.15 4.32 2.15 7.58 0 2.89-.7 5.28-2.1 7.19-1.42 1.9-3.54 2.85-6.38 2.85-.46 0-2.34-.16-5.62-.47.05 1.9.16 4.86.31 8.87-.23.8-.69 1.2-1.36 1.2-.47 0-.93-.19-1.37-.58a2.35 2.35 0 0 1-.78-1.37c.07-2.18.15-6.44.23-12.77.1-6.33.24-11.22.4-14.69Zm2.15 3.56.31 12.18c1.43.79 3.09 1.18 4.96 1.18 1.8 0 3.32-.68 4.57-2.03a7.05 7.05 0 0 0 1.88-4.97c0-2.1-.65-4-1.96-5.7a5.94 5.94 0 0 0-4.88-2.54c-1.59 0-3.21.63-4.88 1.88Zm18.28-4.22 1.76.39c.03.5.2 4.39.5 11.68.71-.1 1.5-.16 2.35-.16 3.44 0 6.25.98 8.44 2.93 2.19 1.93 3.28 4.2 3.28 6.8 0 5.29-3.27 7.93-9.8 7.93-1.7 0-3.25-.13-4.65-.4-1.41-.25-2.22-.58-2.43-.97.08-2.18.15-6.61.2-13.28.05-6.7.17-11.67.35-14.92Zm2.46 15c.18 5.55.31 9.24.4 11.1 1.79.23 3.37.34 4.72.34 3.64 0 5.47-1.73 5.47-5.2 0-1.79-.78-3.3-2.35-4.52-1.53-1.25-3.56-1.88-6.09-1.88-.78 0-1.5.05-2.15.16Zm18.4-14.73 1.76.4c.08 1.22.4 10.44.98 27.65-.24.78-.68 1.17-1.33 1.17-.47 0-.93-.2-1.37-.59a2.28 2.28 0 0 1-.82-1.36l.27-12.42c.16-6.41.33-11.36.51-14.85Z" fill="#8B9D83"/><defs><pattern id="a" patternContentUnits="objectBoundingBox" width="1" height="1"><use xlink:href="#c" transform="matrix(.00206 0 0 .00255 -.06 -.17)"/></pattern></defs></svg>